<?xml version="1.0" encoding="utf-8"?>
<!-- Generator: Adobe Illustrator 24.1.0, SVG Export Plug-In . SVG Version: 6.00 Build 0)  -->
<svg version="1.1" id="Layer_1" xmlns="http://www.w3.org/2000/svg" xmlns:xlink="http://www.w3.org/1999/xlink" x="0px" y="0px"
	 viewBox="0 0 1024 240" style="enable-background:new 0 0 1024 240;" xml:space="preserve">
<style type="text/css">
	.st0{fill:#FFFFFF;}
	.st1{fill:#79B522;}
	.st2{enable-background:new    ;}
	.st3{fill:#79B522;stroke:#79B522;stroke-width:5.1593;stroke-miterlimit:10;}
</style>
<path class="st0" d="M1001.4,44.1h-3.6V42h9.5v2.1h-3.6v11.4h-2.1L1001.4,44.1L1001.4,44.1z M1009.1,42h3.4l3.1,9.5l0,0l3.1-9.5h3.4
	v13.4h-2.1V44.6l0,0l-3.6,10.8h-1.5l-3.6-10.8l0,0v10.8h-2.1V42H1009.1z M935.1,41.5c-5.7,0-10.1,3.9-10.8,9.3
	c-7.5-7.5-18.1-11.6-30.2-11.6c-30.2,0-53.7,23.7-53.7,53.9c0,0.8,0,1.3,0,2.1c11.4,4.4,19.3,15.5,19.3,28.4c0,3.6-0.5,7-1.8,10.1
	c9.5,8.3,21.9,13.2,35.9,13.2c12.1,0,23.5-5.9,30.2-12.4c0.5,5.9,4.9,10.1,10.8,10.1c7,0,11.1-4.1,11.1-11.1V52.6
	C946.4,45.9,942,41.5,935.1,41.5 M894,123c-16.5,0-29.9-13.4-29.9-29.9s13.4-29.9,29.9-29.9s29.9,13.4,29.9,29.9
	C924,109.9,910.3,123,894,123 M738.5,41.5c-5.7,0-10.1,3.9-10.8,9.3c-7.5-7.5-18.1-11.6-30.2-11.6c-30.2,0-53.7,23.7-53.7,53.9
	c0,30.4,23.2,53.7,53.7,53.7c12.1,0,23.5-5.9,30.2-12.4c0.5,5.9,4.9,10.1,10.8,10.1c7,0,11.1-4.1,11.1-11.1V52.6
	C749.6,45.9,745.2,41.5,738.5,41.5 M696.4,123c-16.5,0-29.9-13.4-29.9-29.9s13.4-29.9,29.9-29.9s29.9,13.4,29.9,29.9
	C726.6,109.9,713,123,696.4,123 M359,1.8c-7,0-11.1,4.4-11.1,11.1v38.2c-7-7.5-17.5-11.9-29.9-11.9c-28.6,0-53.7,25.3-53.7,53.9
	s25,53.7,53.7,53.7c12.6,0,24.5-6.4,31-12.9c1.3,7,5.4,10.8,12.1,10.8c5.4,0,9.3-4.1,9.3-10.1v-122C370.1,6.2,365.5,1.8,359,1.8
	 M317.8,123c-16.5,0-29.9-13.4-29.9-29.9s13.4-29.9,29.9-29.9s29.9,13.4,29.9,29.9C347.4,109.9,334.3,123,317.8,123 M521.5,41.5
	c-7.2,0-10.8,3.4-11.9,10.8c-6.7-6.7-18.3-13.2-31-13.2c-28.6,0-53.7,25-53.7,53.9c0,28.6,25,53.9,53.7,53.9
	c12.9,0,23.2-4.1,29.7-11.4c-0.8,21.7-11.1,32.2-32,32.2c-7,0-11.1,4.4-11.1,11.1c0,7.2,4.4,11.1,11.9,11.1
	c39.7,0,53.7-28.9,53.7-53.7V51.3C531.3,45.9,527.2,41.5,521.5,41.5 M478.5,123c-16.5,0-29.9-13.4-29.9-29.9s13.4-29.9,29.9-29.9
	s29.9,13.4,29.9,29.9C508.4,109.9,495,123,478.5,123 M976.9,41c-6.2,0-11.1,4.6-11.1,11.1l-0.3,82c0,6.7,4.6,11.1,11.1,11.1
	c7,0,11.1-4.1,11.1-11.1l0.3-82C987.9,45.4,983.6,41,976.9,41 M399,40.5c-6.2,0-11.1,4.6-11.1,11.1v82c0,6.7,4.6,11.1,11.1,11.1
	c7,0,11.1-4.1,11.1-11.1v-82C410.1,44.9,405.5,40.5,399,40.5 M562,40.8c-6.2,0-11.1,4.6-11.1,11.1v81.8c0,6.7,4.6,11.1,11.1,11.1
	c7,0,11.1-4.1,11.1-11.1V51.9C572.9,45.1,568.5,40.8,562,40.8 M630.7,123c-7.2-0.5-11.9-2.6-11.9-11.1V64.7h5.7
	c6.2,0,11.1-4.6,11.1-11.1c0-7-4.4-11.1-11.1-11.1h-5.7V12.9c0-7-4.1-11.1-11.1-11.1c-6.4,0-11.1,4.6-11.1,11.1v29.9
	c-5.4,0.8-8.5,4.9-8.5,10.8c0,5.7,3.6,10.1,8.5,10.8V112c0,20.6,11.1,32.5,30.4,32.5c8,0,12.9-3.9,12.9-10.3
	C640,127.7,636.3,123.6,630.7,123 M781.8,1.8c-6.4,0-11.1,4.6-11.1,11.1v120.7c0,6.7,4.6,11.1,11.1,11.1c7,0,11.1-4.1,11.1-11.1
	V12.9C793.2,5.9,788.8,1.8,781.8,1.8 M846.8,112c-0.3-0.5-0.8-1-1.3-1.5c-1-1.3-2.1-2.3-3.6-3.4c-0.5-0.3-0.8-0.8-1.3-0.8
	c-2.3-1.5-4.9-2.6-8-3.1c-1.3-0.3-2.3-0.3-3.6-0.3c-3.6,0-7,0.8-10.1,2.6c-0.5,0.3-1.3,0.8-1.8,1c-5.7,3.6-9.3,10.1-9.3,17.3
	s3.6,13.7,9.3,17.3c0.5,0.3,1,0.8,1.8,1c3.1,1.5,6.2,2.6,10.1,2.6c5.2,0,9.5-1.8,13.4-4.6c1-0.8,1.8-1.8,2.8-2.8
	c0.3-0.5,0.8-1,1.3-1.5c0.8-1,1.3-2.3,1.8-3.6c1-2.6,1.5-5.2,1.5-8.3c0-3.1-0.5-5.7-1.5-8.3C848.1,114.3,847.4,113.2,846.8,112"/>
<path class="st1" d="M716.3,88.5c0.3,1.3,0.5,3.1,0.5,4.6c0,0.8,0,1.8-0.3,2.6c-0.3,0.8-0.3,1.8-0.5,2.6c-0.3,1.5-1,3.1-1.8,4.6
	c-3.6,6.2-10.1,10.6-17.8,10.6c-11.1,0-20.4-9-20.4-20.6c0-1.3,0.3-2.8,0.3-4.1c1.3-6.7,5.9-12.1,12.1-14.7c2.6-1,5.2-1.5,8-1.5
	s5.4,0.5,8,1.5c4.6,1.8,8.3,5.4,10.3,10.1C715.5,85.6,716.1,87.2,716.3,88.5 M317.8,72.7c-11.1,0-20.4,9-20.4,20.6s9,20.6,20.4,20.6
	s20.4-9,20.4-20.6S328.8,72.7,317.8,72.7 M901.8,74.3c-0.5-0.3-1.3-0.5-1.8-0.8c-0.8-0.3-1.8-0.5-3.1-0.8s-2.1-0.3-3.1-0.3
	c-2.1,0-4.1,0.3-6.2,0.8c-0.8,0.3-1.3,0.3-1.8,0.8c-6.2,2.6-10.6,8-12.1,14.7c-0.3,1.3-0.3,2.6-0.3,4.1c0,5.7,2.3,10.6,5.9,14.4
	c0.8,0.8,1.8,1.8,3.1,2.6c1.5,1,3.6,1.8,5.2,2.6c1.8,0.5,4.1,0.8,6.2,0.8c1,0,2.1,0,3.1-0.3s1.8-0.3,3.1-0.8
	c1.8-0.5,3.6-1.3,5.2-2.6c1-0.8,2.1-1.5,3.1-2.6c3.6-3.6,5.9-8.8,5.9-14.4c0-1.3-0.3-2.8-0.3-4.1C912.6,82.5,908,77.1,901.8,74.3
	 M486.5,74.3c-2.6-1-5.2-1.5-8-1.5s-5.4,0.5-8,1.5c-6.2,2.6-10.6,8-12.1,14.7c-0.3,1.3-0.3,2.6-0.3,4.1c0,11.1,9,20.6,20.4,20.6
	c11.1,0,20.4-9,20.4-20.6c0-1.3-0.3-2.8-0.3-4.1C497,82.5,492.4,77.1,486.5,74.3"/>
<g class="st2">
	<path class="st0" d="M761.7,222.2c-1.2,0-1.9-0.6-2.2-1.7l-0.7-5.7c-2,2.4-4.3,4.4-6.8,5.8c-2.6,1.5-5.5,2.2-8.8,2.2
		c-2.7,0-5.1-0.5-7.3-1.5c-2.2-1-4-2.5-5.6-4.5c-1.5-2-2.7-4.5-3.5-7.5s-1.2-6.4-1.2-10.3c0-3.4,0.5-6.6,1.4-9.6
		c0.9-3,2.2-5.5,4-7.7c1.7-2.2,3.8-3.9,6.3-5.1c2.5-1.2,5.3-1.9,8.5-1.9c2.9,0,5.3,0.5,7.3,1.5s3.8,2.3,5.4,4.1v-25.9h8.2v67.8
		H761.7z M745.8,216.2c2.7,0,5-0.6,7-1.8c2-1.2,3.9-3,5.5-5.2v-22.6c-1.5-2-3.2-3.4-5-4.3c-1.8-0.8-3.8-1.2-6-1.2
		c-4.4,0-7.7,1.6-10,4.7s-3.5,7.5-3.5,13.3c0,3,0.3,5.6,0.8,7.8c0.5,2.2,1.3,3.9,2.3,5.3s2.3,2.4,3.7,3.1
		C742.2,215.8,743.9,216.2,745.8,216.2z"/>
	<path class="st0" d="M798.8,174.8c2.8,0,5.4,0.5,7.7,1.4c2.4,0.9,4.4,2.3,6.1,4.1s3.1,3.9,4,6.5c1,2.6,1.5,5.5,1.5,8.9
		c0,1.3-0.1,2.1-0.4,2.6c-0.3,0.4-0.8,0.6-1.6,0.6h-31c0.1,2.9,0.5,5.5,1.2,7.7c0.7,2.2,1.8,4,3,5.5c1.3,1.5,2.8,2.5,4.6,3.3
		c1.8,0.7,3.8,1.1,6,1.1c2.1,0,3.8-0.2,5.3-0.7c1.5-0.5,2.8-1,3.8-1.5c1.1-0.6,2-1.1,2.7-1.5c0.7-0.5,1.3-0.7,1.9-0.7
		c0.7,0,1.2,0.3,1.6,0.8l2.3,3c-1,1.2-2.2,2.3-3.6,3.2c-1.4,0.9-2.9,1.7-4.5,2.2c-1.6,0.6-3.3,1-5,1.3c-1.7,0.3-3.4,0.4-5.1,0.4
		c-3.2,0-6.2-0.5-8.9-1.6s-5.1-2.7-7-4.8s-3.5-4.7-4.6-7.8c-1.1-3.1-1.7-6.7-1.7-10.7c0-3.3,0.5-6.3,1.5-9.1c1-2.8,2.4-5.3,4.3-7.3
		c1.9-2.1,4.2-3.7,6.9-4.9C792.4,175.4,795.4,174.8,798.8,174.8z M799,180.8c-4,0-7.1,1.1-9.3,3.4c-2.3,2.3-3.7,5.5-4.2,9.5h25.4
		c0-1.9-0.3-3.6-0.8-5.2c-0.5-1.6-1.3-2.9-2.3-4.1c-1-1.2-2.2-2-3.7-2.7C802.5,181.1,800.9,180.8,799,180.8z"/>
	<path class="st0" d="M828.6,238v-62.5h4.9c1.2,0,1.9,0.6,2.2,1.7l0.7,5.5c2-2.4,4.3-4.4,6.8-5.8c2.6-1.5,5.5-2.2,8.9-2.2
		c2.7,0,5.1,0.5,7.3,1.5c2.2,1,4,2.5,5.6,4.6c1.5,2,2.7,4.5,3.5,7.5s1.2,6.4,1.2,10.3c0,3.4-0.5,6.6-1.4,9.6c-0.9,3-2.2,5.5-4,7.7
		s-3.8,3.9-6.3,5.1c-2.5,1.2-5.3,1.9-8.5,1.9c-2.9,0-5.4-0.5-7.4-1.4s-3.8-2.3-5.4-4.1V238H828.6z M849.4,181.3c-2.7,0-5,0.6-7,1.8
		c-2,1.2-3.9,3-5.5,5.2v22.6c1.5,2,3.2,3.5,5,4.3c1.8,0.8,3.8,1.2,6,1.2c4.3,0,7.7-1.6,10-4.7c2.3-3.1,3.5-7.5,3.5-13.3
		c0-3-0.3-5.6-0.8-7.8c-0.5-2.2-1.3-4-2.3-5.4c-1-1.4-2.3-2.4-3.7-3.1C852.9,181.6,851.3,181.3,849.4,181.3z"/>
	<path class="st0" d="M888.6,154.3v67.8h-8.2v-67.8H888.6z"/>
	<path class="st0" d="M921.9,174.8c3.4,0,6.5,0.6,9.2,1.7s5.1,2.7,7,4.8c1.9,2.1,3.4,4.6,4.4,7.6c1,3,1.5,6.3,1.5,9.9
		c0,3.7-0.5,7-1.5,9.9c-1,2.9-2.5,5.5-4.4,7.6c-1.9,2.1-4.3,3.7-7,4.8c-2.7,1.1-5.8,1.7-9.2,1.7s-6.5-0.6-9.2-1.7
		c-2.7-1.1-5.1-2.7-7-4.8c-1.9-2.1-3.4-4.6-4.5-7.6c-1-2.9-1.6-6.3-1.6-9.9c0-3.7,0.5-7,1.6-9.9c1-3,2.5-5.5,4.5-7.6
		c1.9-2.1,4.3-3.7,7-4.8S918.5,174.8,921.9,174.8z M921.9,216.4c4.6,0,8-1.5,10.3-4.6c2.3-3.1,3.4-7.4,3.4-12.9
		c0-5.6-1.1-9.9-3.4-13c-2.3-3.1-5.7-4.7-10.3-4.7c-2.3,0-4.4,0.4-6.1,1.2c-1.7,0.8-3.2,2-4.3,3.5c-1.2,1.5-2,3.4-2.6,5.6
		c-0.6,2.2-0.9,4.7-0.9,7.4s0.3,5.2,0.9,7.4c0.6,2.2,1.4,4,2.6,5.5c1.2,1.5,2.6,2.6,4.3,3.4C917.6,216,919.6,216.4,921.9,216.4z"/>
	<path class="st0" d="M966.7,235.9c-0.3,0.6-0.6,1.1-1,1.5c-0.4,0.4-1.1,0.6-1.9,0.6h-6.1l8.5-18.5L947,175.5h7.1
		c0.7,0,1.3,0.2,1.7,0.5c0.4,0.4,0.7,0.7,0.9,1.2l12.5,29.4c0.3,0.7,0.5,1.4,0.7,2c0.2,0.7,0.4,1.4,0.5,2.1c0.2-0.7,0.4-1.4,0.6-2.1
		c0.2-0.7,0.5-1.4,0.7-2.1l12.1-29.3c0.2-0.5,0.5-0.9,0.9-1.2c0.4-0.3,0.9-0.5,1.5-0.5h6.5L966.7,235.9z"/>
</g>
<path id="XMLID_11_" class="st3" d="M175.4,61.7c-0.3-2.6-2.3-4.9-5.2-5.2c-34.8-2.8-60.1,14.2-75.6,35.6
	c-8.5-2.8-17.8-1.8-26.3,2.8c-8,4.6-15,12.1-19.3,21.7c-1,2.1-0.5,4.6,1.3,6.4c1.8,1.5,4.4,2.1,6.4,0.8c8.8-4.6,18.8-3.9,24.8,2.1
	l24.2,24.2c0,0,0,0,0,0.3c5.9,5.9,7,16,2.1,24.8c-1,2.1-0.8,4.6,0.8,6.4c1,1,2.6,1.8,4.1,1.8c0.8,0,1.5-0.3,2.3-0.5
	c9.3-4.4,17-11.4,21.7-19.3c4.6-8.5,5.7-17.8,2.8-26.3c6.2-4.4,11.9-9.5,16.5-15C171,105.2,177.2,84.9,175.4,61.7z M67,109.9
	c5.9-5.9,13.4-9.3,21.4-8c-2.1,3.9-4.1,7.7-5.7,11.6C77.8,110.9,72.4,109.6,67,109.9z M122,164.8c0.3-5.7-1-11.1-3.6-15.7
	c4.1-1.8,8-3.6,11.6-5.7C131.5,151.2,127.9,158.9,122,164.8z M111.1,140.1l-19.6-19.3c9.8-26.1,34.1-54.2,72.7-53.4
	C165.8,113.5,127.6,133.6,111.1,140.1z M146.7,85.1c1.5,1.5,2.6,3.9,2.6,6.4s-1,4.6-2.6,6.4c-1.5,1.5-3.9,2.6-6.4,2.6
	s-4.6-1-6.4-2.6c-1.5-1.5-2.6-3.9-2.6-6.4s1-4.6,2.6-6.4c1.5-1.5,3.9-2.6,6.4-2.6S145.2,83.3,146.7,85.1z M69.1,142.4
	c-6.4,6.4-6.7,19.1-6.7,21.4c0,3.1,2.6,5.7,5.4,5.7c0,0,0,0,0.3,0c2.8,0,15-0.5,21.2-6.7c3.9-3.9,4.6-8,4.6-10.6
	c0-3.6-1.5-7.2-4.4-10.1C82.7,135.2,74,137.5,69.1,142.4z M81.5,155c-1.3,1.3-4.4,2.3-7.5,2.8c0.5-3.1,1.5-6.2,2.8-7.5
	c0.8-0.8,1.8-1.5,2.6-1.5c0.8,0,1.5,0.3,2.3,1.3c0.8,0.8,1.3,1.5,1.3,2.3C83,153.2,82.2,154.3,81.5,155z"/>
<path class="st1" d="M120.7,20.9c54.4,0,98.8,44.4,98.8,98.8s-44.4,98.8-98.8,98.8s-98.8-44.4-98.8-98.8
	C21.9,65.3,66.2,20.9,120.7,20.9 M120.7,1C55.1,1,2,54.2,2,119.7s53.1,118.7,118.7,118.7s118.7-53.1,118.7-118.7S186.2,1,120.7,1
	L120.7,1z"/>
</svg>
