<?xml version="1.0" encoding="utf-8"?>
<!-- Generator: Adobe Illustrator 24.1.0, SVG Export Plug-In . SVG Version: 6.00 Build 0)  -->
<svg version="1.1" id="Layer_1" xmlns="http://www.w3.org/2000/svg" xmlns:xlink="http://www.w3.org/1999/xlink" x="0px" y="0px"
	 viewBox="0 0 1024 240" style="enable-background:new 0 0 1024 240;" xml:space="preserve">
<style type="text/css">
	.st0{fill:#79B522;}
	.st1{fill:#495260;}
	.st2{enable-background:new    ;}
</style>
<path class="st0" d="M120.5,1.5C55.1,1.5,2,54.5,2,120s53.1,118.5,118.5,118.5s118.6-53,118.6-118.5S185.7,1.5,120.5,1.5z
	 M160.7,202c-21.4,0-38.9-17.3-38.9-38.9s17.3-38.9,38.9-38.9s38.9,17.3,38.9,38.9c0,5.9-1.5,11.9-4.1,17.3
	c-4.9,6.7-10.8,12.9-17.8,17.8C172.6,200.7,166.9,202,160.7,202z M160.7,105.1c-32.2,0-58.2,26-58.2,58.2c0,18.8,8.8,35.3,22.7,46.1
	C92.7,203.5,68,174.6,68,140.6c0-38.7,31.4-70.1,70.1-70.1c34,0,62.9,24.5,68.8,57.2C196.3,113.8,179.6,105.1,160.7,105.1z
	 M21.3,120c0-54.6,44.3-99,99-99c47.2,0,86.8,33.2,96.6,77.3C202,70.2,172.1,51.1,138,51.1c-49.5,0-89.4,40.2-89.4,89.4
	c0,29.4,14.2,55.7,36.1,71.6C47.6,197.8,21.3,162,21.3,120z"/>
<path class="st1" d="M1001.4,44h-3.6v-2.1h9.5V44h-3.6v11.3h-2.1L1001.4,44L1001.4,44z M1009.1,41.9h3.4l3.1,9.5l0,0l3.1-9.5h3.4
	v13.4h-2.1V44.5l0,0l-3.6,10.8h-1.5l-3.6-10.8l0,0v10.8h-2.1V41.9H1009.1z M935.2,41.4c-5.7,0-10.1,3.9-10.8,9.3
	c-7.5-7.5-18-11.6-30.2-11.6c-30.2,0-53.6,23.7-53.6,53.9c0,0.8,0,1.3,0,2.1c11.3,4.4,19.3,15.5,19.3,28.3c0,3.6-0.5,7-1.8,10.1
	c9.5,8.2,21.9,13.1,35.8,13.1c12.1,0,23.5-5.9,30.2-12.4c0.5,5.9,4.9,10.1,10.8,10.1c7,0,11.1-4.1,11.1-11.1V52.5
	C946.2,45.8,941.9,41.4,935.2,41.4 M893.9,122.8c-16.5,0-29.9-13.4-29.9-29.9S877.4,63,893.9,63s29.9,13.4,29.9,29.9
	S910.4,122.8,893.9,122.8 M738.8,41.4c-5.7,0-10.1,3.9-10.8,9.3c-7.5-7.5-18-11.6-30.2-11.6c-30.2,0-53.6,23.7-53.6,53.9
	c0,30.4,23.2,53.6,53.6,53.6c12.1,0,23.5-5.9,30.2-12.4c0.5,5.9,4.9,10.1,10.8,10.1c7,0,11.1-4.1,11.1-11.1V52.5
	C749.9,45.8,745.5,41.4,738.8,41.4 M696.8,122.8c-16.5,0-29.9-13.4-29.9-29.9S680.3,63,696.8,63s29.9,13.4,29.9,29.9
	S713.3,122.8,696.8,122.8 M359.4,1.7c-7,0-11.1,4.4-11.1,11.1v38.1c-7-7.5-17.5-11.9-29.9-11.9c-28.6,0-53.6,25.3-53.6,53.9
	s25,53.6,53.6,53.6c12.6,0,24.5-6.4,30.9-12.9c1.3,7,5.4,10.8,12.1,10.8c5.4,0,9.3-4.1,9.3-10.1V12.5C370.8,6.1,366.1,1.7,359.4,1.7
	 M318.5,122.8c-16.5,0-29.9-13.4-29.9-29.9S302,63,318.5,63s29.9,13.4,29.9,29.9C348.1,109.4,335,122.8,318.5,122.8 M522.1,41.4
	c-7.2,0-10.8,3.4-11.9,10.8c-6.7-6.7-18.3-13.1-30.9-13.1c-28.6,0-53.6,25-53.6,53.9c0,28.6,25,53.9,53.6,53.9
	c12.9,0,23.2-4.1,29.6-11.3c-0.8,21.6-11.1,32.2-32,32.2c-7,0-11.1,4.4-11.1,11.1c0,7.2,4.4,11.1,11.9,11.1
	c39.7,0,53.6-28.9,53.6-53.6v-85C531.6,45.5,527.7,41.4,522.1,41.4 M479,122.8c-16.5,0-29.9-13.4-29.9-29.9S462.5,63,479,63
	s29.9,13.4,29.9,29.9C508.6,109.4,495.5,122.8,479,122.8 M976.9,40.6c-6.2,0-11.1,4.6-11.1,11.1l-0.3,82c0,6.7,4.6,11.1,11.1,11.1
	c7,0,11.1-4.1,11.1-11.1l0.3-82C988,45,983.6,40.6,976.9,40.6 M399.4,40.1c-6.2,0-11.1,4.6-11.1,11.1v82c0,6.7,4.6,11.1,11.1,11.1
	c7,0,11.1-4.1,11.1-11.1v-82C410.7,44.7,406.1,40.1,399.4,40.1 M562.3,40.4c-6.2,0-11.1,4.6-11.1,11.1v81.7
	c0,6.7,4.6,11.1,11.1,11.1c7,0,11.1-4.1,11.1-11.1V51.5C573.3,44.7,569,40.4,562.3,40.4 M631.1,122.8c-7.2-0.5-11.9-2.6-11.9-11.1
	V64.6h5.7c6.2,0,11.1-4.6,11.1-11.1c0-7-4.4-11.1-11.1-11.1h-5.7V12.5c0-7-4.1-11.1-11.1-11.1C601.7,1.4,597,6,597,12.5v29.9
	c-5.4,0.8-8.5,4.9-8.5,10.8c0,5.7,3.6,10.1,8.5,10.8v47.4c0,20.6,11.1,32.5,30.4,32.5c8,0,12.9-3.9,12.9-10.3
	C640.3,127.2,636.7,123.4,631.1,122.8 M782.1,1.7c-6.4,0-11.1,4.6-11.1,11.1v120.6c0,6.7,4.6,11.1,11.1,11.1c7,0,11.1-4.1,11.1-11.1
	V12.5C793.4,5.8,789,1.7,782.1,1.7 M847,111.8c-0.3-0.5-0.8-1-1.3-1.5c-1-1.3-2.1-2.3-3.6-3.4c-0.5-0.3-0.8-0.8-1.3-0.8
	c-2.3-1.5-4.9-2.6-8-3.1c-1.3-0.3-2.3-0.3-3.6-0.3c-3.6,0-7,0.8-10.1,2.6c-0.5,0.3-1.3,0.8-1.8,1c-5.7,3.6-9.3,10.1-9.3,17.3
	s3.6,13.7,9.3,17.3c0.5,0.3,1,0.8,1.8,1c3.1,1.5,6.2,2.6,10.1,2.6c5.2,0,9.5-1.8,13.4-4.6c1-0.8,1.8-1.8,2.8-2.8
	c0.3-0.5,0.8-1,1.3-1.5c0.8-1,1.3-2.3,1.8-3.6c1-2.6,1.5-5.2,1.5-8.2c0-3.1-0.5-5.7-1.5-8.2C848.3,114.1,847.5,112.8,847,111.8"/>
<path class="st0" d="M716.6,88.3c0.3,1.3,0.5,3.1,0.5,4.6c0,0.8,0,1.8-0.3,2.6c-0.3,0.8-0.3,1.8-0.5,2.6c-0.3,1.5-1,3.1-1.8,4.6
	c-3.6,6.2-10.1,10.6-17.8,10.6c-11.1,0-20.4-9-20.4-20.6c0-1.3,0.3-2.8,0.3-4.1c1.3-6.7,5.9-12.1,12.1-14.7c2.6-1,5.2-1.5,8-1.5
	s5.4,0.5,8,1.5c4.6,1.8,8.2,5.4,10.3,10.1C715.8,85.2,716.4,86.8,716.6,88.3 M318.5,72.6c-11.1,0-20.4,9-20.4,20.6s9,20.6,20.4,20.6
	c11.1,0,20.4-9,20.4-20.6S329.5,72.6,318.5,72.6 M901.9,74.1c-0.5-0.3-1.3-0.5-1.8-0.8c-0.8-0.3-1.8-0.5-3.1-0.8
	c-1-0.3-2.1-0.3-3.1-0.3c-2.1,0-4.1,0.3-6.2,0.8c-0.8,0.3-1.3,0.3-1.8,0.8c-6.2,2.6-10.6,8-12.1,14.7c-0.3,1.3-0.3,2.6-0.3,4.1
	c0,5.7,2.3,10.6,5.9,14.4c0.8,0.8,1.8,1.8,3.1,2.6c1.5,1,3.6,1.8,5.2,2.6c1.8,0.5,4.1,0.8,6.2,0.8c1,0,2.1,0,3.1-0.3
	s1.8-0.3,3.1-0.8c1.8-0.5,3.6-1.3,5.2-2.6c1-0.8,2.1-1.5,3.1-2.6c3.6-3.6,5.9-8.8,5.9-14.4c0-1.3-0.3-2.8-0.3-4.1
	C912.5,82.1,908.1,76.7,901.9,74.1 M486.7,74.1c-2.6-1-5.2-1.5-8-1.5s-5.4,0.5-8,1.5c-6.2,2.6-10.6,8-12.1,14.7
	c-0.3,1.3-0.3,2.6-0.3,4.1c0,11.1,9,20.6,20.4,20.6c11.1,0,20.4-9,20.4-20.6c0-1.3-0.3-2.8-0.3-4.1
	C497.6,82.1,492.9,76.7,486.7,74.1"/>
<g class="st2">
	<path class="st1" d="M544.5,175.1h6.7c0.6,0,1.2,0.2,1.6,0.5c0.4,0.3,0.7,0.7,0.9,1.2l11.8,30c0.4,1.1,0.8,2.2,1,3.3
		c0.2,1.1,0.5,2.2,0.7,3.3c0.2-1.1,0.5-2.2,0.8-3.3c0.3-1.1,0.6-2.2,1.1-3.3l12-30c0.2-0.5,0.5-0.9,0.9-1.2c0.4-0.3,0.9-0.5,1.5-0.5
		h6.4l-19,46.6h-7.4L544.5,175.1z"/>
	<path class="st1" d="M614.8,174.4c2.8,0,5.4,0.5,7.7,1.4s4.4,2.3,6.1,4c1.7,1.8,3.1,3.9,4,6.5c1,2.6,1.4,5.5,1.4,8.9
		c0,1.3-0.1,2.1-0.4,2.6c-0.3,0.4-0.8,0.6-1.6,0.6h-31c0.1,2.9,0.5,5.5,1.2,7.7c0.7,2.2,1.7,4,3,5.5c1.3,1.5,2.8,2.5,4.6,3.3
		s3.8,1.1,6,1.1c2.1,0,3.8-0.2,5.3-0.7c1.5-0.5,2.8-1,3.8-1.5c1.1-0.6,2-1.1,2.7-1.5c0.7-0.5,1.3-0.7,1.9-0.7c0.7,0,1.2,0.3,1.6,0.8
		l2.3,3c-1,1.2-2.2,2.3-3.6,3.2c-1.4,0.9-2.9,1.6-4.5,2.2c-1.6,0.6-3.3,1-5,1.3c-1.7,0.3-3.4,0.4-5.1,0.4c-3.2,0-6.2-0.5-8.9-1.6
		s-5.1-2.7-7-4.8c-2-2.1-3.5-4.7-4.6-7.8c-1.1-3.1-1.7-6.7-1.7-10.7c0-3.3,0.5-6.3,1.5-9.1c1-2.8,2.4-5.3,4.3-7.3s4.2-3.7,6.9-4.9
		C608.4,175,611.4,174.4,614.8,174.4z M615,180.4c-4,0-7.1,1.1-9.3,3.4c-2.3,2.3-3.7,5.5-4.2,9.5h25.4c0-1.9-0.3-3.6-0.8-5.2
		c-0.5-1.6-1.3-2.9-2.3-4.1c-1-1.2-2.2-2-3.7-2.7C618.5,180.7,616.8,180.4,615,180.4z"/>
	<path class="st1" d="M644.6,221.7v-46.6h4.7c0.9,0,1.5,0.2,1.8,0.5c0.3,0.3,0.6,0.9,0.7,1.7l0.6,7.3c1.6-3.3,3.6-5.8,5.9-7.6
		c2.3-1.8,5.1-2.7,8.3-2.7c1.3,0,2.5,0.1,3.5,0.4c1,0.3,2,0.7,2.9,1.2l-1.1,6.1c-0.2,0.8-0.7,1.2-1.4,1.2c-0.4,0-1.1-0.1-2-0.4
		s-2.1-0.4-3.7-0.4c-2.9,0-5.2,0.8-7.2,2.5c-1.9,1.7-3.5,4.1-4.8,7.2v29.7H644.6z"/>
	<path class="st1" d="M708.3,182.8c-0.4,0.7-0.9,1-1.7,1c-0.5,0-1-0.2-1.6-0.5c-0.6-0.3-1.3-0.7-2.1-1.1s-1.8-0.8-3-1.2
		c-1.2-0.4-2.5-0.5-4.1-0.5c-1.4,0-2.6,0.2-3.7,0.5c-1.1,0.4-2,0.8-2.8,1.4c-0.8,0.6-1.4,1.3-1.8,2.1c-0.4,0.8-0.6,1.7-0.6,2.6
		c0,1.2,0.3,2.2,1,3c0.7,0.8,1.6,1.5,2.7,2.1c1.1,0.6,2.4,1.1,3.9,1.5c1.4,0.4,2.9,0.9,4.4,1.4c1.5,0.5,3,1.1,4.4,1.7
		c1.4,0.6,2.7,1.4,3.9,2.3c1.1,0.9,2,2,2.7,3.4s1,2.9,1,4.8c0,2.1-0.4,4.1-1.2,6c-0.8,1.8-1.9,3.4-3.4,4.7c-1.5,1.3-3.3,2.4-5.5,3.2
		c-2.2,0.8-4.7,1.2-7.5,1.2c-3.3,0-6.2-0.5-8.8-1.6c-2.6-1.1-4.9-2.4-6.7-4.1l1.9-3.1c0.2-0.4,0.5-0.7,0.9-0.9
		c0.3-0.2,0.8-0.3,1.3-0.3c0.6,0,1.1,0.2,1.7,0.6c0.6,0.4,1.4,0.9,2.2,1.4s1.9,1,3.2,1.4c1.2,0.4,2.8,0.6,4.7,0.6
		c1.6,0,3-0.2,4.2-0.6s2.2-1,3-1.7c0.8-0.7,1.4-1.5,1.8-2.4c0.4-0.9,0.6-1.9,0.6-2.9c0-1.3-0.3-2.4-1-3.2c-0.7-0.8-1.6-1.6-2.7-2.2
		c-1.1-0.6-2.4-1.1-3.9-1.6c-1.5-0.4-2.9-0.9-4.5-1.4c-1.5-0.5-3-1-4.5-1.7s-2.8-1.4-3.9-2.4c-1.1-1-2-2.1-2.7-3.5
		c-0.7-1.4-1-3.1-1-5.1c0-1.8,0.4-3.5,1.1-5.1s1.8-3.1,3.2-4.3c1.4-1.2,3.1-2.2,5.2-3c2.1-0.7,4.4-1.1,7-1.1c3.1,0,5.8,0.5,8.3,1.4
		c2.4,1,4.5,2.3,6.3,4L708.3,182.8z"/>
	<path class="st1" d="M732.5,160.5c0,0.8-0.2,1.5-0.5,2.2c-0.3,0.7-0.8,1.3-1.3,1.8c-0.5,0.5-1.2,1-1.9,1.3
		c-0.7,0.3-1.5,0.5-2.3,0.5s-1.5-0.2-2.2-0.5s-1.3-0.7-1.8-1.3c-0.5-0.5-1-1.2-1.3-1.8c-0.3-0.7-0.5-1.4-0.5-2.2s0.2-1.6,0.5-2.3
		c0.3-0.7,0.7-1.3,1.3-1.9c0.5-0.5,1.2-1,1.8-1.3s1.4-0.5,2.2-0.5s1.5,0.2,2.3,0.5c0.7,0.3,1.3,0.7,1.9,1.3c0.5,0.5,1,1.2,1.3,1.9
		C732.4,158.9,732.5,159.7,732.5,160.5z M730.7,175.1v46.6h-8.2v-46.6H730.7z"/>
	<path class="st1" d="M764,174.4c3.4,0,6.5,0.6,9.2,1.7c2.7,1.1,5.1,2.7,7,4.8c1.9,2.1,3.4,4.6,4.4,7.6c1,3,1.5,6.3,1.5,9.9
		c0,3.7-0.5,7-1.5,9.9c-1,2.9-2.5,5.5-4.4,7.5c-1.9,2.1-4.2,3.7-7,4.8c-2.7,1.1-5.8,1.7-9.2,1.7c-3.4,0-6.5-0.6-9.2-1.7
		c-2.7-1.1-5.1-2.7-7-4.8c-1.9-2.1-3.4-4.6-4.5-7.5s-1.6-6.3-1.6-9.9c0-3.7,0.5-7,1.6-9.9c1-3,2.5-5.5,4.5-7.6
		c1.9-2.1,4.3-3.7,7-4.8C757.5,174.9,760.6,174.4,764,174.4z M764,216c4.6,0,8-1.5,10.3-4.6c2.3-3.1,3.4-7.4,3.4-12.9
		c0-5.6-1.1-9.9-3.4-13c-2.3-3.1-5.7-4.6-10.3-4.6c-2.3,0-4.4,0.4-6.1,1.2c-1.7,0.8-3.2,1.9-4.3,3.5s-2,3.4-2.6,5.5
		s-0.9,4.7-0.9,7.4s0.3,5.2,0.9,7.4s1.4,4,2.6,5.5c1.2,1.5,2.6,2.6,4.3,3.4C759.7,215.6,761.7,216,764,216z"/>
	<path class="st1" d="M796.3,221.7v-46.6h4.9c1.2,0,1.9,0.6,2.2,1.7l0.6,5.1c2-2.2,4.3-4,6.8-5.4c2.5-1.4,5.4-2.1,8.7-2.1
		c2.5,0,4.8,0.4,6.7,1.3s3.6,2,4.9,3.6c1.3,1.5,2.3,3.4,3,5.6c0.7,2.2,1,4.6,1,7.2v29.7h-8.2V192c0-3.5-0.8-6.3-2.4-8.2
		c-1.6-1.9-4.1-2.9-7.4-2.9c-2.4,0-4.7,0.6-6.8,1.7c-2.1,1.2-4,2.7-5.8,4.7v34.3H796.3z"/>
	<path class="st1" d="M866.3,174.4c3.4,0,6.5,0.6,9.2,1.7c2.7,1.1,5.1,2.7,7,4.8c1.9,2.1,3.4,4.6,4.4,7.6c1,3,1.5,6.3,1.5,9.9
		c0,3.7-0.5,7-1.5,9.9c-1,2.9-2.5,5.5-4.4,7.5c-1.9,2.1-4.2,3.7-7,4.8c-2.7,1.1-5.8,1.7-9.2,1.7c-3.4,0-6.5-0.6-9.2-1.7
		c-2.7-1.1-5.1-2.7-7-4.8c-1.9-2.1-3.4-4.6-4.5-7.5s-1.6-6.3-1.6-9.9c0-3.7,0.5-7,1.6-9.9c1-3,2.5-5.5,4.5-7.6
		c1.9-2.1,4.3-3.7,7-4.8C859.9,174.9,862.9,174.4,866.3,174.4z M866.3,216c4.6,0,8-1.5,10.3-4.6c2.3-3.1,3.4-7.4,3.4-12.9
		c0-5.6-1.1-9.9-3.4-13c-2.3-3.1-5.7-4.6-10.3-4.6c-2.3,0-4.4,0.4-6.1,1.2c-1.7,0.8-3.2,1.9-4.3,3.5s-2,3.4-2.6,5.5
		s-0.9,4.7-0.9,7.4s0.3,5.2,0.9,7.4s1.4,4,2.6,5.5c1.2,1.5,2.6,2.6,4.3,3.4C862,215.6,864,216,866.3,216z"/>
	<path class="st1" d="M898.6,221.7v-46.6h4.9c1.2,0,1.9,0.6,2.2,1.7l0.6,5.1c2-2.2,4.3-4,6.8-5.4c2.5-1.4,5.4-2.1,8.7-2.1
		c2.5,0,4.8,0.4,6.7,1.3c1.9,0.8,3.6,2,4.9,3.6s2.3,3.4,3,5.6c0.7,2.2,1,4.6,1,7.2v29.7h-8.2V192c0-3.5-0.8-6.3-2.4-8.2
		c-1.6-1.9-4.1-2.9-7.4-2.9c-2.4,0-4.7,0.6-6.8,1.7s-4,2.7-5.8,4.7v34.3H898.6z"/>
	<path class="st1" d="M968.3,174.4c2.8,0,5.4,0.5,7.7,1.4c2.4,0.9,4.4,2.3,6.1,4c1.7,1.8,3.1,3.9,4,6.5s1.4,5.5,1.4,8.9
		c0,1.3-0.1,2.1-0.4,2.6c-0.3,0.4-0.8,0.6-1.6,0.6h-31c0.1,2.9,0.5,5.5,1.2,7.7c0.7,2.2,1.7,4,3,5.5s2.8,2.5,4.6,3.3
		c1.8,0.7,3.8,1.1,6,1.1c2.1,0,3.8-0.2,5.3-0.7c1.5-0.5,2.8-1,3.8-1.5c1.1-0.6,2-1.1,2.7-1.5c0.7-0.5,1.3-0.7,1.9-0.7
		c0.7,0,1.2,0.3,1.6,0.8l2.3,3c-1,1.2-2.2,2.3-3.6,3.2c-1.4,0.9-2.9,1.6-4.5,2.2c-1.6,0.6-3.3,1-5,1.3s-3.4,0.4-5.1,0.4
		c-3.2,0-6.2-0.5-8.9-1.6s-5.1-2.7-7-4.8c-2-2.1-3.5-4.7-4.6-7.8s-1.7-6.7-1.7-10.7c0-3.3,0.5-6.3,1.5-9.1c1-2.8,2.4-5.3,4.3-7.3
		c1.9-2.1,4.2-3.7,6.9-4.9S964.9,174.4,968.3,174.4z M968.4,180.4c-4,0-7.1,1.1-9.3,3.4c-2.3,2.3-3.7,5.5-4.2,9.5h25.4
		c0-1.9-0.3-3.6-0.8-5.2c-0.5-1.6-1.3-2.9-2.3-4.1c-1-1.2-2.2-2-3.7-2.7C972,180.7,970.3,180.4,968.4,180.4z"/>
</g>
</svg>
