<?xml version="1.0" encoding="utf-8"?>
<!-- Generator: Adobe Illustrator 24.1.0, SVG Export Plug-In . SVG Version: 6.00 Build 0)  -->
<svg version="1.1" id="Layer_1" xmlns="http://www.w3.org/2000/svg" xmlns:xlink="http://www.w3.org/1999/xlink" x="0px" y="0px"
	 viewBox="0 0 1024 240" style="enable-background:new 0 0 1024 240;" xml:space="preserve">
<style type="text/css">
	.st0{fill:#FFFFFF;}
	.st1{fill:#79B522;}
	.st2{enable-background:new    ;}
</style>
<path class="st0" d="M1001.4,43.7h-3.6v-2.1h9.5v2.1h-3.6V55h-2.1L1001.4,43.7L1001.4,43.7z M1009.1,41.7h3.3l3.1,9.5l0,0l3.1-9.5
	h3.3v13.4h-2.1V44.3l0,0l-3.6,10.8h-1.5l-3.6-10.8l0,0v10.8h-2.1L1009.1,41.7L1009.1,41.7z M935.2,41.2c-5.7,0-10,3.9-10.8,9.3
	c-7.5-7.5-18-11.6-30.1-11.6c-30.1,0-53.6,23.7-53.6,53.8c0,0.8,0,1.3,0,2.1c11.3,4.4,19.3,15.5,19.3,28.3c0,3.6-0.5,7-1.8,10
	c9.5,8.2,21.9,13.1,35.8,13.1c12.1,0,23.4-5.9,30.1-12.4c0.5,5.9,4.9,10,10.8,10c7,0,11.1-4.1,11.1-11.1V52.2
	C946.5,45.5,942.1,41.2,935.2,41.2 M894.2,122.6c-16.5,0-29.9-13.4-29.9-29.9s13.4-29.9,29.9-29.9s29.9,13.4,29.9,29.9
	C924.1,109.2,910.4,122.6,894.2,122.6 M738.9,41.2c-5.7,0-10,3.9-10.8,9.3c-7.5-7.5-18-11.6-30.1-11.6c-30.1,0-53.6,23.7-53.6,53.8
	c0,30.4,23.2,53.6,53.6,53.6c12.1,0,23.4-5.9,30.1-12.4c0.5,5.9,4.9,10,10.8,10c7,0,11.1-4.1,11.1-11.1V52.2
	C749.9,45.5,745.6,41.2,738.9,41.2 M696.9,122.6c-16.5,0-29.9-13.4-29.9-29.9s13.4-29.9,29.9-29.9s29.9,13.4,29.9,29.9
	C727,109.2,713.3,122.6,696.9,122.6 M359.9,1.5c-7,0-11.1,4.4-11.1,11.1v38.1c-7-7.5-17.5-11.9-29.9-11.9
	c-28.6,0-53.6,25.2-53.6,53.8s25,53.6,53.6,53.6c12.6,0,24.5-6.4,30.9-12.9c1.3,7,5.4,10.8,12.1,10.8c5.4,0,9.3-4.1,9.3-10V12.3
	C370.9,5.9,366.3,1.5,359.9,1.5 M318.6,122.6c-16.5,0-29.9-13.4-29.9-29.9s13.4-29.9,29.9-29.9s29.9,13.4,29.9,29.9
	C348.3,109.2,335.1,122.6,318.6,122.6 M522.2,41.2c-7.2,0-10.8,3.3-11.9,10.8c-6.7-6.7-18.3-13.1-30.9-13.1
	c-28.6,0-53.6,25-53.6,53.8c0,28.6,25,53.8,53.6,53.8c12.9,0,23.2-4.1,29.6-11.3c-0.8,21.6-11.1,32.2-31.9,32.2
	c-7,0-11.1,4.4-11.1,11.1c0,7.2,4.4,11.1,11.9,11.1c39.7,0,53.6-28.9,53.6-53.6V51C532,45.3,527.8,41.2,522.2,41.2 M479.2,122.6
	c-16.5,0-29.9-13.4-29.9-29.9s13.4-29.9,29.9-29.9s29.9,13.4,29.9,29.9C509,109.2,495.6,122.6,479.2,122.6 M976.9,40.4
	c-6.2,0-11.1,4.6-11.1,11.1l-0.3,81.9c0,6.7,4.6,11.1,11.1,11.1c7,0,11.1-4.1,11.1-11.1l0.3-81.9C988,44.8,983.6,40.4,976.9,40.4
	 M399.8,39.9c-6.2,0-11.1,4.6-11.1,11.1v81.9c0,6.7,4.6,11.1,11.1,11.1c7,0,11.1-4.1,11.1-11.1V51C410.9,44.5,406.2,39.9,399.8,39.9
	 M562.6,40.4c-6.2,0-11.1,4.6-11.1,11.1v81.7c0,6.7,4.6,11.1,11.1,11.1c7,0,11.1-4.1,11.1-11.1V51.5
	C573.4,44.8,569.1,40.4,562.6,40.4 M631.2,122.6c-7.2-0.5-11.9-2.6-11.9-11.1V64.3h5.7c6.2,0,11.1-4.6,11.1-11.1
	c0-7-4.4-11.1-11.1-11.1h-5.7V12.6c0-7-4.1-11.1-11.1-11.1c-6.4,0-11.1,4.6-11.1,11.1v29.9c-5.4,0.8-8.5,4.9-8.5,10.8
	c0,5.7,3.6,10,8.5,10.8v47.4c0,20.6,11.1,32.5,30.4,32.5c8,0,12.9-3.9,12.9-10.3C640.4,127.2,636.8,123.1,631.2,122.6 M782.1,1.5
	c-6.4,0-11.1,4.6-11.1,11.1v120.6c0,6.7,4.6,11.1,11.1,11.1c7,0,11.1-4.1,11.1-11.1V12.6C793.5,5.6,789.1,1.5,782.1,1.5
	 M847.1,111.5c-0.3-0.5-0.8-1-1.3-1.5c-1-1.3-2.1-2.3-3.6-3.3c-0.5-0.3-0.8-0.8-1.3-0.8c-2.3-1.5-4.9-2.6-8-3.1
	c-1.3-0.3-2.3-0.3-3.6-0.3c-3.6,0-7,0.8-10,2.6c-0.5,0.3-1.3,0.8-1.8,1c-5.7,3.6-9.3,10-9.3,17.3c0,7.2,3.6,13.7,9.3,17.3
	c0.5,0.3,1,0.8,1.8,1c3.1,1.5,6.2,2.6,10,2.6c5.2,0,9.5-1.8,13.4-4.6c1-0.8,1.8-1.8,2.8-2.8c0.3-0.5,0.8-1,1.3-1.5
	c0.8-1,1.3-2.3,1.8-3.6c1-2.6,1.5-5.2,1.5-8.2c0-3.1-0.5-5.7-1.5-8.2C848.4,113.8,847.6,112.5,847.1,111.5"/>
<path class="st1" d="M716.7,88.1c0.3,1.3,0.5,3.1,0.5,4.6c0,0.8,0,1.8-0.3,2.6s-0.3,1.8-0.5,2.6c-0.3,1.5-1,3.1-1.8,4.6
	c-3.6,6.2-10,10.6-17.8,10.6c-11.1,0-20.4-9-20.4-20.6c0-1.3,0.3-2.8,0.3-4.1c1.3-6.7,5.9-12.1,12.1-14.7c2.6-1,5.2-1.5,8-1.5
	s5.4,0.5,8,1.5c4.6,1.8,8.2,5.4,10.3,10C715.9,85,716.4,86.8,716.7,88.1 M318.6,72.3c-11.1,0-20.4,9-20.4,20.6s9,20.6,20.4,20.6
	c11.3,0,20.4-9,20.4-20.6S329.7,72.3,318.6,72.3 M901.9,73.9c-0.5-0.3-1.3-0.5-1.8-0.8c-0.8-0.3-1.8-0.5-3.1-0.8s-2.1-0.3-3.1-0.3
	c-2.1,0-4.1,0.3-6.2,0.8c-0.8,0.3-1.3,0.3-1.8,0.8c-6.2,2.6-10.6,8-12.1,14.7c-0.3,1.3-0.3,2.6-0.3,4.1c0,5.7,2.3,10.6,5.9,14.4
	c0.8,0.8,1.8,1.8,3.1,2.6c1.5,1,3.6,1.8,5.2,2.6c1.8,0.5,4.1,0.8,6.2,0.8c1,0,2.1,0,3.1-0.3s1.8-0.3,3.1-0.8
	c1.8-0.5,3.6-1.3,5.2-2.6c1-0.8,2.1-1.5,3.1-2.6c3.6-3.6,5.9-8.8,5.9-14.4c0-1.3-0.3-2.8-0.3-4.1C912.8,81.9,908.1,76.5,901.9,73.9
	 M487.1,73.9c-2.6-1-5.2-1.5-8-1.5s-5.4,0.5-8,1.5c-6.2,2.6-10.6,8-12.1,14.7c-0.3,1.3-0.3,2.6-0.3,4.1c0,11.1,9,20.6,20.4,20.6
	c11.1,0,20.4-9,20.4-20.6c0-1.3-0.3-2.8-0.3-4.1C497.7,81.9,493.1,76.5,487.1,73.9"/>
<g class="st2">
	<path class="st0" d="M708.4,221.5v-46.6h4.7c0.9,0,1.5,0.2,1.8,0.5c0.3,0.3,0.6,0.9,0.7,1.7l0.6,7.3c1.6-3.2,3.6-5.8,5.9-7.6
		c2.3-1.8,5.1-2.7,8.3-2.7c1.3,0,2.5,0.1,3.5,0.4c1,0.3,2,0.7,2.9,1.2l-1.1,6.1c-0.2,0.8-0.7,1.2-1.4,1.2c-0.4,0-1.1-0.1-2-0.4
		s-2.1-0.4-3.7-0.4c-2.9,0-5.2,0.8-7.2,2.5c-1.9,1.7-3.5,4.1-4.8,7.2v29.7H708.4z"/>
	<path class="st0" d="M764,174.1c2.8,0,5.4,0.5,7.7,1.4c2.4,0.9,4.4,2.3,6.1,4c1.7,1.8,3.1,3.9,4,6.5c1,2.6,1.4,5.5,1.4,8.9
		c0,1.3-0.1,2.1-0.4,2.6c-0.3,0.4-0.8,0.6-1.6,0.6h-31c0.1,2.9,0.5,5.5,1.2,7.7c0.7,2.2,1.7,4,3,5.5c1.3,1.5,2.8,2.5,4.6,3.3
		s3.8,1.1,6,1.1c2.1,0,3.8-0.2,5.3-0.7s2.8-1,3.8-1.5c1.1-0.6,2-1.1,2.7-1.5s1.3-0.7,1.9-0.7c0.7,0,1.2,0.3,1.6,0.8l2.3,3
		c-1,1.2-2.2,2.3-3.6,3.2c-1.4,0.9-2.9,1.6-4.5,2.2c-1.6,0.6-3.3,1-5,1.3c-1.7,0.3-3.4,0.4-5.1,0.4c-3.2,0-6.2-0.5-8.9-1.6
		c-2.7-1.1-5.1-2.7-7-4.8c-2-2.1-3.5-4.7-4.6-7.8c-1.1-3.1-1.7-6.7-1.7-10.7c0-3.3,0.5-6.3,1.5-9.1c1-2.8,2.4-5.3,4.3-7.3
		c1.9-2.1,4.2-3.7,6.9-4.9C757.5,174.7,760.6,174.1,764,174.1z M764.1,180.2c-4,0-7.1,1.1-9.3,3.4c-2.3,2.3-3.7,5.5-4.2,9.5h25.3
		c0-1.9-0.3-3.6-0.8-5.2c-0.5-1.6-1.3-2.9-2.3-4.1c-1-1.1-2.2-2-3.7-2.7C767.7,180.5,766,180.2,764.1,180.2z"/>
	<path class="st0" d="M802.8,153.7v67.8h-8.2v-67.8H802.8z"/>
	<path class="st0" d="M835.7,174.1c2.8,0,5.4,0.5,7.7,1.4s4.4,2.3,6.1,4s3.1,3.9,4,6.5s1.4,5.5,1.4,8.9c0,1.3-0.1,2.1-0.4,2.6
		c-0.3,0.4-0.8,0.6-1.6,0.6h-31c0.1,2.9,0.5,5.5,1.2,7.7c0.7,2.2,1.7,4,3,5.5c1.3,1.5,2.8,2.5,4.6,3.3c1.8,0.7,3.8,1.1,6,1.1
		c2.1,0,3.8-0.2,5.3-0.7c1.5-0.5,2.8-1,3.8-1.5c1.1-0.6,2-1.1,2.7-1.5c0.7-0.5,1.3-0.7,1.9-0.7c0.7,0,1.2,0.3,1.6,0.8l2.3,3
		c-1,1.2-2.2,2.3-3.6,3.2c-1.4,0.9-2.9,1.6-4.5,2.2c-1.6,0.6-3.3,1-5,1.3s-3.4,0.4-5.1,0.4c-3.2,0-6.2-0.5-8.9-1.6
		c-2.7-1.1-5.1-2.7-7-4.8c-2-2.1-3.5-4.7-4.6-7.8c-1.1-3.1-1.7-6.7-1.7-10.7c0-3.3,0.5-6.3,1.5-9.1c1-2.8,2.4-5.3,4.3-7.3
		c1.9-2.1,4.2-3.7,6.9-4.9C829.3,174.7,832.3,174.1,835.7,174.1z M835.9,180.2c-4,0-7.1,1.1-9.3,3.4c-2.3,2.3-3.7,5.5-4.2,9.5h25.3
		c0-1.9-0.3-3.6-0.8-5.2c-0.5-1.6-1.3-2.9-2.3-4.1c-1-1.1-2.2-2-3.7-2.7C839.4,180.5,837.8,180.2,835.9,180.2z"/>
	<path class="st0" d="M899.7,221.5h-3.6c-0.8,0-1.4-0.1-1.9-0.4c-0.5-0.2-0.8-0.8-1-1.6l-0.9-4.3c-1.2,1.1-2.4,2.1-3.6,3
		c-1.2,0.9-2.4,1.6-3.7,2.2s-2.7,1.1-4.1,1.4c-1.5,0.3-3.1,0.5-4.9,0.5c-1.8,0-3.5-0.3-5.1-0.8c-1.6-0.5-3-1.3-4.1-2.3
		c-1.2-1-2.1-2.3-2.8-3.9c-0.7-1.6-1-3.4-1-5.5c0-1.8,0.5-3.6,1.5-5.3s2.6-3.2,4.9-4.5c2.3-1.3,5.2-2.4,8.9-3.3
		c3.6-0.8,8.1-1.3,13.4-1.3v-3.7c0-3.6-0.8-6.4-2.3-8.3c-1.5-1.9-3.8-2.8-6.9-2.8c-2,0-3.7,0.3-5,0.8c-1.4,0.5-2.5,1.1-3.5,1.7
		c-1,0.6-1.9,1.2-2.6,1.7c-0.7,0.5-1.4,0.8-2.1,0.8c-0.6,0-1-0.1-1.4-0.4c-0.4-0.3-0.7-0.7-1-1.1l-1.5-2.6c2.6-2.5,5.4-4.3,8.3-5.6
		c3-1.2,6.3-1.8,9.9-1.8c2.6,0,4.9,0.4,6.9,1.3s3.7,2.1,5.1,3.6c1.4,1.5,2.4,3.4,3.1,5.6c0.7,2.2,1.1,4.6,1.1,7.2V221.5z
		 M878.4,216.4c1.4,0,2.8-0.1,4-0.4c1.2-0.3,2.3-0.7,3.4-1.2c1.1-0.5,2.1-1.2,3-2c1-0.8,1.9-1.6,2.8-2.6v-9.6c-3.8,0-7,0.2-9.6,0.7
		c-2.6,0.5-4.8,1.1-6.4,1.9s-2.9,1.7-3.6,2.7c-0.8,1-1.1,2.2-1.1,3.5c0,1.2,0.2,2.3,0.6,3.2c0.4,0.9,0.9,1.6,1.6,2.2
		c0.7,0.6,1.5,1,2.4,1.2C876.4,216.3,877.4,216.4,878.4,216.4z"/>
	<path class="st0" d="M938.8,182.5c-0.4,0.7-0.9,1-1.7,1c-0.5,0-1-0.2-1.6-0.5c-0.6-0.3-1.3-0.7-2.1-1.1c-0.8-0.4-1.8-0.8-3-1.1
		c-1.2-0.4-2.5-0.5-4.1-0.5c-1.4,0-2.6,0.2-3.7,0.5c-1.1,0.4-2,0.8-2.8,1.4c-0.8,0.6-1.4,1.3-1.8,2.1s-0.6,1.7-0.6,2.6
		c0,1.2,0.3,2.2,1,3c0.7,0.8,1.6,1.5,2.7,2.1c1.1,0.6,2.4,1.1,3.9,1.5c1.4,0.4,2.9,0.9,4.4,1.4c1.5,0.5,3,1.1,4.4,1.7
		c1.4,0.6,2.7,1.4,3.9,2.3c1.1,0.9,2,2,2.7,3.4c0.7,1.3,1,2.9,1,4.8c0,2.1-0.4,4.1-1.1,6c-0.8,1.8-1.9,3.4-3.4,4.7
		c-1.5,1.3-3.3,2.4-5.5,3.2s-4.7,1.2-7.5,1.2c-3.3,0-6.2-0.5-8.8-1.6c-2.6-1.1-4.9-2.4-6.7-4.1l1.9-3.1c0.2-0.4,0.5-0.7,0.9-0.9
		c0.3-0.2,0.8-0.3,1.3-0.3s1.1,0.2,1.7,0.6c0.6,0.4,1.4,0.9,2.2,1.4s1.9,1,3.2,1.4s2.8,0.6,4.7,0.6c1.6,0,3-0.2,4.2-0.6
		c1.2-0.4,2.2-1,3-1.7c0.8-0.7,1.4-1.5,1.8-2.4c0.4-0.9,0.6-1.9,0.6-2.9c0-1.3-0.3-2.4-1-3.2c-0.7-0.8-1.6-1.6-2.7-2.2
		s-2.4-1.1-3.9-1.6c-1.5-0.4-2.9-0.9-4.5-1.4c-1.5-0.5-3-1.1-4.5-1.7c-1.5-0.6-2.8-1.4-3.9-2.4c-1.1-1-2-2.1-2.7-3.5
		c-0.7-1.4-1-3.1-1-5.1c0-1.8,0.4-3.5,1.1-5.1s1.8-3.1,3.2-4.3c1.4-1.2,3.1-2.2,5.2-3c2.1-0.7,4.4-1.1,7-1.1c3.1,0,5.8,0.5,8.3,1.4
		c2.4,1,4.5,2.3,6.3,4L938.8,182.5z"/>
	<path class="st0" d="M970.5,174.1c2.8,0,5.4,0.5,7.7,1.4c2.4,0.9,4.4,2.3,6.1,4c1.7,1.8,3.1,3.9,4,6.5c1,2.6,1.4,5.5,1.4,8.9
		c0,1.3-0.1,2.1-0.4,2.6c-0.3,0.4-0.8,0.6-1.6,0.6h-31c0.1,2.9,0.5,5.5,1.2,7.7c0.7,2.2,1.7,4,3,5.5c1.3,1.5,2.8,2.5,4.6,3.3
		s3.8,1.1,6,1.1c2.1,0,3.8-0.2,5.3-0.7s2.8-1,3.8-1.5c1.1-0.6,2-1.1,2.7-1.5s1.3-0.7,1.9-0.7c0.7,0,1.2,0.3,1.6,0.8l2.3,3
		c-1,1.2-2.2,2.3-3.6,3.2c-1.4,0.9-2.9,1.6-4.5,2.2c-1.6,0.6-3.3,1-5,1.3c-1.7,0.3-3.4,0.4-5.1,0.4c-3.2,0-6.2-0.5-8.9-1.6
		c-2.7-1.1-5.1-2.7-7-4.8c-2-2.1-3.5-4.7-4.6-7.8c-1.1-3.1-1.7-6.7-1.7-10.7c0-3.3,0.5-6.3,1.5-9.1c1-2.8,2.4-5.3,4.3-7.3
		c1.9-2.1,4.2-3.7,6.9-4.9C964.1,174.7,967.1,174.1,970.5,174.1z M970.7,180.2c-4,0-7.1,1.1-9.3,3.4c-2.3,2.3-3.7,5.5-4.2,9.5h25.3
		c0-1.9-0.3-3.6-0.8-5.2c-0.5-1.6-1.3-2.9-2.3-4.1c-1-1.1-2.2-2-3.7-2.7C974.2,180.5,972.5,180.2,970.7,180.2z"/>
</g>
<path class="st1" d="M120.5,1.5C55.1,1.5,2,54.6,2,120s53.1,118.5,118.5,118.5S239,185.4,239,120S186,1.5,120.5,1.5z M120.5,20.3
	c54.9,0,99.4,44.6,99.4,99.4c0,2.8-0.3,5.7-0.3,8.2H163V91.4c0-5.7-4.6-10.3-10.3-10.3h-24V62.3H165c5.7,0,10.3-4.6,10.3-10.3
	s-4.6-10.3-10.3-10.3h-36.3v-2.1c0-5.7-4.6-10.3-10.3-10.3s-10.3,4.6-10.3,10.3v2.1H74.4c-5.7,0-10.3,4.6-10.3,10.3
	s4.6,10.3,10.3,10.3h33.8v18.8H86.5c-5.7,0-10.3,4.6-10.3,10.3V128H21.3c-0.3-2.8-0.3-5.4-0.3-8.2C21.1,65.1,65.6,20.3,120.5,20.3z
	 M209.9,163.8L209.9,163.8H33.4c-0.8,0-1.3,0-2.1,0.3c-2.3-4.9-4.4-10-6.2-15.2H85c3.1,0,5.9-1.3,7.7-3.6c2.6-1.8,4.1-4.9,4.1-8.2
	v-35h45.6v35c0,3.1,1.5,5.9,3.6,7.7c1.8,2.3,4.9,3.9,8,3.9h61.8C214.3,154,212.2,159.2,209.9,163.8z M178.2,201.2
	c-0.5,0-1.3-0.3-1.8-0.3H64.3c-0.5,0-1,0-1.3,0.3c-6.7-4.6-12.6-10.3-18-16.5h151.2C190.9,190.9,184.9,196.3,178.2,201.2z"/>
</svg>
