<?xml version="1.0" encoding="utf-8"?>
<!-- Generator: Adobe Illustrator 24.1.0, SVG Export Plug-In . SVG Version: 6.00 Build 0)  -->
<svg version="1.1" id="Layer_1" xmlns="http://www.w3.org/2000/svg" xmlns:xlink="http://www.w3.org/1999/xlink" x="0px" y="0px"
	 viewBox="0 0 1024 240" style="enable-background:new 0 0 1024 240;" xml:space="preserve">
<style type="text/css">
	.st0{fill:#FFFFFF;}
	.st1{fill:#79B522;}
	.st2{enable-background:new    ;}
</style>
<g>
	<path class="st0" d="M1001.4,44.1h-3.6V42h9.5v2.1h-3.6v11.3h-2.1L1001.4,44.1L1001.4,44.1z M1009.1,42h3.3l3.1,9.5l0,0l3.1-9.5
		h3.3v13.4h-2.1V44.6l0,0l-3.6,10.8h-1.5l-3.6-10.8l0,0v10.8h-2.1L1009.1,42L1009.1,42z M935.3,41.2c-5.7,0-10,3.9-10.8,9.3
		c-7.5-7.5-18-11.6-30.1-11.6c-30.1,0-53.5,23.7-53.5,53.8c0,0.8,0,1.3,0,2.1c11.3,4.4,19.3,15.4,19.3,28.3c0,3.6-0.5,6.9-1.8,10
		c9.5,8.2,21.9,13.1,35.8,13.1c12.1,0,23.4-5.9,30.1-12.4c0.5,5.9,4.9,10,10.8,10c6.9,0,11.1-4.1,11.1-11.1V52.3
		C946.6,45.6,942.2,41.2,935.3,41.2 M894.3,122.6c-16.5,0-29.9-13.4-29.9-29.9s13.4-29.9,29.9-29.9s29.9,13.4,29.9,29.9
		C924.2,109.4,910.6,122.6,894.3,122.6 M739.1,41.2c-5.7,0-10,3.9-10.8,9.3c-7.5-7.5-18-11.6-30.1-11.6c-30.1,0-53.5,23.7-53.5,53.8
		c0,30.4,23.2,53.5,53.5,53.5c12.1,0,23.4-5.9,30.1-12.4c0.5,5.9,4.9,10,10.8,10c6.9,0,11.1-4.1,11.1-11.1V52.3
		C750.2,45.6,745.8,41.2,739.1,41.2 M697.2,122.6c-16.5,0-29.9-13.4-29.9-29.9s13.4-29.9,29.9-29.9s29.9,13.4,29.9,29.9
		C727.3,109.4,713.7,122.6,697.2,122.6 M360.5,1.6c-6.9,0-11.1,4.4-11.1,11.1v38.1c-6.9-7.5-17.5-11.8-29.9-11.8
		C290.9,39,266,64.2,266,92.8s25,53.5,53.5,53.5c12.6,0,24.5-6.4,30.9-12.9c1.3,6.9,5.4,10.8,12.1,10.8c5.4,0,9.3-4.1,9.3-10V12.4
		C371.6,6,367,1.6,360.5,1.6 M319.4,122.6c-16.5,0-29.9-13.4-29.9-29.9s13.4-29.9,29.9-29.9s29.9,13.4,29.9,29.9
		C348.9,109.4,335.8,122.6,319.4,122.6 M522.7,41.2c-7.2,0-10.8,3.3-11.8,10.8c-6.7-6.7-18.3-13.1-30.9-13.1
		c-28.6,0-53.5,25-53.5,53.8c0,28.6,25,53.8,53.5,53.8c12.9,0,23.2-4.1,29.6-11.3c-0.8,21.6-11.1,32.2-31.9,32.2
		c-6.9,0-11.1,4.4-11.1,11.1c0,7.2,4.4,11.1,11.8,11.1c39.6,0,53.5-28.8,53.5-53.5V51C532.5,45.6,528.3,41.2,522.7,41.2
		 M479.7,122.6c-16.5,0-29.9-13.4-29.9-29.9s13.4-29.9,29.9-29.9s29.9,13.4,29.9,29.9C509.6,109.4,496.2,122.6,479.7,122.6
		 M977,40.7c-6.2,0-11.1,4.6-11.1,11.1l-0.3,81.8c0,6.7,4.6,11.1,11.1,11.1c6.9,0,11.1-4.1,11.1-11.1l0.3-81.8
		C988,45.1,983.7,40.7,977,40.7 M400.4,40.2c-6.2,0-11.1,4.6-11.1,11.1v81.8c0,6.7,4.6,11.1,11.1,11.1c6.9,0,11.1-4.1,11.1-11.1
		V51.3C411.5,44.6,406.9,40.2,400.4,40.2 M563.1,40.5c-6.2,0-11.1,4.6-11.1,11.1v81.6c0,6.7,4.6,11.1,11.1,11.1
		c6.9,0,11.1-4.1,11.1-11.1V51.5C573.9,44.8,569.5,40.5,563.1,40.5 M631.6,122.6c-7.2-0.5-11.8-2.6-11.8-11.1V64.4h5.7
		c6.2,0,11.1-4.6,11.1-11.1c0-6.9-4.4-11.1-11.1-11.1h-5.7V12.7c0-6.9-4.1-11.1-11.1-11.1c-6.4,0-11.1,4.6-11.1,11.1v29.9
		c-5.4,0.8-8.5,4.9-8.5,10.8c0,5.7,3.6,10,8.5,10.8v47.4c0,20.6,11.1,32.4,30.4,32.4c8,0,12.9-3.9,12.9-10.3
		C640.8,127.2,637.2,123.1,631.6,122.6 M782.4,1.6c-6.4,0-11.1,4.6-11.1,11.1v120.5c0,6.7,4.6,11.1,11.1,11.1
		c6.9,0,11.1-4.1,11.1-11.1V12.7C793.7,6,789.3,1.6,782.4,1.6 M847.2,111.8c-0.3-0.5-0.8-1-1.3-1.5c-1-1.3-2.1-2.3-3.6-3.3
		c-0.5-0.3-0.8-0.8-1.3-0.8c-2.3-1.5-4.9-2.6-8-3.1c-1.3-0.3-2.3-0.3-3.6-0.3c-3.6,0-6.9,0.8-10,2.6c-0.5,0.3-1.3,0.8-1.8,1
		c-5.7,3.6-9.3,10-9.3,17.2s3.6,13.6,9.3,17.2c0.5,0.3,1,0.8,1.8,1c3.1,1.5,6.2,2.6,10,2.6c5.1,0,9.5-1.8,13.4-4.6
		c1-0.8,1.8-1.8,2.8-2.8c0.3-0.5,0.8-1,1.3-1.5c0.8-1,1.3-2.3,1.8-3.6c1-2.6,1.5-5.1,1.5-8.2s-0.5-5.7-1.5-8.2
		C848.5,113.8,847.8,112.8,847.2,111.8"/>
	<path class="st1" d="M717,88.3c0.3,1.3,0.5,3.1,0.5,4.6c0,0.8,0,1.8-0.3,2.6s-0.3,1.8-0.5,2.6c-0.3,1.5-1,3.1-1.8,4.6
		c-3.6,6.2-10,10.6-17.8,10.6c-11.1,0-20.3-9-20.3-20.6c0-1.3,0.3-2.8,0.3-4.1c1.3-6.7,5.9-12.1,12.1-14.7c2.6-1,5.1-1.5,8-1.5
		c2.8,0,5.4,0.5,8,1.5c4.6,1.8,8.2,5.4,10.3,10C716.2,85.3,716.7,86.8,717,88.3 M319.4,72.4c-11.1,0-20.3,9-20.3,20.6
		s9,20.6,20.3,20.6s20.3-9,20.3-20.6S330.4,72.4,319.4,72.4 M902.1,74.2c-0.5-0.3-1.3-0.5-1.8-0.8c-0.8-0.3-1.8-0.5-3.1-0.8
		c-1-0.3-2.1-0.3-3.1-0.3c-2.1,0-4.1,0.3-6.2,0.8c-0.8,0.3-1.3,0.3-1.8,0.8c-6.2,2.6-10.6,8-12.1,14.7c-0.3,1.3-0.3,2.6-0.3,4.1
		c0,5.7,2.3,10.6,5.9,14.4c0.8,0.8,1.8,1.8,3.1,2.6c1.5,1,3.6,1.8,5.1,2.6c1.8,0.5,4.1,0.8,6.2,0.8c1,0,2.1,0,3.1-0.3
		s1.8-0.3,3.1-0.8c1.8-0.5,3.6-1.3,5.1-2.6c1-0.8,2.1-1.5,3.1-2.6c3.6-3.6,5.9-8.8,5.9-14.4c0-1.3-0.3-2.8-0.3-4.1
		C912.9,82.2,908.2,76.8,902.1,74.2 M487.7,74.2c-2.6-1-5.1-1.5-8-1.5s-5.4,0.5-8,1.5c-6.2,2.6-10.6,8-12.1,14.7
		c-0.3,1.3-0.3,2.6-0.3,4.1c0,11.1,9,20.6,20.3,20.6c11.1,0,20.3-9,20.3-20.6c0-1.3-0.3-2.8-0.3-4.1
		C498.2,82.2,493.6,76.8,487.7,74.2"/>
	<g class="st2">
		<path class="st0" d="M598.3,183.2c-0.2,0.3-0.5,0.6-0.7,0.8c-0.2,0.2-0.6,0.3-1.1,0.3c-0.5,0-1-0.2-1.5-0.6
			c-0.5-0.4-1.2-0.8-2-1.3c-0.8-0.5-1.8-0.9-3-1.3c-1.2-0.4-2.6-0.6-4.3-0.6c-2.3,0-4.3,0.4-6,1.2c-1.7,0.8-3.2,2-4.4,3.5
			s-2.1,3.4-2.7,5.6c-0.6,2.2-0.9,4.6-0.9,7.3c0,2.8,0.3,5.3,1,7.5s1.5,4,2.7,5.5s2.6,2.6,4.3,3.4c1.7,0.8,3.5,1.2,5.6,1.2
			c2,0,3.6-0.2,4.9-0.7c1.3-0.5,2.4-1,3.2-1.6c0.9-0.6,1.6-1.1,2.1-1.6c0.6-0.5,1.1-0.7,1.7-0.7c0.7,0,1.2,0.3,1.6,0.8l2.3,3
			c-2,2.5-4.5,4.3-7.6,5.4c-3,1.1-6.2,1.7-9.6,1.7c-2.9,0-5.6-0.5-8.1-1.6s-4.7-2.6-6.5-4.7c-1.8-2-3.3-4.5-4.3-7.5
			c-1.1-3-1.6-6.4-1.6-10.2c0-3.5,0.5-6.7,1.4-9.6c1-2.9,2.4-5.5,4.2-7.6c1.9-2.1,4.1-3.8,6.9-5c2.7-1.2,5.9-1.8,9.4-1.8
			c3.2,0,6.1,0.5,8.6,1.6c2.5,1.1,4.7,2.6,6.7,4.5L598.3,183.2z"/>
		<path class="st0" d="M628.3,174.2c3.4,0,6.5,0.6,9.2,1.7c2.7,1.1,5.1,2.7,7,4.8c1.9,2.1,3.4,4.6,4.4,7.6c1,3,1.5,6.3,1.5,9.9
			c0,3.7-0.5,7-1.5,9.9c-1,2.9-2.5,5.5-4.4,7.5s-4.2,3.7-7,4.8c-2.7,1.1-5.8,1.7-9.2,1.7c-3.4,0-6.5-0.6-9.2-1.7
			c-2.7-1.1-5.1-2.7-7-4.8c-1.9-2.1-3.4-4.6-4.5-7.5c-1-2.9-1.6-6.2-1.6-9.9c0-3.6,0.5-6.9,1.6-9.9c1-3,2.5-5.5,4.5-7.6
			c1.9-2.1,4.3-3.7,7-4.8C621.8,174.8,624.9,174.2,628.3,174.2z M628.3,215.8c4.6,0,8-1.5,10.3-4.6c2.3-3.1,3.4-7.4,3.4-12.9
			c0-5.5-1.1-9.9-3.4-13c-2.3-3.1-5.7-4.6-10.3-4.6c-2.3,0-4.4,0.4-6.1,1.2c-1.7,0.8-3.1,1.9-4.3,3.4c-1.1,1.5-2,3.3-2.6,5.5
			c-0.6,2.2-0.9,4.7-0.9,7.4c0,2.8,0.3,5.2,0.9,7.4c0.6,2.2,1.4,4,2.6,5.5c1.1,1.5,2.6,2.6,4.3,3.4
			C623.9,215.4,625.9,215.8,628.3,215.8z"/>
		<path class="st0" d="M660.5,221.5V175h4.9c1.2,0,1.9,0.6,2.2,1.7l0.6,5.1c2-2.2,4.3-4,6.8-5.4c2.5-1.4,5.4-2.1,8.7-2.1
			c2.5,0,4.8,0.4,6.7,1.3c1.9,0.8,3.6,2,4.9,3.6c1.3,1.5,2.3,3.4,3,5.6c0.7,2.2,1,4.6,1,7.2v29.6h-8.2v-29.6c0-3.5-0.8-6.3-2.4-8.2
			c-1.6-1.9-4.1-2.9-7.4-2.9c-2.4,0-4.7,0.6-6.8,1.7c-2.1,1.2-4,2.7-5.8,4.7v34.3H660.5z"/>
		<path class="st0" d="M725.7,222.2c-3.7,0-6.5-1-8.5-3.1c-2-2.1-3-5-3-8.9v-28.5h-5.6c-0.5,0-0.9-0.1-1.2-0.4
			c-0.3-0.3-0.5-0.7-0.5-1.4v-3.3l7.6-1l1.9-14.4c0.1-0.5,0.3-0.8,0.6-1.1c0.3-0.3,0.8-0.4,1.3-0.4h4.1v16h13.3v5.9h-13.3v27.9
			c0,2,0.5,3.4,1.4,4.4c1,1,2.2,1.4,3.7,1.4c0.9,0,1.6-0.1,2.2-0.3c0.6-0.2,1.2-0.5,1.6-0.8c0.5-0.3,0.8-0.5,1.2-0.8
			c0.3-0.2,0.6-0.3,0.8-0.3c0.4,0,0.8,0.3,1.1,0.8l2.4,3.9c-1.4,1.3-3.1,2.4-5.1,3.1S727.9,222.2,725.7,222.2z"/>
		<path class="st0" d="M756.9,160.3c0,0.8-0.2,1.5-0.5,2.2c-0.3,0.7-0.8,1.3-1.3,1.8c-0.5,0.5-1.2,1-1.9,1.3
			c-0.7,0.3-1.5,0.5-2.3,0.5c-0.8,0-1.5-0.2-2.2-0.5c-0.7-0.3-1.3-0.7-1.8-1.3c-0.5-0.5-1-1.1-1.3-1.8s-0.5-1.4-0.5-2.2
			s0.2-1.6,0.5-2.3c0.3-0.7,0.7-1.3,1.3-1.9s1.1-1,1.8-1.3c0.7-0.3,1.4-0.5,2.2-0.5c0.8,0,1.5,0.2,2.3,0.5c0.7,0.3,1.3,0.7,1.9,1.3
			c0.5,0.5,1,1.2,1.3,1.9C756.7,158.8,756.9,159.5,756.9,160.3z M755,175v46.6h-8.2V175H755z"/>
		<path class="st0" d="M769.4,221.5V175h4.9c1.2,0,1.9,0.6,2.2,1.7l0.6,5.1c2-2.2,4.3-4,6.8-5.4c2.5-1.4,5.4-2.1,8.7-2.1
			c2.5,0,4.8,0.4,6.7,1.3c1.9,0.8,3.6,2,4.9,3.6c1.3,1.5,2.3,3.4,3,5.6c0.7,2.2,1,4.6,1,7.2v29.6H800v-29.6c0-3.5-0.8-6.3-2.4-8.2
			c-1.6-1.9-4.1-2.9-7.4-2.9c-2.4,0-4.7,0.6-6.8,1.7c-2.1,1.2-4,2.7-5.8,4.7v34.3H769.4z"/>
		<path class="st0" d="M827.6,175v29.7c0,3.5,0.8,6.2,2.4,8.2c1.6,1.9,4.1,2.9,7.4,2.9c2.4,0,4.6-0.6,6.8-1.7
			c2.1-1.1,4.1-2.7,5.8-4.7V175h8.2v46.6h-4.9c-1.2,0-1.9-0.6-2.2-1.7l-0.6-5c-2,2.2-4.3,4-6.8,5.4c-2.5,1.4-5.4,2-8.6,2
			c-2.5,0-4.8-0.4-6.7-1.3c-1.9-0.8-3.6-2-4.9-3.6c-1.3-1.5-2.3-3.4-3-5.6c-0.7-2.2-1-4.6-1-7.2V175H827.6z"/>
		<path class="st0" d="M878.7,175v29.7c0,3.5,0.8,6.2,2.4,8.2c1.6,1.9,4.1,2.9,7.4,2.9c2.4,0,4.6-0.6,6.8-1.7
			c2.1-1.1,4.1-2.7,5.8-4.7V175h8.2v46.6h-4.9c-1.2,0-1.9-0.6-2.2-1.7l-0.6-5c-2,2.2-4.3,4-6.8,5.4c-2.5,1.4-5.4,2-8.6,2
			c-2.5,0-4.8-0.4-6.7-1.3c-1.9-0.8-3.6-2-4.9-3.6c-1.3-1.5-2.3-3.4-3-5.6c-0.7-2.2-1-4.6-1-7.2V175H878.7z"/>
		<path class="st0" d="M922.8,221.5V175h4.9c1.2,0,1.9,0.6,2.2,1.7l0.6,4.8c1.7-2.1,3.6-3.8,5.8-5.2c2.1-1.3,4.6-2,7.4-2
			c3.2,0,5.7,0.9,7.7,2.6s3.3,4.1,4.2,7.1c0.6-1.7,1.5-3.1,2.6-4.4c1.1-1.2,2.2-2.2,3.6-3c1.3-0.8,2.7-1.4,4.2-1.7
			c1.5-0.4,3-0.6,4.5-0.6c2.5,0,4.6,0.4,6.5,1.2s3.5,1.9,4.9,3.4c1.3,1.5,2.4,3.3,3.1,5.5c0.7,2.2,1.1,4.7,1.1,7.5v29.6h-8.2v-29.6
			c0-3.6-0.8-6.4-2.4-8.3c-1.6-1.9-3.9-2.8-6.9-2.8c-1.3,0-2.6,0.2-3.8,0.7c-1.2,0.5-2.3,1.2-3.2,2.1c-0.9,0.9-1.6,2.1-2.2,3.5
			c-0.5,1.4-0.8,3-0.8,4.8v29.6h-8.2v-29.6c0-3.7-0.8-6.5-2.3-8.4c-1.5-1.8-3.7-2.8-6.6-2.8c-2,0-3.9,0.5-5.6,1.6
			c-1.7,1.1-3.3,2.6-4.8,4.4v34.7H922.8z"/>
	</g>
</g>
<g>
	<g>
		<path class="st1" d="M77.2,166.1c-11.1,0-22.1-4.1-30.6-12.6c-17-17-17-44.5,0-61.5s44.5-17,61.5,0c3.9,3.9,3.9,10,0,13.9
			s-10,3.9-13.9,0c-9.5-9.5-24.5-9.5-34,0s-9.5,24.5,0,34c9.3,9.3,23.9,9.5,33.5,0.3l37-47.2c0.3-0.3,0.5-0.5,0.8-0.8
			c17-17,44.5-17,61.5,0s17,44.5,0,61.5s-44.5,17-61.5,0c-3.9-3.9-3.9-10,0-13.9c3.9-3.9,10-3.9,13.9,0c4.6,4.6,10.6,7.2,17,7.2
			s12.4-2.6,17-7.2c9.5-9.5,9.5-24.5,0-34c-9.3-9.3-23.9-9.5-33.5-0.3l-37.1,47.1c-0.3,0.3-0.5,0.5-0.8,0.8
			C99.5,162,88.2,166.1,77.2,166.1z"/>
	</g>
	<path class="st1" d="M120.4,20.9c54.6,0,98.8,44.3,98.8,98.8s-44.3,98.8-98.8,98.8s-98.8-44.3-98.8-98.8S65.8,20.9,120.4,20.9
		 M120.4,1.6C55,1.6,2,54.6,2,120s53,118.4,118.4,118.4s118.4-53,118.4-118.4S185.8,1.6,120.4,1.6L120.4,1.6z"/>
</g>
</svg>
