<?xml version="1.0" encoding="utf-8"?>
<!-- Generator: Adobe Illustrator 24.1.0, SVG Export Plug-In . SVG Version: 6.00 Build 0)  -->
<svg version="1.1" id="Layer_1" xmlns="http://www.w3.org/2000/svg" xmlns:xlink="http://www.w3.org/1999/xlink" x="0px" y="0px"
	 viewBox="0 0 1024 240" style="enable-background:new 0 0 1024 240;" xml:space="preserve">
<style type="text/css">
	.st0{fill:#495260;}
	.st1{fill:#79B522;}
	.st2{enable-background:new    ;}
</style>
<g>
	<path class="st0" d="M1001.4,44.6h-3.6v-2.1h9.5v2.1h-3.6v11.3h-2.1L1001.4,44.6L1001.4,44.6z M1009.1,42.6h3.3l3.1,9.5l0,0
		l3.1-9.5h3.3V56h-2.1V45.1l0,0l-3.6,10.8h-1.5l-3.6-10.8l0,0v10.8h-2.1L1009.1,42.6L1009.1,42.6z M935.3,42c-5.7,0-10,3.9-10.8,9.3
		c-7.5-7.5-18-11.6-30.1-11.6c-30.1,0-53.5,23.7-53.5,53.8c0,0.8,0,1.3,0,2.1c11.3,4.4,19.3,15.4,19.3,28.3c0,3.6-0.5,6.9-1.8,10
		c9.5,8.2,21.9,13.1,35.8,13.1c12.1,0,23.4-5.9,30.1-12.4c0.5,5.9,4.9,10,10.8,10c6.9,0,11.1-4.1,11.1-11.1V53.1
		C946.3,46.4,942,42,935.3,42 M894.1,123.4c-16.5,0-29.8-13.4-29.8-29.8s13.4-29.8,29.8-29.8S924,77,924,93.5
		S910.6,123.4,894.1,123.4 M739.2,42c-5.7,0-10,3.9-10.8,9.3c-7.5-7.5-18-11.6-30.1-11.6c-30.1,0-53.5,23.7-53.5,53.8
		c0,30.4,23.2,53.5,53.5,53.5c12.1,0,23.4-5.9,30.1-12.4c0.5,5.9,4.9,10,10.8,10c6.9,0,11.1-4.1,11.1-11.1V53.1
		C750.3,46.4,745.9,42,739.2,42 M697.3,123.4c-16.5,0-29.8-13.4-29.8-29.8s13.4-29.8,29.8-29.8s29.8,13.4,29.8,29.8
		S713.7,123.4,697.3,123.4 M360.4,2.2c-6.9,0-11.1,4.4-11.1,11.1v38.1c-6.9-7.5-17.5-11.8-29.8-11.8C291,39.5,266,64.7,266,93.2
		s25,53.5,53.5,53.5c12.6,0,24.4-6.4,30.9-12.9c1.3,6.9,5.4,10.8,12.1,10.8c5.4,0,9.3-4.1,9.3-10V13C371.8,6.5,367.1,2.2,360.4,2.2
		 M319.5,123.4c-16.5,0-29.8-13.4-29.8-29.8s13.4-29.8,29.8-29.8c16.5,0,29.8,13.4,29.8,29.8C349.1,110,336,123.4,319.5,123.4
		 M522.8,42c-7.2,0-10.8,3.3-11.8,10.8c-6.7-6.7-18.3-13.1-30.9-13.1c-28.6,0-53.5,25-53.5,53.8c0,28.6,25,53.8,53.5,53.8
		c12.9,0,23.2-4.1,29.6-11.3c-0.8,21.6-11.1,32.2-31.9,32.2c-6.9,0-11.1,4.4-11.1,11.1c0,7.2,4.4,11.1,11.8,11.1
		c39.6,0,53.5-28.8,53.5-53.5V51.8C532.3,46.2,528.5,42,522.8,42 M479.8,123.4c-16.5,0-29.8-13.4-29.8-29.8s13.4-29.8,29.8-29.8
		c16.5,0,29.8,13.4,29.8,29.8C509.4,110,496.3,123.4,479.8,123.4 M977,41.3c-6.2,0-11.1,4.6-11.1,11.1l-0.3,81.8
		c0,6.7,4.6,11.1,11.1,11.1c6.9,0,11.1-4.1,11.1-11.1l0.3-81.8C988,45.6,983.7,41.3,977,41.3 M400.3,40.8c-6.2,0-11.1,4.6-11.1,11.1
		v81.8c0,6.7,4.6,11.1,11.1,11.1c6.9,0,11.1-4.1,11.1-11.1V51.8C411.6,45.4,407,40.8,400.3,40.8 M562.9,41
		c-6.2,0-11.1,4.6-11.1,11.1v81.6c0,6.7,4.6,11.1,11.1,11.1c6.9,0,11.1-4.1,11.1-11.1V52.1C574,45.4,569.6,41,562.9,41 M631.7,123.4
		c-7.2-0.5-11.8-2.6-11.8-11.1V65.2h5.7c6.2,0,11.1-4.6,11.1-11.1c0-6.9-4.4-11.1-11.1-11.1h-5.7V13.5c0-6.9-4.1-11.1-11.1-11.1
		c-6.4,0-11.1,4.6-11.1,11.1v29.8c-5.4,0.8-8.5,4.9-8.5,10.8c0,5.7,3.6,10,8.5,10.8v47.3c0,20.6,11.1,32.4,30.4,32.4
		c8,0,12.9-3.9,12.9-10.3C640.9,127.7,637.3,123.9,631.7,123.4 M782.4,2.2c-6.4,0-11.1,4.6-11.1,11.1v120.4
		c0,6.7,4.6,11.1,11.1,11.1c6.9,0,11.1-4.1,11.1-11.1V13.2C793.8,6.5,789.4,2.2,782.4,2.2 M847.3,112.3c-0.3-0.5-0.8-1-1.3-1.5
		c-1-1.3-2.1-2.3-3.6-3.3c-0.5-0.3-0.8-0.8-1.3-0.8c-2.3-1.5-4.9-2.6-8-3.1c-1.3-0.3-2.3-0.3-3.6-0.3c-3.6,0-6.9,0.8-10,2.6
		c-0.5,0.3-1.3,0.8-1.8,1c-5.7,3.6-9.3,10-9.3,17.2s3.6,13.6,9.3,17.2c0.5,0.3,1,0.8,1.8,1c3.1,1.5,6.2,2.6,10,2.6
		c5.1,0,9.5-1.8,13.4-4.6c1-0.8,1.8-1.8,2.8-2.8c0.3-0.5,0.8-1,1.3-1.5c0.8-1,1.3-2.3,1.8-3.6c1-2.6,1.5-5.1,1.5-8.2
		s-0.5-5.7-1.5-8.2C848.6,114.6,847.8,113.3,847.3,112.3"/>
	<path class="st1" d="M717.1,88.9c0.3,1.3,0.5,3.1,0.5,4.6c0,0.8,0,1.8-0.3,2.6c-0.3,0.8-0.3,1.8-0.5,2.6c-0.3,1.5-1,3.1-1.8,4.6
		c-3.6,6.2-10,10.5-17.8,10.5c-11.1,0-20.3-9-20.3-20.6c0-1.3,0.3-2.8,0.3-4.1c1.3-6.7,5.9-12.1,12.1-14.7c2.6-1,5.1-1.5,8-1.5
		s5.4,0.5,8,1.5c4.6,1.8,8.2,5.4,10.3,10C716.3,85.8,716.8,87.3,717.1,88.9 M319.5,73.2c-11.1,0-20.3,9-20.3,20.6
		c0,11.3,9,20.6,20.3,20.6c11.1,0,20.3-9,20.3-20.6S330.6,73.2,319.5,73.2 M902.1,74.7c-0.5-0.3-1.3-0.5-1.8-0.8
		c-0.8-0.3-1.8-0.5-3.1-0.8c-1-0.3-2.1-0.3-3.1-0.3c-2.1,0-4.1,0.3-6.2,0.8c-0.8,0.3-1.3,0.3-1.8,0.8c-6.2,2.6-10.5,8-12.1,14.7
		c-0.3,1.3-0.3,2.6-0.3,4.1c0,5.7,2.3,10.5,5.9,14.4c0.8,0.8,1.8,1.8,3.1,2.6c1.5,1,3.6,1.8,5.1,2.6c1.8,0.5,4.1,0.8,6.2,0.8
		c1,0,2.1,0,3.1-0.3s1.8-0.3,3.1-0.8c1.8-0.5,3.6-1.3,5.1-2.6c1-0.8,2.1-1.5,3.1-2.6c3.6-3.6,5.9-8.7,5.9-14.4
		c0-1.3-0.3-2.8-0.3-4.1C912.6,82.7,908.3,77.3,902.1,74.7 M487.6,74.7c-2.6-1-5.1-1.5-8-1.5c-2.8,0-5.4,0.5-8,1.5
		c-6.2,2.6-10.5,8-12.1,14.7c-0.3,1.3-0.3,2.6-0.3,4.1c0,11.1,9,20.6,20.3,20.6c11.1,0,20.3-9,20.3-20.6c0-1.3-0.3-2.8-0.3-4.1
		C498.4,82.7,493.7,77.3,487.6,74.7"/>
	<g class="st2">
		<path class="st0" d="M706.8,222v-46.5h4.7c0.9,0,1.5,0.2,1.8,0.5c0.3,0.3,0.6,0.9,0.7,1.7l0.6,7.3c1.6-3.2,3.6-5.8,5.9-7.6
			c2.3-1.8,5.1-2.7,8.2-2.7c1.3,0,2.5,0.1,3.5,0.4c1,0.3,2,0.7,2.9,1.2l-1.1,6.1c-0.2,0.8-0.7,1.1-1.4,1.1c-0.4,0-1.1-0.1-2-0.4
			c-0.9-0.3-2.1-0.4-3.7-0.4c-2.8,0-5.2,0.8-7.1,2.5c-1.9,1.7-3.5,4.1-4.8,7.2V222H706.8z"/>
		<path class="st0" d="M762.3,174.8c2.8,0,5.4,0.5,7.7,1.4c2.4,0.9,4.4,2.3,6.1,4c1.7,1.8,3.1,3.9,4,6.5s1.4,5.5,1.4,8.8
			c0,1.3-0.1,2.1-0.4,2.6c-0.3,0.4-0.8,0.6-1.6,0.6h-31c0.1,2.9,0.5,5.5,1.2,7.7s1.7,4,3,5.4c1.3,1.5,2.8,2.5,4.6,3.3s3.8,1.1,6,1.1
			c2.1,0,3.8-0.2,5.3-0.7c1.5-0.5,2.8-1,3.8-1.5s2-1.1,2.7-1.5c0.7-0.5,1.3-0.7,1.9-0.7c0.7,0,1.2,0.3,1.6,0.8l2.3,3
			c-1,1.2-2.2,2.3-3.6,3.2c-1.4,0.9-2.9,1.6-4.5,2.2s-3.3,1-5,1.3c-1.7,0.3-3.4,0.4-5.1,0.4c-3.2,0-6.2-0.5-8.9-1.6
			c-2.7-1.1-5.1-2.7-7-4.8s-3.5-4.7-4.6-7.8s-1.7-6.6-1.7-10.7c0-3.2,0.5-6.3,1.5-9.1c1-2.8,2.4-5.3,4.3-7.3s4.2-3.7,6.8-4.9
			C755.9,175.3,758.9,174.8,762.3,174.8z M762.5,180.8c-4,0-7.1,1.1-9.3,3.4c-2.3,2.3-3.7,5.4-4.2,9.5h25.3c0-1.9-0.3-3.6-0.8-5.2
			c-0.5-1.6-1.3-2.9-2.3-4.1s-2.2-2-3.7-2.7C766,181.1,764.3,180.8,762.5,180.8z"/>
		<path class="st0" d="M801.1,154.4V222h-8.2v-67.7H801.1z"/>
		<path class="st0" d="M833.9,174.8c2.8,0,5.4,0.5,7.7,1.4c2.4,0.9,4.4,2.3,6.1,4c1.7,1.8,3.1,3.9,4,6.5s1.4,5.5,1.4,8.8
			c0,1.3-0.1,2.1-0.4,2.6c-0.3,0.4-0.8,0.6-1.6,0.6h-31c0.1,2.9,0.5,5.5,1.2,7.7c0.7,2.2,1.7,4,3,5.4c1.3,1.5,2.8,2.5,4.6,3.3
			c1.8,0.7,3.8,1.1,6,1.1c2.1,0,3.8-0.2,5.3-0.7c1.5-0.5,2.8-1,3.8-1.5c1.1-0.6,2-1.1,2.7-1.5c0.7-0.5,1.3-0.7,1.9-0.7
			c0.7,0,1.2,0.3,1.6,0.8l2.3,3c-1,1.2-2.2,2.3-3.6,3.2c-1.4,0.9-2.9,1.6-4.5,2.2c-1.6,0.6-3.3,1-5,1.3c-1.7,0.3-3.4,0.4-5.1,0.4
			c-3.2,0-6.2-0.5-8.9-1.6c-2.7-1.1-5.1-2.7-7-4.8s-3.5-4.7-4.6-7.8s-1.7-6.6-1.7-10.7c0-3.2,0.5-6.3,1.5-9.1c1-2.8,2.4-5.3,4.3-7.3
			c1.9-2.1,4.1-3.7,6.8-4.9C827.5,175.3,830.6,174.8,833.9,174.8z M834.1,180.8c-4,0-7.1,1.1-9.3,3.4c-2.3,2.3-3.7,5.4-4.2,9.5h25.3
			c0-1.9-0.3-3.6-0.8-5.2c-0.5-1.6-1.3-2.9-2.3-4.1s-2.2-2-3.7-2.7S836,180.8,834.1,180.8z"/>
		<path class="st0" d="M897.8,222h-3.6c-0.8,0-1.4-0.1-1.9-0.4s-0.8-0.8-1-1.6l-0.9-4.3c-1.2,1.1-2.4,2.1-3.6,3
			c-1.2,0.9-2.4,1.6-3.7,2.2c-1.3,0.6-2.7,1-4.1,1.4c-1.5,0.3-3.1,0.5-4.8,0.5c-1.8,0-3.5-0.3-5.1-0.8c-1.6-0.5-2.9-1.3-4.1-2.3
			c-1.2-1-2.1-2.3-2.8-3.8s-1-3.4-1-5.5c0-1.8,0.5-3.6,1.5-5.3s2.6-3.2,4.9-4.5c2.3-1.3,5.2-2.4,8.8-3.3c3.6-0.8,8.1-1.3,13.4-1.3
			v-3.7c0-3.6-0.8-6.4-2.3-8.3c-1.5-1.9-3.8-2.8-6.9-2.8c-2,0-3.7,0.3-5,0.8c-1.4,0.5-2.5,1.1-3.5,1.7c-1,0.6-1.9,1.2-2.6,1.7
			c-0.7,0.5-1.4,0.8-2.1,0.8c-0.6,0-1-0.1-1.4-0.4c-0.4-0.3-0.7-0.7-1-1.1l-1.5-2.6c2.6-2.5,5.3-4.3,8.3-5.6c3-1.2,6.3-1.8,9.9-1.8
			c2.6,0,4.9,0.4,6.9,1.3c2,0.9,3.7,2.1,5.1,3.6c1.4,1.5,2.4,3.4,3.1,5.6c0.7,2.2,1.1,4.6,1.1,7.2V222z M876.6,217
			c1.4,0,2.8-0.1,4-0.4c1.2-0.3,2.3-0.7,3.4-1.2c1.1-0.5,2.1-1.2,3-2c1-0.8,1.9-1.6,2.8-2.6v-9.6c-3.8,0-7,0.2-9.6,0.7
			c-2.6,0.5-4.8,1.1-6.4,1.9c-1.7,0.8-2.9,1.7-3.6,2.7c-0.8,1-1.1,2.2-1.1,3.5c0,1.2,0.2,2.3,0.6,3.2c0.4,0.9,0.9,1.6,1.6,2.2
			c0.7,0.6,1.5,1,2.4,1.2S875.5,217,876.6,217z"/>
		<path class="st0" d="M936.9,183.2c-0.4,0.7-0.9,1-1.7,1c-0.5,0-1-0.2-1.6-0.5c-0.6-0.3-1.3-0.7-2.1-1.1c-0.8-0.4-1.8-0.8-3-1.1
			c-1.2-0.4-2.5-0.5-4.1-0.5c-1.4,0-2.6,0.2-3.7,0.5c-1.1,0.4-2,0.8-2.8,1.4c-0.8,0.6-1.4,1.3-1.8,2.1c-0.4,0.8-0.6,1.7-0.6,2.6
			c0,1.2,0.3,2.2,1,3c0.7,0.8,1.6,1.5,2.7,2.1c1.1,0.6,2.4,1.1,3.9,1.5c1.4,0.4,2.9,0.9,4.4,1.4c1.5,0.5,3,1.1,4.4,1.7
			s2.7,1.4,3.9,2.3c1.1,0.9,2,2,2.7,3.4c0.7,1.3,1,2.9,1,4.8c0,2.1-0.4,4.1-1.1,5.9c-0.8,1.8-1.9,3.4-3.4,4.7s-3.3,2.4-5.5,3.1
			c-2.2,0.8-4.7,1.1-7.5,1.1c-3.2,0-6.2-0.5-8.8-1.6c-2.6-1.1-4.9-2.4-6.7-4.1l1.9-3.1c0.2-0.4,0.5-0.7,0.9-0.9
			c0.3-0.2,0.8-0.3,1.3-0.3c0.6,0,1.1,0.2,1.7,0.6c0.6,0.4,1.4,0.9,2.2,1.4c0.9,0.5,1.9,1,3.2,1.4c1.2,0.4,2.8,0.6,4.7,0.6
			c1.6,0,3-0.2,4.2-0.6c1.2-0.4,2.2-1,3-1.7c0.8-0.7,1.4-1.5,1.8-2.4s0.6-1.9,0.6-2.9c0-1.3-0.3-2.3-1-3.2c-0.7-0.8-1.6-1.6-2.7-2.2
			c-1.1-0.6-2.4-1.1-3.9-1.6c-1.5-0.4-2.9-0.9-4.5-1.4c-1.5-0.5-3-1-4.5-1.7s-2.7-1.4-3.9-2.4c-1.1-0.9-2-2.1-2.7-3.5
			c-0.7-1.4-1-3.1-1-5.1c0-1.8,0.4-3.5,1.1-5.1c0.7-1.6,1.8-3.1,3.2-4.3c1.4-1.2,3.1-2.2,5.2-3c2.1-0.7,4.4-1.1,7-1.1
			c3.1,0,5.8,0.5,8.2,1.4c2.4,1,4.5,2.3,6.3,4L936.9,183.2z"/>
		<path class="st0" d="M968.5,174.8c2.8,0,5.4,0.5,7.7,1.4c2.4,0.9,4.4,2.3,6.1,4c1.7,1.8,3.1,3.9,4,6.5s1.4,5.5,1.4,8.8
			c0,1.3-0.1,2.1-0.4,2.6c-0.3,0.4-0.8,0.6-1.6,0.6h-31c0.1,2.9,0.5,5.5,1.2,7.7c0.7,2.2,1.7,4,3,5.4c1.3,1.5,2.8,2.5,4.6,3.3
			c1.8,0.7,3.8,1.1,6,1.1c2.1,0,3.8-0.2,5.3-0.7c1.5-0.5,2.8-1,3.8-1.5c1.1-0.6,2-1.1,2.7-1.5c0.7-0.5,1.3-0.7,1.9-0.7
			c0.7,0,1.2,0.3,1.6,0.8l2.3,3c-1,1.2-2.2,2.3-3.6,3.2c-1.4,0.9-2.9,1.6-4.5,2.2c-1.6,0.6-3.3,1-5,1.3c-1.7,0.3-3.4,0.4-5.1,0.4
			c-3.2,0-6.2-0.5-8.9-1.6c-2.7-1.1-5.1-2.7-7-4.8s-3.5-4.7-4.6-7.8s-1.7-6.6-1.7-10.7c0-3.2,0.5-6.3,1.5-9.1c1-2.8,2.4-5.3,4.3-7.3
			c1.9-2.1,4.1-3.7,6.8-4.9C962.1,175.3,965.2,174.8,968.5,174.8z M968.7,180.8c-4,0-7.1,1.1-9.3,3.4c-2.3,2.3-3.7,5.4-4.2,9.5h25.3
			c0-1.9-0.3-3.6-0.8-5.2c-0.5-1.6-1.3-2.9-2.3-4.1s-2.2-2-3.7-2.7S970.6,180.8,968.7,180.8z"/>
	</g>
</g>
<path class="st1" d="M120.4,2.1C55,2.1,2,55.1,2,120.5s53,118.4,118.4,118.4s118.4-53,118.4-118.4S185.7,2.1,120.4,2.1z M120.4,20.9
	c54.8,0,99.3,44.5,99.3,99.3c0,2.8-0.3,5.7-0.3,8.2h-56.6V91.9c0-5.7-4.6-10.3-10.3-10.3h-23.9V62.8h36.3c5.7,0,10.3-4.6,10.3-10.3
	s-4.6-10.3-10.3-10.3h-36.3v-2.1c0-5.7-4.6-10.3-10.3-10.3c-5.7,0-10.3,4.6-10.3,10.3v2.1H74.3c-5.7,0-10.3,4.6-10.3,10.3
	s4.6,10.3,10.3,10.3H108v18.8H86.4c-5.7,0-10.3,4.6-10.3,10.3v36.5H21.3c-0.3-2.8-0.3-5.4-0.3-8.2C21,65.7,65.6,20.9,120.4,20.9z
	 M209.7,164.2L209.7,164.2H33.4c-0.8,0-1.3,0-2.1,0.3c-2.3-4.9-4.4-10-6.2-15.2h59.7c3.1,0,5.9-1.3,7.7-3.6c2.6-1.8,4.1-4.9,4.1-8.2
	v-35h45.5v35c0,3.1,1.5,5.9,3.6,7.7c1.8,2.3,4.9,3.9,8,3.9h61.8C214,154.4,212,159.6,209.7,164.2z M178,201.5
	c-0.5,0-1.3-0.3-1.8-0.3H64.3c-0.5,0-1,0-1.3,0.3c-6.7-4.6-12.6-10.3-18-16.5h151C190.6,191,184.7,196.6,178,201.5z"/>
</svg>
