<?xml version="1.0" encoding="utf-8"?>
<!-- Generator: Adobe Illustrator 24.1.0, SVG Export Plug-In . SVG Version: 6.00 Build 0)  -->
<svg version="1.1" id="Layer_1" xmlns="http://www.w3.org/2000/svg" xmlns:xlink="http://www.w3.org/1999/xlink" x="0px" y="0px"
	 viewBox="0 0 1024 240" style="enable-background:new 0 0 1024 240;" xml:space="preserve">
<style type="text/css">
	.st0{fill:#495260;}
	.st1{fill:#79B522;}
	.st2{enable-background:new    ;}
	.st3{fill:#79B522;stroke:#79B522;stroke-width:5.1541;stroke-miterlimit:10;}
</style>
<g>
	<path class="st0" d="M1001.4,44.2h-3.6v-2.1h9.5v2.1h-3.6v11.3h-2.1L1001.4,44.2L1001.4,44.2z M1009.1,42.1h3.4l3.1,9.5l0,0
		l3.1-9.5h3.4v13.4h-2.1V44.7l0,0l-3.6,10.8h-1.5l-3.6-10.8l0,0v10.8h-2.1V42.1H1009.1z M935.2,41.6c-5.7,0-10.1,3.9-10.8,9.3
		c-7.5-7.5-18-11.6-30.2-11.6c-30.2,0-53.6,23.7-53.6,53.9c0,0.8,0,1.3,0,2.1c11.3,4.4,19.3,15.5,19.3,28.3c0,3.6-0.5,7-1.8,10.1
		c9.5,8.2,21.9,13.1,35.8,13.1c12.1,0,23.5-5.9,30.2-12.4c0.5,5.9,4.9,10.1,10.8,10.1c7,0,11.1-4.1,11.1-11.1V52.7
		C946.2,46,941.9,41.6,935.2,41.6 M893.9,123c-16.5,0-29.9-13.4-29.9-29.9s13.4-29.9,29.9-29.9s29.9,13.4,29.9,29.9
		C923.8,109.9,910.4,123,893.9,123 M738.8,41.6c-5.7,0-10.1,3.9-10.8,9.3c-7.5-7.5-18-11.6-30.2-11.6c-30.2,0-53.6,23.7-53.6,53.9
		c0,30.4,23.2,53.6,53.6,53.6c12.1,0,23.5-5.9,30.2-12.4c0.5,5.9,4.9,10.1,10.8,10.1c7,0,11.1-4.1,11.1-11.1V52.7
		C749.9,46,745.5,41.6,738.8,41.6 M696.8,123c-16.5,0-29.9-13.4-29.9-29.9s13.4-29.9,29.9-29.9s29.9,13.4,29.9,29.9
		C726.7,109.9,713.3,123,696.8,123 M359.4,1.9c-7,0-11.1,4.4-11.1,11.1v38.1c-7-7.5-17.5-11.9-29.9-11.9
		c-28.6,0-53.6,25.3-53.6,53.9s25,53.6,53.6,53.6c12.6,0,24.5-6.4,30.9-12.9c1.3,7,5.4,10.8,12.1,10.8c5.4,0,9.3-4.1,9.3-10.1V12.7
		C370.8,6.3,366.1,1.9,359.4,1.9 M318.5,123c-16.5,0-29.9-13.4-29.9-29.9s13.4-29.9,29.9-29.9s29.9,13.4,29.9,29.9
		C348.1,109.9,335,123,318.5,123 M522.1,41.6c-7.2,0-10.8,3.4-11.9,10.8c-6.7-6.7-18.3-13.1-30.9-13.1c-28.6,0-53.6,25-53.6,53.9
		c0,28.6,25,53.9,53.6,53.9c12.9,0,23.2-4.1,29.6-11.3c-0.8,21.6-11.1,32.2-32,32.2c-7,0-11.1,4.4-11.1,11.1
		c0,7.2,4.4,11.1,11.9,11.1c39.7,0,53.6-28.9,53.6-53.6v-85C531.6,46,527.7,41.6,522.1,41.6 M479,123c-16.5,0-29.9-13.4-29.9-29.9
		s13.4-29.9,29.9-29.9s29.9,13.4,29.9,29.9C508.6,109.9,495.5,123,479,123 M976.9,41.1c-6.2,0-11.1,4.6-11.1,11.1l-0.3,82
		c0,6.7,4.6,11.1,11.1,11.1c7,0,11.1-4.1,11.1-11.1l0.3-82C988,45.5,983.6,41.1,976.9,41.1 M399.4,40.6c-6.2,0-11.1,4.6-11.1,11.1
		v82c0,6.7,4.6,11.1,11.1,11.1c7,0,11.1-4.1,11.1-11.1v-82C410.7,44.9,406.1,40.6,399.4,40.6 M562.3,40.8c-6.2,0-11.1,4.6-11.1,11.1
		v81.7c0,6.7,4.6,11.1,11.1,11.1c7,0,11.1-4.1,11.1-11.1V51.9C573.3,45.2,569,40.8,562.3,40.8 M631.1,123
		c-7.2-0.5-11.9-2.6-11.9-11.1V64.8h5.7c6.2,0,11.1-4.6,11.1-11.1c0-7-4.4-11.1-11.1-11.1h-5.7V13c0-7-4.1-11.1-11.1-11.1
		C601.7,1.9,597,6.5,597,13v29.9c-5.4,0.8-8.5,4.9-8.5,10.8c0,5.7,3.6,10.1,8.5,10.8v47.4c0,20.6,11.1,32.5,30.4,32.5
		c8,0,12.9-3.9,12.9-10.3C640.3,127.7,636.7,123.5,631.1,123 M782.1,1.9C775.6,1.9,771,6.5,771,13v120.6c0,6.7,4.6,11.1,11.1,11.1
		c7,0,11.1-4.1,11.1-11.1V13C793.4,6,789,1.9,782.1,1.9 M847,111.9c-0.3-0.5-0.8-1-1.3-1.5c-1-1.3-2.1-2.3-3.6-3.4
		c-0.5-0.3-0.8-0.8-1.3-0.8c-2.3-1.5-4.9-2.6-8-3.1c-1.3-0.3-2.3-0.3-3.6-0.3c-3.6,0-7,0.8-10.1,2.6c-0.5,0.3-1.3,0.8-1.8,1
		c-5.7,3.6-9.3,10.1-9.3,17.3c0,7.2,3.6,13.7,9.3,17.3c0.5,0.3,1,0.8,1.8,1c3.1,1.5,6.2,2.6,10.1,2.6c5.2,0,9.5-1.8,13.4-4.6
		c1-0.8,1.8-1.8,2.8-2.8c0.3-0.5,0.8-1,1.3-1.5c0.8-1,1.3-2.3,1.8-3.6c1-2.6,1.5-5.2,1.5-8.2s-0.5-5.7-1.5-8.2
		C848.3,114.3,847.5,113.2,847,111.9"/>
	<path class="st1" d="M716.6,88.5c0.3,1.3,0.5,3.1,0.5,4.6c0,0.8,0,1.8-0.3,2.6c-0.3,0.8-0.3,1.8-0.5,2.6c-0.3,1.5-1,3.1-1.8,4.6
		c-3.6,6.2-10.1,10.6-17.8,10.6c-11.1,0-20.4-9-20.4-20.6c0-1.3,0.3-2.8,0.3-4.1c1.3-6.7,5.9-12.1,12.1-14.7c2.6-1,5.2-1.5,8-1.5
		s5.4,0.5,8,1.5c4.6,1.8,8.2,5.4,10.3,10.1C715.8,85.7,716.4,87.2,716.6,88.5 M318.5,72.8c-11.1,0-20.4,9-20.4,20.6
		s9,20.6,20.4,20.6c11.1,0,20.4-9,20.4-20.6S329.5,72.8,318.5,72.8 M901.9,74.3c-0.5-0.3-1.3-0.5-1.8-0.8c-0.8-0.3-1.8-0.5-3.1-0.8
		s-2.1-0.3-3.1-0.3c-2.1,0-4.1,0.3-6.2,0.8c-0.8,0.3-1.3,0.3-1.8,0.8c-6.2,2.6-10.6,8-12.1,14.7c-0.3,1.3-0.3,2.6-0.3,4.1
		c0,5.7,2.3,10.6,5.9,14.4c0.8,0.8,1.8,1.8,3.1,2.6c1.5,1,3.6,1.8,5.2,2.6c1.8,0.5,4.1,0.8,6.2,0.8c1,0,2.1,0,3.1-0.3
		s1.8-0.3,3.1-0.8c1.8-0.5,3.6-1.3,5.2-2.6c1-0.8,2.1-1.5,3.1-2.6c3.6-3.6,5.9-8.8,5.9-14.4c0-1.3-0.3-2.8-0.3-4.1
		C912.5,82.6,908.1,77.2,901.9,74.3 M486.7,74.3c-2.6-1-5.2-1.5-8-1.5s-5.4,0.5-8,1.5c-6.2,2.6-10.6,8-12.1,14.7
		c-0.3,1.3-0.3,2.6-0.3,4.1c0,11.1,9,20.6,20.4,20.6c11.1,0,20.4-9,20.4-20.6c0-1.3-0.3-2.8-0.3-4.1
		C497.6,82.6,492.9,77.2,486.7,74.3"/>
	<g class="st2">
		<path class="st0" d="M759.9,222c-1.2,0-1.9-0.6-2.2-1.7l-0.7-5.7c-2,2.4-4.3,4.4-6.8,5.8s-5.5,2.2-8.8,2.2c-2.7,0-5.1-0.5-7.3-1.5
			c-2.2-1-4-2.5-5.6-4.5c-1.5-2-2.7-4.5-3.5-7.5c-0.8-3-1.2-6.4-1.2-10.3c0-3.4,0.5-6.6,1.4-9.6c0.9-3,2.2-5.5,4-7.7
			c1.7-2.2,3.8-3.9,6.3-5.1s5.3-1.9,8.5-1.9c2.9,0,5.3,0.5,7.3,1.4c2,1,3.8,2.3,5.4,4.1v-25.9h8.2V222H759.9z M744.1,216.1
			c2.7,0,5-0.6,7-1.8c2-1.2,3.9-3,5.5-5.2v-22.5c-1.5-2-3.2-3.4-4.9-4.3c-1.8-0.8-3.8-1.2-6-1.2c-4.4,0-7.7,1.5-10,4.6
			s-3.5,7.5-3.5,13.3c0,3,0.3,5.6,0.8,7.8c0.5,2.2,1.3,3.9,2.3,5.3c1,1.4,2.3,2.4,3.7,3.1C740.5,215.7,742.2,216.1,744.1,216.1z"/>
		<path class="st0" d="M797,174.7c2.8,0,5.4,0.5,7.7,1.4c2.4,0.9,4.4,2.3,6.1,4c1.7,1.8,3.1,3.9,4,6.5c1,2.6,1.4,5.5,1.4,8.9
			c0,1.3-0.1,2.1-0.4,2.6c-0.3,0.4-0.8,0.6-1.6,0.6h-31c0.1,2.9,0.5,5.5,1.2,7.7c0.7,2.2,1.7,4,3,5.5c1.3,1.5,2.8,2.5,4.6,3.3
			c1.8,0.7,3.8,1.1,6,1.1c2.1,0,3.8-0.2,5.3-0.7s2.8-1,3.8-1.5c1.1-0.6,2-1.1,2.7-1.5c0.7-0.5,1.3-0.7,1.9-0.7
			c0.7,0,1.2,0.3,1.6,0.8l2.3,3c-1,1.2-2.2,2.3-3.6,3.2c-1.4,0.9-2.9,1.6-4.5,2.2c-1.6,0.6-3.3,1-5,1.3c-1.7,0.3-3.4,0.4-5.1,0.4
			c-3.2,0-6.2-0.5-8.9-1.6s-5.1-2.7-7-4.8c-2-2.1-3.5-4.7-4.6-7.8c-1.1-3.1-1.7-6.7-1.7-10.7c0-3.3,0.5-6.3,1.5-9.1
			c1-2.8,2.4-5.3,4.3-7.3c1.9-2.1,4.2-3.7,6.9-4.9C790.6,175.3,793.6,174.7,797,174.7z M797.2,180.7c-4,0-7.1,1.1-9.3,3.4
			c-2.3,2.3-3.7,5.5-4.2,9.5H809c0-1.9-0.3-3.6-0.8-5.2c-0.5-1.6-1.3-2.9-2.3-4.1s-2.2-2-3.7-2.7C800.7,181,799.1,180.7,797.2,180.7
			z"/>
		<path class="st0" d="M826.8,237.8v-62.4h4.9c1.2,0,1.9,0.6,2.2,1.7l0.7,5.5c2-2.4,4.3-4.4,6.8-5.8c2.6-1.5,5.5-2.2,8.9-2.2
			c2.7,0,5.1,0.5,7.3,1.5c2.2,1,4,2.5,5.6,4.6s2.7,4.5,3.5,7.5c0.8,3,1.2,6.4,1.2,10.3c0,3.4-0.5,6.6-1.4,9.6c-0.9,3-2.2,5.5-4,7.7
			c-1.7,2.2-3.8,3.9-6.3,5.1c-2.5,1.2-5.3,1.9-8.4,1.9c-2.9,0-5.3-0.5-7.4-1.4s-3.8-2.3-5.4-4v20.6H826.8z M847.5,181.2
			c-2.7,0-5,0.6-7,1.8c-2,1.2-3.9,3-5.5,5.2v22.5c1.5,2,3.2,3.5,4.9,4.3s3.8,1.2,6,1.2c4.3,0,7.7-1.5,10-4.6s3.5-7.5,3.5-13.3
			c0-3-0.3-5.6-0.8-7.8c-0.5-2.2-1.3-4-2.3-5.4c-1-1.4-2.3-2.4-3.7-3.1C851.1,181.5,849.4,181.2,847.5,181.2z"/>
		<path class="st0" d="M886.7,154.3V222h-8.2v-67.8H886.7z"/>
		<path class="st0" d="M920,174.7c3.4,0,6.5,0.6,9.2,1.7c2.7,1.1,5.1,2.7,7,4.8c1.9,2.1,3.4,4.6,4.4,7.6c1,3,1.5,6.3,1.5,9.9
			c0,3.7-0.5,7-1.5,9.9c-1,2.9-2.5,5.5-4.4,7.5c-1.9,2.1-4.2,3.7-7,4.8c-2.7,1.1-5.8,1.7-9.2,1.7s-6.5-0.6-9.2-1.7
			c-2.7-1.1-5.1-2.7-7-4.8c-1.9-2.1-3.4-4.6-4.5-7.5s-1.6-6.3-1.6-9.9c0-3.7,0.5-7,1.6-9.9c1-3,2.5-5.5,4.5-7.6
			c1.9-2.1,4.3-3.7,7-4.8C913.5,175.3,916.6,174.7,920,174.7z M920,216.3c4.6,0,8-1.5,10.3-4.6s3.4-7.4,3.4-12.9
			c0-5.6-1.1-9.9-3.4-13c-2.3-3.1-5.7-4.6-10.3-4.6c-2.3,0-4.4,0.4-6.1,1.2c-1.7,0.8-3.2,1.9-4.3,3.5s-2,3.4-2.6,5.5
			c-0.6,2.2-0.9,4.7-0.9,7.4s0.3,5.2,0.9,7.4c0.6,2.2,1.4,4,2.6,5.5c1.2,1.5,2.6,2.6,4.3,3.4C915.7,215.9,917.7,216.3,920,216.3z"/>
		<path class="st0" d="M964.8,235.8c-0.3,0.6-0.6,1.1-1,1.5s-1.1,0.6-1.9,0.6h-6.1l8.5-18.5L945,175.4h7.1c0.7,0,1.3,0.2,1.7,0.5
			c0.4,0.4,0.7,0.7,0.9,1.2l12.5,29.4c0.3,0.7,0.5,1.3,0.7,2s0.4,1.4,0.5,2.1c0.2-0.7,0.4-1.4,0.6-2.1c0.2-0.7,0.5-1.4,0.7-2.1
			l12.1-29.3c0.2-0.5,0.5-0.9,0.9-1.2c0.4-0.3,0.9-0.5,1.4-0.5h6.5L964.8,235.8z"/>
	</g>
</g>
<g>
	<path id="XMLID_1_" class="st3" d="M174.9,62.6c-0.3-2.6-2.3-4.9-5.2-5.2c-34.8-2.8-60,14.2-75.5,35.6c-8.5-2.8-17.8-1.8-26.3,2.8
		c-8,4.6-14.9,12.1-19.3,21.6c-1,2.1-0.5,4.6,1.3,6.4c1.8,1.5,4.4,2.1,6.4,0.8c8.8-4.6,18.8-3.9,24.7,2.1l24.2,24.2c0,0,0,0,0,0.3
		c5.9,5.9,7,16,2.1,24.7c-1,2.1-0.8,4.6,0.8,6.4c1,1,2.6,1.8,4.1,1.8c0.8,0,1.5-0.3,2.3-0.5c9.3-4.4,17-11.3,21.6-19.3
		c4.6-8.5,5.7-17.8,2.8-26.3c6.2-4.4,11.9-9.5,16.5-14.9C170.5,106.1,177,85.8,174.9,62.6z M66.7,110.8c5.9-5.9,13.4-9.3,21.4-8
		c-2.1,3.9-4.1,7.7-5.7,11.6C77.8,111.8,72.4,110.5,66.7,110.8z M121.8,165.6c0.3-5.7-1-11.1-3.6-15.7c4.1-1.8,8-3.6,11.6-5.7
		C131.1,152,127.8,159.7,121.8,165.6z M110.8,140.9l-19.6-19.3c9.8-26,34-54.1,72.7-53.3C165.4,114.4,127.2,134.5,110.8,140.9z
		 M146.6,86c1.5,1.5,2.6,3.9,2.6,6.4c0,2.6-1,4.6-2.6,6.4c-1.5,1.5-3.9,2.6-6.4,2.6s-4.6-1-6.4-2.6c-1.5-1.5-2.6-3.9-2.6-6.4
		c0-2.6,1-4.6,2.6-6.4c1.5-1.5,3.9-2.6,6.4-2.6S144.8,84.2,146.6,86z M68.7,143.2c-6.4,6.4-6.7,19.1-6.7,21.4c0,3.1,2.6,5.7,5.4,5.7
		c0,0,0,0,0.3,0c2.8,0,14.9-0.5,21.1-6.7c3.9-3.9,4.6-8,4.6-10.6c0-3.6-1.5-7.2-4.4-10.1C82.4,136,73.9,138.3,68.7,143.2z
		 M81.4,155.9c-1.3,1.3-4.4,2.3-7.5,2.8c0.5-3.1,1.5-6.2,2.8-7.5c0.8-0.8,1.8-1.5,2.6-1.5s1.5,0.3,2.3,1.3c0.8,0.8,1.3,1.5,1.3,2.3
		S81.9,155.1,81.4,155.9z"/>
	<path class="st1" d="M120.5,21.8c54.4,0,98.7,44.3,98.7,98.7s-44.3,98.7-98.7,98.7s-98.7-44.3-98.7-98.7S65.9,21.8,120.5,21.8
		 M120.5,2C55.1,2,2,55.1,2,120.5S55.1,239,120.5,239s118.6-53,118.6-118.5S186,2,120.5,2L120.5,2z"/>
</g>
</svg>
