<?xml version="1.0" encoding="utf-8"?>
<!-- Generator: Adobe Illustrator 24.1.0, SVG Export Plug-In . SVG Version: 6.00 Build 0)  -->
<svg version="1.1" id="Layer_1" xmlns="http://www.w3.org/2000/svg" xmlns:xlink="http://www.w3.org/1999/xlink" x="0px" y="0px"
	 viewBox="0 0 1024 240" style="enable-background:new 0 0 1024 240;" xml:space="preserve">
<style type="text/css">
	.st0{fill:#495260;}
	.st1{fill:#79B522;}
	.st2{enable-background:new    ;}
</style>
<g>
	<g>
		<path class="st0" d="M1001.4,43.6h-3.6v-2.1h9.5v2.1h-3.6V55h-2.1L1001.4,43.6L1001.4,43.6z M1009.1,41.6h3.4l3.1,9.5l0,0l3.1-9.5
			h3.4V55h-2.1V44.1l0,0l-3.6,10.8h-1.5l-3.6-10.8l0,0V55h-2.1V41.6H1009.1z M935.2,41c-5.7,0-10.1,3.9-10.8,9.3
			c-7.5-7.5-18-11.6-30.2-11.6c-30.2,0-53.6,23.7-53.6,53.9c0,0.8,0,1.3,0,2.1c11.3,4.4,19.3,15.5,19.3,28.3c0,3.6-0.5,7-1.8,10.1
			c9.5,8.2,21.9,13.1,35.8,13.1c12.1,0,23.5-5.9,30.2-12.4c0.5,5.9,4.9,10.1,10.8,10.1c7,0,11.1-4.1,11.1-11.1V52.1
			C946.2,45.4,941.9,41,935.2,41 M893.9,122.5c-16.5,0-29.9-13.4-29.9-29.9s13.4-29.9,29.9-29.9s29.9,13.4,29.9,29.9
			C923.8,109.3,910.4,122.5,893.9,122.5 M738.8,41c-5.7,0-10.1,3.9-10.8,9.3c-7.5-7.5-18-11.6-30.2-11.6
			c-30.2,0-53.6,23.7-53.6,53.9c0,30.4,23.2,53.6,53.6,53.6c12.1,0,23.5-5.9,30.2-12.4c0.5,5.9,4.9,10.1,10.8,10.1
			c7,0,11.1-4.1,11.1-11.1V52.1C749.9,45.4,745.5,41,738.8,41 M696.8,122.5c-16.5,0-29.9-13.4-29.9-29.9s13.4-29.9,29.9-29.9
			s29.9,13.4,29.9,29.9C726.7,109.3,713.3,122.5,696.8,122.5 M359.4,1.4c-7,0-11.1,4.4-11.1,11.1v38.1c-7-7.5-17.5-11.9-29.9-11.9
			c-28.6,0-53.6,25.3-53.6,53.9s25,53.6,53.6,53.6c12.6,0,24.5-6.4,30.9-12.9c1.3,7,5.4,10.8,12.1,10.8c5.4,0,9.3-4.1,9.3-10.1V12.2
			C370.8,5.7,366.1,1.4,359.4,1.4 M318.5,122.5c-16.5,0-29.9-13.4-29.9-29.9s13.4-29.9,29.9-29.9s29.9,13.4,29.9,29.9
			C348.1,109.3,335,122.5,318.5,122.5 M522.1,41c-7.2,0-10.8,3.4-11.9,10.8c-6.7-6.7-18.3-13.1-30.9-13.1c-28.6,0-53.6,25-53.6,53.9
			c0,28.6,25,53.9,53.6,53.9c12.9,0,23.2-4.1,29.6-11.3c-0.8,21.6-11.1,32.2-32,32.2c-7,0-11.1,4.4-11.1,11.1
			c0,7.2,4.4,11.1,11.9,11.1c39.7,0,53.6-28.9,53.6-53.6V51C531.6,45.4,527.7,41,522.1,41 M479,122.5c-16.5,0-29.9-13.4-29.9-29.9
			s13.4-29.9,29.9-29.9s29.9,13.4,29.9,29.9C508.6,109.3,495.5,122.5,479,122.5 M976.9,40.5c-6.2,0-11.1,4.6-11.1,11.1l-0.3,82
			c0,6.7,4.6,11.1,11.1,11.1c7,0,11.1-4.1,11.1-11.1l0.3-82C988,44.9,983.6,40.5,976.9,40.5 M399.4,40c-6.2,0-11.1,4.6-11.1,11.1v82
			c0,6.7,4.6,11.1,11.1,11.1c7,0,11.1-4.1,11.1-11.1v-82C410.7,44.4,406.1,40,399.4,40 M562.3,40.3c-6.2,0-11.1,4.6-11.1,11.1V133
			c0,6.7,4.6,11.1,11.1,11.1c7,0,11.1-4.1,11.1-11.1V51.3C573.3,44.6,569,40.3,562.3,40.3 M631.1,122.5c-7.2-0.5-11.9-2.6-11.9-11.1
			V64.2h5.7c6.2,0,11.1-4.6,11.1-11.1c0-7-4.4-11.1-11.1-11.1h-5.7V12.4c0-7-4.1-11.1-11.1-11.1C601.7,1.4,597,6,597,12.4v29.9
			c-5.4,0.8-8.5,4.9-8.5,10.8c0,5.7,3.6,10.1,8.5,10.8v47.4c0,20.6,11.1,32.5,30.4,32.5c8,0,12.9-3.9,12.9-10.3
			C640.3,127.1,636.7,123,631.1,122.5 M782.1,1.4c-6.5,0-11.1,4.6-11.1,11V133c0,6.7,4.6,11.1,11.1,11.1c7,0,11.1-4.1,11.1-11.1
			V12.4C793.4,5.5,789,1.4,782.1,1.4 M847,111.4c-0.3-0.5-0.8-1-1.3-1.5c-1-1.3-2.1-2.3-3.6-3.4c-0.5-0.3-0.8-0.8-1.3-0.8
			c-2.3-1.5-4.9-2.6-8-3.1c-1.3-0.3-2.3-0.3-3.6-0.3c-3.6,0-7,0.8-10.1,2.6c-0.5,0.3-1.3,0.8-1.8,1c-5.7,3.6-9.3,10.1-9.3,17.3
			c0,7.2,3.6,13.7,9.3,17.3c0.5,0.3,1,0.8,1.8,1c3.1,1.5,6.2,2.6,10.1,2.6c5.2,0,9.5-1.8,13.4-4.6c1-0.8,1.8-1.8,2.8-2.8
			c0.3-0.5,0.8-1,1.3-1.5c0.8-1,1.3-2.3,1.8-3.6c1-2.6,1.5-5.2,1.5-8.2s-0.5-5.7-1.5-8.2C848.3,113.7,847.5,112.7,847,111.4"/>
		<path class="st1" d="M716.6,87.9c0.3,1.3,0.5,3.1,0.5,4.6c0,0.8,0,1.8-0.3,2.6c-0.3,0.8-0.3,1.8-0.5,2.6c-0.3,1.5-1,3.1-1.8,4.6
			c-3.6,6.2-10.1,10.6-17.8,10.6c-11.1,0-20.4-9-20.4-20.6c0-1.3,0.3-2.8,0.3-4.1c1.3-6.7,5.9-12.1,12.1-14.7c2.6-1,5.2-1.5,8-1.5
			s5.4,0.5,8,1.5c4.6,1.8,8.2,5.4,10.3,10.1C715.8,85.1,716.4,86.7,716.6,87.9 M318.5,72.2c-11.1,0-20.4,9-20.4,20.6
			s9,20.6,20.4,20.6c11.1,0,20.4-9,20.4-20.6S329.5,72.2,318.5,72.2 M901.9,73.8c-0.5-0.3-1.3-0.5-1.8-0.8c-0.8-0.3-1.8-0.5-3.1-0.8
			s-2.1-0.3-3.1-0.3c-2.1,0-4.1,0.3-6.2,0.8c-0.8,0.3-1.3,0.3-1.8,0.8c-6.2,2.6-10.6,8-12.1,14.7c-0.3,1.3-0.3,2.6-0.3,4.1
			c0,5.7,2.3,10.6,5.9,14.4c0.8,0.8,1.8,1.8,3.1,2.6c1.5,1,3.6,1.8,5.2,2.6c1.8,0.5,4.1,0.8,6.2,0.8c1,0,2.1,0,3.1-0.3
			s1.8-0.3,3.1-0.8c1.8-0.5,3.6-1.3,5.2-2.6c1-0.8,2.1-1.5,3.1-2.6c3.6-3.6,5.9-8.8,5.9-14.4c0-1.3-0.3-2.8-0.3-4.1
			C912.5,82,908.1,76.6,901.9,73.8 M486.7,73.8c-2.6-1-5.2-1.5-8-1.5s-5.4,0.5-8,1.5c-6.2,2.6-10.6,8-12.1,14.7
			c-0.3,1.3-0.3,2.6-0.3,4.1c0,11.1,9,20.6,20.4,20.6c11.1,0,20.4-9,20.4-20.6c0-1.3-0.3-2.8-0.3-4.1
			C497.6,82,492.9,76.6,486.7,73.8"/>
		<g class="st2">
			<path class="st0" d="M611.5,160.8c0,0.8-0.2,1.5-0.5,2.2c-0.3,0.7-0.8,1.3-1.3,1.8c-0.5,0.5-1.2,1-1.9,1.3
				c-0.7,0.3-1.5,0.5-2.3,0.5s-1.5-0.2-2.2-0.5s-1.3-0.7-1.8-1.3c-0.5-0.5-1-1.2-1.3-1.8c-0.3-0.7-0.5-1.4-0.5-2.2s0.2-1.6,0.5-2.3
				c0.3-0.7,0.7-1.3,1.3-1.9c0.5-0.5,1.2-1,1.8-1.3s1.4-0.5,2.2-0.5s1.5,0.2,2.3,0.5c0.7,0.3,1.3,0.7,1.9,1.3c0.5,0.5,1,1.2,1.3,1.9
				C611.3,159.3,611.5,160,611.5,160.8z M609.6,175.5v46.6h-8.2v-46.6H609.6z"/>
			<path class="st0" d="M656.9,222.1c-1.2,0-1.9-0.6-2.2-1.7l-0.7-5.7c-2,2.4-4.3,4.4-6.8,5.8c-2.6,1.5-5.5,2.2-8.8,2.2
				c-2.7,0-5.1-0.5-7.3-1.5s-4-2.5-5.6-4.5c-1.5-2-2.7-4.5-3.5-7.5c-0.8-3-1.2-6.4-1.2-10.3c0-3.4,0.5-6.6,1.4-9.6
				c0.9-3,2.2-5.5,4-7.7c1.7-2.2,3.8-3.9,6.3-5.1s5.3-1.9,8.5-1.9c2.9,0,5.3,0.5,7.3,1.4c2,1,3.8,2.3,5.4,4.1v-25.9h8.2v67.8H656.9z
				 M641,216.1c2.7,0,5-0.6,7-1.8c2-1.2,3.9-3,5.5-5.2v-22.5c-1.5-2-3.2-3.4-4.9-4.3c-1.8-0.8-3.8-1.2-6-1.2c-4.4,0-7.7,1.5-10,4.6
				c-2.3,3.1-3.5,7.5-3.5,13.3c0,3,0.3,5.6,0.8,7.8c0.5,2.2,1.3,3.9,2.3,5.3c1,1.4,2.3,2.4,3.7,3.1
				C637.4,215.8,639.1,216.1,641,216.1z"/>
			<path class="st0" d="M694,174.7c2.8,0,5.4,0.5,7.7,1.4c2.4,0.9,4.4,2.3,6.1,4c1.7,1.8,3.1,3.9,4,6.5s1.4,5.5,1.4,8.9
				c0,1.3-0.1,2.1-0.4,2.6c-0.3,0.4-0.8,0.6-1.6,0.6h-31c0.1,2.9,0.5,5.5,1.2,7.7c0.7,2.2,1.7,4,3,5.5s2.8,2.5,4.6,3.3
				c1.8,0.7,3.8,1.1,6,1.1c2.1,0,3.8-0.2,5.3-0.7c1.5-0.5,2.8-1,3.8-1.5c1.1-0.6,2-1.1,2.7-1.5c0.7-0.5,1.3-0.7,1.9-0.7
				c0.7,0,1.2,0.3,1.6,0.8l2.3,3c-1,1.2-2.2,2.3-3.6,3.2c-1.4,0.9-2.9,1.6-4.5,2.2c-1.6,0.6-3.3,1-5,1.3s-3.4,0.4-5.1,0.4
				c-3.2,0-6.2-0.5-8.9-1.6s-5.1-2.7-7-4.8c-2-2.1-3.5-4.7-4.6-7.8s-1.7-6.7-1.7-10.7c0-3.3,0.5-6.3,1.5-9.1c1-2.8,2.4-5.3,4.3-7.3
				c1.9-2.1,4.2-3.7,6.9-4.9S690.6,174.7,694,174.7z M694.2,180.7c-4,0-7.1,1.1-9.3,3.4c-2.3,2.3-3.7,5.5-4.2,9.5H706
				c0-1.9-0.3-3.6-0.8-5.2c-0.5-1.6-1.3-2.9-2.3-4.1c-1-1.2-2.2-2-3.7-2.7C697.7,181.1,696,180.7,694.2,180.7z"/>
			<path class="st0" d="M758,222.1h-3.6c-0.8,0-1.4-0.1-1.9-0.4c-0.5-0.2-0.8-0.8-1-1.6l-0.9-4.3c-1.2,1.1-2.4,2.1-3.6,3
				c-1.2,0.9-2.4,1.6-3.7,2.2c-1.3,0.6-2.7,1.1-4.1,1.4c-1.5,0.3-3.1,0.5-4.9,0.5c-1.8,0-3.5-0.3-5.1-0.8c-1.6-0.5-3-1.3-4.1-2.3
				s-2.1-2.3-2.8-3.9c-0.7-1.6-1-3.4-1-5.5c0-1.8,0.5-3.6,1.5-5.3c1-1.7,2.6-3.2,4.9-4.5c2.3-1.3,5.2-2.4,8.9-3.3s8.1-1.3,13.4-1.3
				v-3.7c0-3.6-0.8-6.4-2.3-8.3c-1.5-1.9-3.8-2.8-6.9-2.8c-2,0-3.7,0.3-5,0.8c-1.4,0.5-2.5,1.1-3.5,1.7c-1,0.6-1.9,1.2-2.6,1.7
				c-0.7,0.5-1.4,0.8-2.1,0.8c-0.6,0-1-0.1-1.4-0.4c-0.4-0.3-0.7-0.7-1-1.1l-1.5-2.6c2.6-2.5,5.4-4.3,8.3-5.6c3-1.2,6.3-1.8,9.9-1.8
				c2.6,0,4.9,0.4,6.9,1.3c2,0.9,3.7,2.1,5.1,3.6c1.4,1.5,2.4,3.4,3.1,5.6c0.7,2.2,1.1,4.6,1.1,7.2V222.1z M736.7,217
				c1.4,0,2.8-0.1,4-0.4s2.3-0.7,3.4-1.2c1.1-0.5,2.1-1.2,3-2c1-0.8,1.9-1.6,2.8-2.6v-9.6c-3.8,0-7,0.2-9.6,0.7
				c-2.6,0.5-4.8,1.1-6.4,1.9c-1.7,0.8-2.9,1.7-3.6,2.7c-0.8,1-1.1,2.2-1.1,3.5c0,1.2,0.2,2.3,0.6,3.2c0.4,0.9,0.9,1.6,1.6,2.2
				c0.7,0.6,1.5,1,2.4,1.2S735.7,217,736.7,217z"/>
			<path class="st0" d="M797.1,183.1c-0.4,0.7-0.9,1-1.7,1c-0.5,0-1-0.2-1.6-0.5c-0.6-0.3-1.3-0.7-2.1-1.1s-1.8-0.8-3-1.2
				c-1.2-0.4-2.5-0.5-4.1-0.5c-1.4,0-2.6,0.2-3.7,0.5c-1.1,0.4-2,0.8-2.8,1.4c-0.8,0.6-1.4,1.3-1.8,2.1c-0.4,0.8-0.6,1.7-0.6,2.6
				c0,1.2,0.3,2.2,1,3c0.7,0.8,1.6,1.5,2.7,2.1c1.1,0.6,2.4,1.1,3.9,1.5c1.4,0.4,2.9,0.9,4.4,1.4c1.5,0.5,3,1.1,4.4,1.7
				c1.4,0.6,2.7,1.4,3.9,2.3c1.1,0.9,2,2,2.7,3.4s1,2.9,1,4.8c0,2.1-0.4,4.1-1.2,6c-0.8,1.8-1.9,3.4-3.4,4.7
				c-1.5,1.3-3.3,2.4-5.5,3.2c-2.2,0.8-4.7,1.2-7.5,1.2c-3.3,0-6.2-0.5-8.8-1.6c-2.6-1.1-4.9-2.4-6.7-4.1l1.9-3.1
				c0.2-0.4,0.5-0.7,0.9-0.9c0.3-0.2,0.8-0.3,1.3-0.3c0.6,0,1.1,0.2,1.7,0.6c0.6,0.4,1.4,0.9,2.2,1.4s1.9,1,3.2,1.4
				c1.2,0.4,2.8,0.6,4.7,0.6c1.6,0,3-0.2,4.2-0.6s2.2-1,3-1.7c0.8-0.7,1.4-1.5,1.8-2.4c0.4-0.9,0.6-1.9,0.6-2.9c0-1.3-0.3-2.4-1-3.2
				c-0.7-0.8-1.6-1.6-2.7-2.2c-1.1-0.6-2.4-1.1-3.9-1.6c-1.5-0.4-2.9-0.9-4.5-1.4c-1.5-0.5-3-1-4.5-1.7s-2.8-1.4-3.9-2.4
				c-1.1-1-2-2.1-2.7-3.5c-0.7-1.4-1-3.1-1-5.1c0-1.8,0.4-3.5,1.1-5.1s1.8-3.1,3.2-4.3c1.4-1.2,3.1-2.2,5.2-3c2.1-0.7,4.4-1.1,7-1.1
				c3.1,0,5.8,0.5,8.3,1.4c2.4,1,4.5,2.3,6.3,4L797.1,183.1z"/>
			<path class="st0" d="M810.4,237.8v-62.4h4.9c1.2,0,1.9,0.6,2.2,1.7l0.7,5.5c2-2.4,4.3-4.4,6.8-5.8c2.6-1.5,5.5-2.2,8.9-2.2
				c2.7,0,5.1,0.5,7.3,1.5c2.2,1,4,2.5,5.6,4.6s2.7,4.5,3.5,7.5c0.8,3,1.2,6.4,1.2,10.3c0,3.4-0.5,6.6-1.4,9.6c-0.9,3-2.2,5.5-4,7.7
				c-1.7,2.2-3.8,3.9-6.3,5.1c-2.5,1.2-5.3,1.9-8.4,1.9c-2.9,0-5.3-0.5-7.4-1.4s-3.8-2.3-5.4-4v20.6H810.4z M831.1,181.2
				c-2.7,0-5,0.6-7,1.8c-2,1.2-3.9,3-5.5,5.2v22.5c1.5,2,3.2,3.5,4.9,4.3c1.8,0.8,3.8,1.2,6,1.2c4.3,0,7.7-1.5,10-4.6
				s3.5-7.5,3.5-13.3c0-3-0.3-5.6-0.8-7.8c-0.5-2.2-1.3-4-2.3-5.4c-1-1.4-2.3-2.4-3.7-3.1C834.6,181.6,833,181.2,831.1,181.2z"/>
			<path class="st0" d="M895.4,222.1h-3.6c-0.8,0-1.4-0.1-1.9-0.4c-0.5-0.2-0.8-0.8-1-1.6l-0.9-4.3c-1.2,1.1-2.4,2.1-3.6,3
				s-2.4,1.6-3.7,2.2c-1.3,0.6-2.7,1.1-4.1,1.4c-1.5,0.3-3.1,0.5-4.9,0.5c-1.8,0-3.5-0.3-5.1-0.8c-1.6-0.5-3-1.3-4.1-2.3
				c-1.2-1-2.1-2.3-2.8-3.9c-0.7-1.6-1-3.4-1-5.5c0-1.8,0.5-3.6,1.5-5.3c1-1.7,2.6-3.2,4.9-4.5c2.3-1.3,5.2-2.4,8.9-3.3
				c3.6-0.8,8.1-1.3,13.4-1.3v-3.7c0-3.6-0.8-6.4-2.3-8.3c-1.5-1.9-3.8-2.8-6.9-2.8c-2,0-3.7,0.3-5,0.8c-1.4,0.5-2.5,1.1-3.5,1.7
				c-1,0.6-1.9,1.2-2.6,1.7c-0.7,0.5-1.4,0.8-2.1,0.8c-0.6,0-1-0.1-1.5-0.4c-0.4-0.3-0.7-0.7-1-1.1l-1.5-2.6
				c2.6-2.5,5.4-4.3,8.3-5.6c3-1.2,6.3-1.8,9.9-1.8c2.6,0,4.9,0.4,6.9,1.3c2,0.9,3.7,2.1,5.1,3.6c1.4,1.5,2.4,3.4,3.1,5.6
				c0.7,2.2,1.1,4.6,1.1,7.2V222.1z M874.1,217c1.4,0,2.8-0.1,4-0.4s2.3-0.7,3.4-1.2c1.1-0.5,2.1-1.2,3-2c1-0.8,1.9-1.6,2.8-2.6
				v-9.6c-3.8,0-7,0.2-9.6,0.7c-2.6,0.5-4.8,1.1-6.4,1.9c-1.7,0.8-2.9,1.7-3.6,2.7c-0.8,1-1.1,2.2-1.1,3.5c0,1.2,0.2,2.3,0.6,3.2
				s0.9,1.6,1.6,2.2c0.7,0.6,1.5,1,2.4,1.2C872.1,216.9,873,217,874.1,217z"/>
			<path class="st0" d="M939.6,183.7c-0.2,0.3-0.5,0.6-0.7,0.8c-0.2,0.2-0.6,0.3-1.1,0.3c-0.5,0-1-0.2-1.5-0.6
				c-0.5-0.4-1.2-0.8-2-1.3c-0.8-0.5-1.8-0.9-3-1.3c-1.2-0.4-2.6-0.6-4.3-0.6c-2.3,0-4.3,0.4-6,1.2c-1.7,0.8-3.2,2-4.4,3.5
				c-1.2,1.5-2.1,3.4-2.7,5.6c-0.6,2.2-0.9,4.6-0.9,7.3c0,2.8,0.3,5.3,1,7.5c0.6,2.2,1.5,4,2.7,5.5c1.2,1.5,2.6,2.6,4.3,3.4
				s3.5,1.2,5.6,1.2c2,0,3.6-0.2,4.9-0.7c1.3-0.5,2.4-1,3.2-1.6s1.6-1.1,2.1-1.6c0.6-0.5,1.1-0.7,1.7-0.7c0.7,0,1.2,0.3,1.6,0.8
				l2.3,3c-2,2.5-4.6,4.3-7.6,5.5c-3,1.2-6.2,1.7-9.6,1.7c-2.9,0-5.6-0.5-8.1-1.6c-2.5-1.1-4.7-2.6-6.5-4.7c-1.8-2-3.3-4.5-4.3-7.5
				c-1.1-3-1.6-6.4-1.6-10.2c0-3.5,0.5-6.7,1.4-9.6c1-2.9,2.4-5.5,4.2-7.6c1.9-2.1,4.1-3.8,6.9-5c2.7-1.2,5.9-1.8,9.4-1.8
				c3.3,0,6.1,0.5,8.7,1.6c2.5,1.1,4.7,2.6,6.7,4.5L939.6,183.7z"/>
			<path class="st0" d="M969.2,174.7c2.8,0,5.4,0.5,7.7,1.4c2.4,0.9,4.4,2.3,6.1,4c1.7,1.8,3.1,3.9,4,6.5s1.4,5.5,1.4,8.9
				c0,1.3-0.1,2.1-0.4,2.6c-0.3,0.4-0.8,0.6-1.6,0.6h-31c0.1,2.9,0.5,5.5,1.2,7.7c0.7,2.2,1.7,4,3,5.5s2.8,2.5,4.6,3.3
				c1.8,0.7,3.8,1.1,6,1.1c2.1,0,3.8-0.2,5.3-0.7c1.5-0.5,2.8-1,3.8-1.5c1.1-0.6,2-1.1,2.7-1.5c0.7-0.5,1.3-0.7,1.9-0.7
				c0.7,0,1.2,0.3,1.6,0.8l2.3,3c-1,1.2-2.2,2.3-3.6,3.2c-1.4,0.9-2.9,1.6-4.5,2.2c-1.6,0.6-3.3,1-5,1.3s-3.4,0.4-5.1,0.4
				c-3.2,0-6.2-0.5-8.9-1.6s-5.1-2.7-7-4.8c-2-2.1-3.5-4.7-4.6-7.8s-1.7-6.7-1.7-10.7c0-3.3,0.5-6.3,1.5-9.1c1-2.8,2.4-5.3,4.3-7.3
				c1.9-2.1,4.2-3.7,6.9-4.9S965.9,174.7,969.2,174.7z M969.4,180.7c-4,0-7.1,1.1-9.3,3.4c-2.3,2.3-3.7,5.5-4.2,9.5h25.4
				c0-1.9-0.3-3.6-0.8-5.2c-0.5-1.6-1.3-2.9-2.3-4.1c-1-1.2-2.2-2-3.7-2.7C972.9,181.1,971.3,180.7,969.4,180.7z"/>
		</g>
	</g>
	<g>
		<path class="st1" d="M120.5,21.4c54.4,0,98.7,44.3,98.7,98.7s-44.3,98.7-98.7,98.7s-98.7-44.3-98.7-98.7S65.9,21.4,120.5,21.4
			 M120.5,1.6C55.1,1.6,2,54.6,2,120.1s53.1,118.5,118.5,118.5S239,185.5,239,120.1S186,1.6,120.5,1.6L120.5,1.6z"/>
		<g>
			<path class="st1" d="M174.9,90.2c0,8.8-2.1,17-5.9,24.5c-3.9,7.5-9.3,13.7-15.7,18.3v13.4c0,4.4-2.3,6.7-7,7l-49.2,3.9h-0.5
				c-2.1,0-3.9-0.5-5.2-1.8c-1.8-1.8-2.6-3.4-2.6-5.2V133c-14.4-9.8-21.6-24.2-21.6-42.8c0-14.9,5.4-27.8,16-38.4s23.2-16,37.9-16
				s27.1,5.4,37.9,16C169.3,62.4,174.7,75.3,174.9,90.2z M160,90.2c0-11.1-3.9-20.6-11.6-28.3c-7.7-7.7-17-11.6-27.6-11.6
				c-10.8,0-19.8,3.9-27.6,11.6S81.6,79.1,81.6,90.2c0,14.7,5.9,25.5,18,32.5c2.1,1.3,3.1,3.4,3.1,6.2v13.9l36.1-2.8v-10.8
				c0-2.8,1.3-4.9,3.6-6.2C154,116.2,160,105.4,160,90.2z M149.9,163.9c-1.3-1.3-3.1-1.8-5.4-1.5l-49,3.6c-1.8,0.3-3.6,1-4.9,2.6
				c-1.3,1.5-2.1,3.1-1.8,5.2c0.5,4.4,3.1,6.7,7.5,6.7h0.3l49-3.9c2.1-0.3,3.9-1,5.2-2.3s1.8-3.1,1.5-5.4
				C152,166.7,151.2,165.2,149.9,163.9z M134.2,186.3c-1.5-1.3-3.1-1.8-5.2-1.5l-17.8,1.3c-1.8,0.5-3.6,1.3-4.9,2.8
				c-1.3,1.3-2.1,3.1-1.8,4.9c0.8,4.4,3.4,6.7,7.5,6.7h0.3l17.8-1.3c1.8-0.5,3.6-1.3,4.9-2.8c1.3-1.3,2.1-3.1,1.8-4.9
				C136.5,189.4,135.7,187.6,134.2,186.3z M144.5,72.2c-3.9-4.6-8-8-12.4-9.5c-1.8-0.5-3.4-0.3-4.9,0.5c-1.5,0.8-2.6,1.8-2.8,3.4
				c-1.5,3.9-0.3,6.4,3.6,8c0.8,0.3,1.8,0.8,3.1,1.5c1.3,0.8,2.6,2.6,4.1,4.9c1.3,2.3,2.1,5.2,1.8,8c-0.3,1.8,0.3,3.1,1.5,4.4
				s2.6,2.1,4.1,2.3h0.5c3.6,0,5.7-1.8,6.2-5.7C149.7,82.7,148.1,76.8,144.5,72.2z"/>
		</g>
	</g>
</g>
</svg>
