<?xml version="1.0" encoding="utf-8"?>
<!-- Generator: Adobe Illustrator 24.1.0, SVG Export Plug-In . SVG Version: 6.00 Build 0)  -->
<svg version="1.1" id="Layer_1" xmlns="http://www.w3.org/2000/svg" xmlns:xlink="http://www.w3.org/1999/xlink" x="0px" y="0px"
	 viewBox="0 0 1024 240" style="enable-background:new 0 0 1024 240;" xml:space="preserve">
<style type="text/css">
	.st0{fill:#FFFFFF;}
	.st1{fill:#79B522;}
	.st2{enable-background:new    ;}
</style>
<g>
	<g>
		<path class="st0" d="M998.4,43.8h-3.6v-2.1h9.5v2.1h-3.6v11.3h-2.1L998.4,43.8L998.4,43.8z M1006.1,41.7h3.4l3.1,9.5l0,0l3.1-9.5
			h3.4v13.4h-2.1V44.3l0,0l-3.6,10.8h-1.5l-3.6-10.8l0,0v10.8h-2.1V41.7H1006.1z M932.2,41.2c-5.7,0-10.1,3.9-10.8,9.3
			c-7.5-7.5-18-11.6-30.2-11.6c-30.2,0-53.6,23.7-53.6,53.9c0,0.8,0,1.3,0,2.1c11.3,4.4,19.3,15.5,19.3,28.3c0,3.6-0.5,7-1.8,10.1
			c9.5,8.2,21.9,13.1,35.8,13.1c12.1,0,23.5-5.9,30.2-12.4c0.5,5.9,4.9,10.1,10.8,10.1c7,0,11.1-4.1,11.1-11.1V52.3
			C943.2,45.6,938.9,41.2,932.2,41.2 M890.9,122.7c-16.5,0-29.9-13.4-29.9-29.9s13.4-29.9,29.9-29.9s29.9,13.4,29.9,29.9
			C920.8,109.5,907.4,122.7,890.9,122.7 M735.8,41.2c-5.7,0-10.1,3.9-10.8,9.3c-7.5-7.5-18-11.6-30.2-11.6
			c-30.2,0-53.6,23.7-53.6,53.9c0,30.4,23.2,53.6,53.6,53.6c12.1,0,23.5-5.9,30.2-12.4c0.5,5.9,4.9,10.1,10.8,10.1
			c7,0,11.1-4.1,11.1-11.1V52.3C746.9,45.6,742.5,41.2,735.8,41.2 M693.8,122.7c-16.5,0-29.9-13.4-29.9-29.9s13.4-29.9,29.9-29.9
			s29.9,13.4,29.9,29.9C723.7,109.5,710.3,122.7,693.8,122.7 M356.4,1.5c-7,0-11.1,4.4-11.1,11.1v38.1c-7-7.5-17.5-11.9-29.9-11.9
			c-28.6,0-53.6,25.3-53.6,53.9s25,53.6,53.6,53.6c12.6,0,24.5-6.4,30.9-12.9c1.3,7,5.4,10.8,12.1,10.8c5.4,0,9.3-4.1,9.3-10.1V12.4
			C367.8,5.9,363.1,1.5,356.4,1.5 M315.5,122.7c-16.5,0-29.9-13.4-29.9-29.9s13.4-29.9,29.9-29.9s29.9,13.4,29.9,29.9
			C345.1,109.5,332,122.7,315.5,122.7 M519.1,41.2c-7.2,0-10.8,3.4-11.9,10.8c-6.7-6.7-18.3-13.1-30.9-13.1
			c-28.6,0-53.6,25-53.6,53.9c0,28.6,25,53.9,53.6,53.9c12.9,0,23.2-4.1,29.6-11.3c-0.8,21.6-11.1,32.2-32,32.2
			c-7,0-11.1,4.4-11.1,11.1c0,7.2,4.4,11.1,11.9,11.1c39.7,0,53.6-28.9,53.6-53.6V51C528.6,45.6,524.7,41.2,519.1,41.2 M476,122.7
			c-16.5,0-29.9-13.4-29.9-29.9s13.4-29.9,29.9-29.9s29.9,13.4,29.9,29.9C505.6,109.5,492.5,122.7,476,122.7 M973.9,40.7
			c-6.2,0-11.1,4.6-11.1,11.1l-0.3,82c0,6.7,4.6,11.1,11.1,11.1c7,0,11.1-4.1,11.1-11.1l0.3-82C985,45.1,980.6,40.7,973.9,40.7
			 M396.4,40.2c-6.2,0-11.1,4.6-11.1,11.1v82c0,6.7,4.6,11.1,11.1,11.1c7,0,11.1-4.1,11.1-11.1v-82
			C407.7,44.6,403.1,40.2,396.4,40.2 M559.3,40.5c-6.2,0-11.1,4.6-11.1,11.1v81.7c0,6.7,4.6,11.1,11.1,11.1c7,0,11.1-4.1,11.1-11.1
			V51.5C570.3,44.8,566,40.5,559.3,40.5 M628.1,122.7c-7.2-0.5-11.9-2.6-11.9-11.1V64.4h5.7c6.2,0,11.1-4.6,11.1-11.1
			c0-7-4.4-11.1-11.1-11.1h-5.7V12.6c0-7-4.1-11.1-11.1-11.1c-6.4,0-11.1,4.6-11.1,11.1v29.9c-5.4,0.8-8.5,4.9-8.5,10.8
			c0,5.7,3.6,10.1,8.5,10.8v47.4c0,20.6,11.1,32.5,30.4,32.5c8,0,12.9-3.9,12.9-10.3C637.3,127.3,633.7,123.2,628.1,122.7
			 M779.1,1.5c-6.4,0-11.1,4.6-11.1,11.1v120.6c0,6.7,4.6,11.1,11.1,11.1c7,0,11.1-4.1,11.1-11.1V12.6C790.4,5.7,786,1.5,779.1,1.5
			 M844,111.6c-0.3-0.5-0.8-1-1.3-1.5c-1-1.3-2.1-2.3-3.6-3.4c-0.5-0.3-0.8-0.8-1.3-0.8c-2.3-1.5-4.9-2.6-8-3.1
			c-1.3-0.3-2.3-0.3-3.6-0.3c-3.6,0-7,0.8-10.1,2.6c-0.5,0.3-1.3,0.8-1.8,1c-5.7,3.6-9.3,10.1-9.3,17.3c0,7.2,3.6,13.7,9.3,17.3
			c0.5,0.3,1,0.8,1.8,1c3.1,1.5,6.2,2.6,10.1,2.6c5.2,0,9.5-1.8,13.4-4.6c1-0.8,1.8-1.8,2.8-2.8c0.3-0.5,0.8-1,1.3-1.5
			c0.8-1,1.3-2.3,1.8-3.6c1-2.6,1.5-5.2,1.5-8.2c0-3.1-0.5-5.7-1.5-8.2C845.3,113.9,844.5,112.9,844,111.6"/>
		<path class="st1" d="M713.6,88.1c0.3,1.3,0.5,3.1,0.5,4.6c0,0.8,0,1.8-0.3,2.6c-0.3,0.8-0.3,1.8-0.5,2.6c-0.3,1.5-1,3.1-1.8,4.6
			c-3.6,6.2-10.1,10.6-17.8,10.6c-11.1,0-20.4-9-20.4-20.6c0-1.3,0.3-2.8,0.3-4.1c1.3-6.7,5.9-12.1,12.1-14.7c2.6-1,5.2-1.5,8-1.5
			s5.4,0.5,8,1.5c4.6,1.8,8.2,5.4,10.3,10.1C712.8,85.3,713.4,86.8,713.6,88.1 M315.5,72.4c-11.1,0-20.4,9-20.4,20.6
			s9,20.6,20.4,20.6c11.1,0,20.4-9,20.4-20.6S326.5,72.4,315.5,72.4 M898.9,74c-0.5-0.3-1.3-0.5-1.8-0.8c-0.8-0.3-1.8-0.5-3.1-0.8
			s-2.1-0.3-3.1-0.3c-2.1,0-4.1,0.3-6.2,0.8c-0.8,0.3-1.3,0.3-1.8,0.8c-6.2,2.6-10.6,8-12.1,14.7c-0.3,1.3-0.3,2.6-0.3,4.1
			c0,5.7,2.3,10.6,5.9,14.4c0.8,0.8,1.8,1.8,3.1,2.6c1.5,1,3.6,1.8,5.2,2.6c1.8,0.5,4.1,0.8,6.2,0.8c1,0,2.1,0,3.1-0.3
			s1.8-0.3,3.1-0.8c1.8-0.5,3.6-1.3,5.2-2.6c1-0.8,2.1-1.5,3.1-2.6c3.6-3.6,5.9-8.8,5.9-14.4c0-1.3-0.3-2.8-0.3-4.1
			C909.5,82.2,905.1,76.8,898.9,74 M483.7,74c-2.6-1-5.2-1.5-8-1.5s-5.4,0.5-8,1.5c-6.2,2.6-10.6,8-12.1,14.7
			c-0.3,1.3-0.3,2.6-0.3,4.1c0,11.1,9,20.6,20.4,20.6c11.1,0,20.4-9,20.4-20.6c0-1.3-0.3-2.8-0.3-4.1
			C494.6,82.2,489.9,76.8,483.7,74"/>
		<g class="st2">
			<path class="st0" d="M789.2,160.4c0,0.8-0.2,1.5-0.5,2.2c-0.3,0.7-0.8,1.3-1.3,1.8c-0.5,0.5-1.2,1-1.9,1.3
				c-0.7,0.3-1.5,0.5-2.3,0.5s-1.5-0.2-2.2-0.5s-1.3-0.7-1.8-1.3c-0.5-0.5-1-1.2-1.3-1.8c-0.3-0.7-0.5-1.4-0.5-2.2s0.2-1.6,0.5-2.3
				c0.3-0.7,0.7-1.3,1.3-1.9c0.5-0.5,1.2-1,1.8-1.3s1.4-0.5,2.2-0.5s1.5,0.2,2.3,0.5c0.7,0.3,1.3,0.7,1.9,1.3c0.5,0.5,1,1.2,1.3,1.9
				C789,158.9,789.2,159.6,789.2,160.4z M787.4,175.1v46.6h-8.2v-46.6H787.4z"/>
			<path class="st0" d="M834.6,221.7c-1.2,0-1.9-0.6-2.2-1.7l-0.7-5.7c-2,2.4-4.3,4.4-6.8,5.8c-2.6,1.5-5.5,2.2-8.8,2.2
				c-2.7,0-5.1-0.5-7.3-1.5s-4-2.5-5.6-4.5c-1.5-2-2.7-4.5-3.5-7.5c-0.8-3-1.2-6.4-1.2-10.3c0-3.4,0.5-6.6,1.4-9.6
				c0.9-3,2.2-5.5,4-7.7c1.7-2.2,3.8-3.9,6.3-5.1s5.3-1.9,8.5-1.9c2.9,0,5.3,0.5,7.3,1.4c2,1,3.8,2.3,5.4,4.1v-25.9h8.2v67.8H834.6z
				 M818.7,215.7c2.7,0,5-0.6,7-1.8c2-1.2,3.9-3,5.5-5.2v-22.5c-1.5-2-3.2-3.4-4.9-4.3c-1.8-0.8-3.8-1.2-6-1.2
				c-4.4,0-7.7,1.5-10,4.6c-2.3,3.1-3.5,7.5-3.5,13.3c0,3,0.3,5.6,0.8,7.8c0.5,2.2,1.3,3.9,2.3,5.3c1,1.4,2.3,2.4,3.7,3.1
				C815.2,215.4,816.8,215.7,818.7,215.7z"/>
			<path class="st0" d="M871.7,174.3c2.8,0,5.4,0.5,7.7,1.4c2.4,0.9,4.4,2.3,6.1,4c1.7,1.8,3.1,3.9,4,6.5s1.4,5.5,1.4,8.9
				c0,1.3-0.1,2.1-0.4,2.6c-0.3,0.4-0.8,0.6-1.6,0.6h-31c0.1,2.9,0.5,5.5,1.2,7.7c0.7,2.2,1.7,4,3,5.5s2.8,2.5,4.6,3.3
				c1.8,0.7,3.8,1.1,6,1.1c2.1,0,3.8-0.2,5.3-0.7c1.5-0.5,2.8-1,3.8-1.5c1.1-0.6,2-1.1,2.7-1.5c0.7-0.5,1.3-0.7,1.9-0.7
				c0.7,0,1.2,0.3,1.6,0.8l2.3,3c-1,1.2-2.2,2.3-3.6,3.2c-1.4,0.9-2.9,1.6-4.5,2.2c-1.6,0.6-3.3,1-5,1.3s-3.4,0.4-5.1,0.4
				c-3.2,0-6.2-0.5-8.9-1.6s-5.1-2.7-7-4.8c-2-2.1-3.5-4.7-4.6-7.8s-1.7-6.7-1.7-10.7c0-3.3,0.5-6.3,1.5-9.1c1-2.8,2.4-5.3,4.3-7.3
				c1.9-2.1,4.2-3.7,6.9-4.9S868.3,174.3,871.7,174.3z M871.9,180.4c-4,0-7.1,1.1-9.3,3.4c-2.3,2.3-3.7,5.5-4.2,9.5h25.4
				c0-1.9-0.3-3.6-0.8-5.2c-0.5-1.6-1.3-2.9-2.3-4.1c-1-1.2-2.2-2-3.7-2.7C875.4,180.7,873.8,180.4,871.9,180.4z"/>
			<path class="st0" d="M935.7,221.7h-3.6c-0.8,0-1.4-0.1-1.9-0.4c-0.5-0.2-0.8-0.8-1-1.6l-0.9-4.3c-1.2,1.1-2.4,2.1-3.6,3
				c-1.2,0.9-2.4,1.6-3.7,2.2c-1.3,0.6-2.7,1.1-4.1,1.4c-1.5,0.3-3.1,0.5-4.9,0.5c-1.8,0-3.5-0.3-5.1-0.8c-1.6-0.5-3-1.3-4.1-2.3
				s-2.1-2.3-2.8-3.9c-0.7-1.6-1-3.4-1-5.5c0-1.8,0.5-3.6,1.5-5.3c1-1.7,2.6-3.2,4.9-4.5c2.3-1.3,5.2-2.4,8.9-3.3s8.1-1.3,13.4-1.3
				v-3.7c0-3.6-0.8-6.4-2.3-8.3c-1.5-1.9-3.8-2.8-6.9-2.8c-2,0-3.7,0.3-5,0.8c-1.4,0.5-2.5,1.1-3.5,1.7c-1,0.6-1.9,1.2-2.6,1.7
				c-0.7,0.5-1.4,0.8-2.1,0.8c-0.6,0-1-0.1-1.4-0.4c-0.4-0.3-0.7-0.7-1-1.1l-1.5-2.6c2.6-2.5,5.4-4.3,8.3-5.6c3-1.2,6.3-1.8,9.9-1.8
				c2.6,0,4.9,0.4,6.9,1.3c2,0.9,3.7,2.1,5.1,3.6c1.4,1.5,2.4,3.4,3.1,5.6c0.7,2.2,1.1,4.6,1.1,7.2V221.7z M914.4,216.7
				c1.4,0,2.8-0.1,4-0.4s2.3-0.7,3.4-1.2c1.1-0.5,2.1-1.2,3-2c1-0.8,1.9-1.6,2.8-2.6v-9.6c-3.8,0-7,0.2-9.6,0.7
				c-2.6,0.5-4.8,1.1-6.4,1.9c-1.7,0.8-2.9,1.7-3.6,2.7c-0.8,1-1.1,2.2-1.1,3.5c0,1.2,0.2,2.3,0.6,3.2c0.4,0.9,0.9,1.6,1.6,2.2
				c0.7,0.6,1.5,1,2.4,1.2S913.4,216.7,914.4,216.7z"/>
			<path class="st0" d="M974.8,182.7c-0.4,0.7-0.9,1-1.7,1c-0.5,0-1-0.2-1.6-0.5c-0.6-0.3-1.3-0.7-2.1-1.1s-1.8-0.8-3-1.2
				c-1.2-0.4-2.5-0.5-4.1-0.5c-1.4,0-2.6,0.2-3.7,0.5c-1.1,0.4-2,0.8-2.8,1.4c-0.8,0.6-1.4,1.3-1.8,2.1c-0.4,0.8-0.6,1.7-0.6,2.6
				c0,1.2,0.3,2.2,1,3c0.7,0.8,1.6,1.5,2.7,2.1c1.1,0.6,2.4,1.1,3.9,1.5c1.4,0.4,2.9,0.9,4.4,1.4c1.5,0.5,3,1.1,4.4,1.7
				c1.4,0.6,2.7,1.4,3.9,2.3c1.1,0.9,2,2,2.7,3.4s1,2.9,1,4.8c0,2.1-0.4,4.1-1.2,6c-0.8,1.8-1.9,3.4-3.4,4.7
				c-1.5,1.3-3.3,2.4-5.5,3.2c-2.2,0.8-4.7,1.2-7.5,1.2c-3.3,0-6.2-0.5-8.8-1.6c-2.6-1.1-4.9-2.4-6.7-4.1l1.9-3.1
				c0.2-0.4,0.5-0.7,0.9-0.9c0.3-0.2,0.8-0.3,1.3-0.3c0.6,0,1.1,0.2,1.7,0.6c0.6,0.4,1.4,0.9,2.2,1.4s1.9,1,3.2,1.4
				c1.2,0.4,2.8,0.6,4.7,0.6c1.6,0,3-0.2,4.2-0.6s2.2-1,3-1.7c0.8-0.7,1.4-1.5,1.8-2.4c0.4-0.9,0.6-1.9,0.6-2.9c0-1.3-0.3-2.4-1-3.2
				c-0.7-0.8-1.6-1.6-2.7-2.2c-1.1-0.6-2.4-1.1-3.9-1.6c-1.5-0.4-2.9-0.9-4.5-1.4c-1.5-0.5-3-1-4.5-1.7s-2.8-1.4-3.9-2.4
				c-1.1-1-2-2.1-2.7-3.5c-0.7-1.4-1-3.1-1-5.1c0-1.8,0.4-3.5,1.1-5.1s1.8-3.1,3.2-4.3c1.4-1.2,3.1-2.2,5.2-3c2.1-0.7,4.4-1.1,7-1.1
				c3.1,0,5.8,0.5,8.3,1.4c2.4,1,4.5,2.3,6.3,4L974.8,182.7z"/>
		</g>
	</g>
	<g>
		<path class="st1" d="M123.5,21.3c54.4,0,98.7,44.3,98.7,98.7s-44.3,98.7-98.7,98.7S24.8,174.4,24.8,120S68.9,21.3,123.5,21.3
			 M123.5,1.5C58.1,1.5,5,54.5,5,120s53.1,118.5,118.5,118.5s118.6-53,118.6-118.5S189,1.5,123.5,1.5L123.5,1.5z"/>
		<g>
			<path class="st1" d="M177.9,90.1c0,8.8-2.1,17-5.9,24.5c-3.9,7.5-9.3,13.7-15.7,18.3v13.4c0,4.4-2.3,6.7-7,7l-49.2,3.9h-0.5
				c-2.1,0-3.9-0.5-5.2-1.8c-1.8-1.8-2.6-3.4-2.6-5.2v-17.3c-14.4-9.8-21.6-24.2-21.6-42.8c0-14.9,5.4-27.8,16-38.4s23.2-16,37.9-16
				s27.1,5.4,37.9,16C172.3,62.3,177.7,75.2,177.9,90.1z M163,90.1c0-11.1-3.9-20.6-11.6-28.3c-7.7-7.7-17-11.6-27.6-11.6
				C113,50.2,104,54,96.2,61.8S84.6,79,84.6,90.1c0,14.7,5.9,25.5,18,32.5c2.1,1.3,3.1,3.4,3.1,6.2v13.9l36.1-2.8V129
				c0-2.8,1.3-4.9,3.6-6.2C157,116.1,163,105.3,163,90.1z M152.9,163.8c-1.3-1.3-3.1-1.8-5.4-1.5l-49,3.6c-1.8,0.3-3.6,1-4.9,2.6
				s-2.1,3.1-1.8,5.2c0.5,4.4,3.1,6.7,7.5,6.7h0.3l49-3.9c2.1-0.3,3.9-1,5.2-2.3s1.8-3.1,1.5-5.4C155,166.6,154.2,165.1,152.9,163.8
				z M137.2,186.2c-1.5-1.3-3.1-1.8-5.2-1.5l-17.8,1.3c-1.8,0.5-3.6,1.3-4.9,2.8c-1.3,1.3-2.1,3.1-1.8,4.9c0.8,4.4,3.4,6.7,7.5,6.7
				h0.3l17.8-1.3c1.8-0.5,3.6-1.3,4.9-2.8c1.3-1.3,2.1-3.1,1.8-4.9C139.5,189.3,138.7,187.5,137.2,186.2z M147.5,72.1
				c-3.9-4.6-8-8-12.4-9.5c-1.8-0.5-3.4-0.3-4.9,0.5s-2.6,1.8-2.8,3.4c-1.5,3.9-0.3,6.4,3.6,8c0.8,0.3,1.8,0.8,3.1,1.5
				c1.3,0.8,2.6,2.6,4.1,4.9c1.3,2.3,2.1,5.2,1.8,8c-0.3,1.8,0.3,3.1,1.5,4.4c1.3,1.3,2.6,2.1,4.1,2.3h0.5c3.6,0,5.7-1.8,6.2-5.7
				C152.7,82.6,151.1,76.7,147.5,72.1z"/>
		</g>
	</g>
</g>
</svg>
