<?xml version="1.0" encoding="utf-8"?>
<!-- Generator: Adobe Illustrator 24.1.0, SVG Export Plug-In . SVG Version: 6.00 Build 0)  -->
<svg version="1.1" id="Layer_1" xmlns="http://www.w3.org/2000/svg" xmlns:xlink="http://www.w3.org/1999/xlink" x="0px" y="0px"
	 viewBox="0 0 1024 240" style="enable-background:new 0 0 1024 240;" xml:space="preserve">
<style type="text/css">
	.st0{fill:#79B522;}
	.st1{fill:#495260;}
	.st2{enable-background:new    ;}
</style>
<g>
	<g>
		<path class="st0" d="M77.3,166.1c-11.1,0-22.2-4.1-30.7-12.6c-17-17-17-44.6,0-61.6s44.6-17,61.6,0c3.9,3.9,3.9,10.1,0,13.9
			c-3.9,3.9-10.1,3.9-13.9,0c-9.5-9.5-24.5-9.5-34,0s-9.5,24.5,0,34c9.3,9.3,24,9.5,33.5,0.3l37.1-47.2c0.3-0.3,0.5-0.5,0.8-0.8
			c17-17,44.6-17,61.6,0s17,44.6,0,61.6s-44.6,17-61.6,0c-3.9-3.9-3.9-10.1,0-13.9c3.9-3.8,10.1-3.9,13.9,0c4.6,4.6,10.6,7.2,17,7.2
			s12.4-2.6,17-7.2c9.5-9.5,9.5-24.5,0-34c-9.3-9.3-24-9.5-33.5-0.3L109,152.7c-0.3,0.3-0.5,0.5-0.8,0.8
			C99.7,162,88.3,166.1,77.3,166.1z"/>
	</g>
	<path class="st0" d="M120.5,20.8c54.6,0,99,44.3,99,99s-44.3,99-99,99s-99-44.3-99-99S65.9,20.8,120.5,20.8 M120.5,1.5
		C55.1,1.5,2,54.5,2,120s53.1,118.5,118.5,118.5s118.6-53,118.6-118.5S186,1.5,120.5,1.5L120.5,1.5z"/>
</g>
<g>
	<path class="st1" d="M1001.4,44h-3.6v-2.1h9.5V44h-3.6v11.3h-2.1L1001.4,44L1001.4,44z M1009.1,41.9h3.4l3.1,9.5l0,0l3.1-9.5h3.4
		v13.4h-2.1V44.5l0,0l-3.6,10.8h-1.5l-3.6-10.8l0,0v10.8h-2.1V41.9H1009.1z M935.2,41.1c-5.7,0-10.1,3.9-10.8,9.3
		c-7.5-7.5-18-11.6-30.2-11.6c-30.2,0-53.6,23.7-53.6,53.9c0,0.8,0,1.3,0,2.1c11.3,4.4,19.3,15.5,19.3,28.3c0,3.6-0.5,7-1.8,10.1
		c9.5,8.2,21.9,13.1,35.8,13.1c12.1,0,23.5-5.9,30.2-12.4c0.5,5.9,4.9,10.1,10.8,10.1c7,0,11.1-4.1,11.1-11.1V52.2
		C946.2,45.5,941.9,41.1,935.2,41.1 M893.9,122.6c-16.5,0-29.9-13.4-29.9-29.9s13.4-29.9,29.9-29.9s29.9,13.4,29.9,29.9
		C923.8,109.4,910.4,122.6,893.9,122.6 M738.8,41.1c-5.7,0-10.1,3.9-10.8,9.3c-7.5-7.5-18-11.6-30.2-11.6
		c-30.2,0-53.6,23.7-53.6,53.9c0,30.4,23.2,53.6,53.6,53.6c12.1,0,23.5-5.9,30.2-12.4c0.5,5.9,4.9,10.1,10.8,10.1
		c7,0,11.1-4.1,11.1-11.1V52.2C749.9,45.5,745.5,41.1,738.8,41.1 M696.8,122.6c-16.5,0-29.9-13.4-29.9-29.9s13.4-29.9,29.9-29.9
		s29.9,13.4,29.9,29.9C726.7,109.4,713.3,122.6,696.8,122.6 M359.4,1.5c-7,0-11.1,4.4-11.1,11.1v38.1c-7-7.5-17.5-11.9-29.9-11.9
		c-28.6,0-53.6,25.3-53.6,53.9s25,53.6,53.6,53.6c12.6,0,24.5-6.4,30.9-12.9c1.3,7,5.4,10.8,12.1,10.8c5.4,0,9.3-4.1,9.3-10.1V12.3
		C370.8,5.8,366.1,1.5,359.4,1.5 M318.5,122.6c-16.5,0-29.9-13.4-29.9-29.9s13.4-29.9,29.9-29.9s29.9,13.4,29.9,29.9
		C348.1,109.4,335,122.6,318.5,122.6 M522.1,41.1c-7.2,0-10.8,3.4-11.9,10.8c-6.7-6.7-18.3-13.1-30.9-13.1
		c-28.6,0-53.6,25-53.6,53.9c0,28.6,25,53.9,53.6,53.9c12.9,0,23.2-4.1,29.6-11.3c-0.8,21.6-11.1,32.2-32,32.2
		c-7,0-11.1,4.4-11.1,11.1c0,7.2,4.4,11.1,11.9,11.1c39.7,0,53.6-28.9,53.6-53.6v-85C531.6,45.5,527.7,41.1,522.1,41.1 M479,122.6
		c-16.5,0-29.9-13.4-29.9-29.9s13.4-29.9,29.9-29.9s29.9,13.4,29.9,29.9C508.6,109.4,495.5,122.6,479,122.6 M976.9,40.6
		c-6.2,0-11.1,4.6-11.1,11.1l-0.3,82c0,6.7,4.6,11.1,11.1,11.1c7,0,11.1-4.1,11.1-11.1l0.3-82C988,45,983.6,40.6,976.9,40.6
		 M399.4,40.1c-6.2,0-11.1,4.6-11.1,11.1v82c0,6.7,4.6,11.1,11.1,11.1c7,0,11.1-4.1,11.1-11.1v-82C410.7,44.5,406.1,40.1,399.4,40.1
		 M562.3,40.4c-6.2,0-11.1,4.6-11.1,11.1v81.7c0,6.7,4.6,11.1,11.1,11.1c7,0,11.1-4.1,11.1-11.1V51.5
		C573.3,44.8,569,40.4,562.3,40.4 M631.1,122.6c-7.2-0.5-11.9-2.6-11.9-11.1V64.3h5.7c6.2,0,11.1-4.6,11.1-11.1
		c0-7-4.4-11.1-11.1-11.1h-5.7V12.5c0-7-4.1-11.1-11.1-11.1C601.7,1.4,597,6,597,12.5v29.9c-5.4,0.8-8.5,4.9-8.5,10.8
		c0,5.7,3.6,10.1,8.5,10.8v47.4c0,20.6,11.1,32.5,30.4,32.5c8,0,12.9-3.9,12.9-10.3C640.3,127.2,636.7,123.1,631.1,122.6 M782.1,1.5
		c-6.4,0-11.1,4.6-11.1,11.1v120.6c0,6.7,4.6,11.1,11.1,11.1c7,0,11.1-4.1,11.1-11.1V12.5C793.4,5.8,789,1.5,782.1,1.5 M847,111.8
		c-0.3-0.5-0.8-1-1.3-1.5c-1-1.3-2.1-2.3-3.6-3.4c-0.5-0.3-0.8-0.8-1.3-0.8c-2.3-1.5-4.9-2.6-8-3.1c-1.3-0.3-2.3-0.3-3.6-0.3
		c-3.6,0-7,0.8-10.1,2.6c-0.5,0.3-1.3,0.8-1.8,1c-5.7,3.6-9.3,10.1-9.3,17.3s3.6,13.7,9.3,17.3c0.5,0.3,1,0.8,1.8,1
		c3.1,1.5,6.2,2.6,10.1,2.6c5.2,0,9.5-1.8,13.4-4.6c1-0.8,1.8-1.8,2.8-2.8c0.3-0.5,0.8-1,1.3-1.5c0.8-1,1.3-2.3,1.8-3.6
		c1-2.6,1.5-5.2,1.5-8.2s-0.5-5.7-1.5-8.2C848.3,113.8,847.5,112.8,847,111.8"/>
	<path class="st0" d="M716.6,88.3c0.3,1.3,0.5,3.1,0.5,4.6c0,0.8,0,1.8-0.3,2.6c-0.3,0.8-0.3,1.8-0.5,2.6c-0.3,1.5-1,3.1-1.8,4.6
		c-3.6,6.2-10.1,10.6-17.8,10.6c-11.1,0-20.4-9-20.4-20.6c0-1.3,0.3-2.8,0.3-4.1c1.3-6.7,5.9-12.1,12.1-14.7c2.6-1,5.2-1.5,8-1.5
		s5.4,0.5,8,1.5c4.6,1.8,8.2,5.4,10.3,10.1C715.8,85.2,716.4,86.8,716.6,88.3 M318.5,72.3c-11.1,0-20.4,9-20.4,20.6
		s9,20.6,20.4,20.6c11.1,0,20.4-9,20.4-20.6S329.5,72.3,318.5,72.3 M901.9,74.1c-0.5-0.3-1.3-0.5-1.8-0.8c-0.8-0.3-1.8-0.5-3.1-0.8
		s-2.1-0.3-3.1-0.3c-2.1,0-4.1,0.3-6.2,0.8c-0.8,0.3-1.3,0.3-1.8,0.8c-6.2,2.6-10.6,8-12.1,14.7c-0.3,1.3-0.3,2.6-0.3,4.1
		c0,5.7,2.3,10.6,5.9,14.4c0.8,0.8,1.8,1.8,3.1,2.6c1.5,1,3.6,1.8,5.2,2.6c1.8,0.5,4.1,0.8,6.2,0.8c1,0,2.1,0,3.1-0.3
		s1.8-0.3,3.1-0.8c1.8-0.5,3.6-1.3,5.2-2.6c1-0.8,2.1-1.5,3.1-2.6c3.6-3.6,5.9-8.8,5.9-14.4c0-1.3-0.3-2.8-0.3-4.1
		C912.5,82.1,908.1,76.7,901.9,74.1 M486.7,74.1c-2.6-1-5.2-1.5-8-1.5s-5.4,0.5-8,1.5c-6.2,2.6-10.6,8-12.1,14.7
		c-0.3,1.3-0.3,2.6-0.3,4.1c0,11.1,9,20.6,20.4,20.6c11.1,0,20.4-9,20.4-20.6c0-1.3-0.3-2.8-0.3-4.1
		C497.6,82.1,492.9,76.7,486.7,74.1"/>
	<g class="st2">
		<path class="st1" d="M597.7,183.3c-0.2,0.3-0.5,0.6-0.7,0.8c-0.2,0.2-0.6,0.3-1.1,0.3s-1-0.2-1.5-0.6c-0.5-0.4-1.2-0.8-2-1.3
			s-1.8-0.9-3-1.3c-1.2-0.4-2.6-0.6-4.3-0.6c-2.3,0-4.3,0.4-6,1.2s-3.2,2-4.4,3.5c-1.2,1.5-2.1,3.4-2.7,5.6
			c-0.6,2.2-0.9,4.6-0.9,7.3c0,2.8,0.3,5.3,1,7.5c0.6,2.2,1.5,4,2.7,5.5c1.2,1.5,2.6,2.6,4.3,3.4s3.6,1.2,5.6,1.2
			c2,0,3.6-0.2,4.9-0.7c1.3-0.5,2.4-1,3.2-1.6c0.9-0.6,1.6-1.1,2.1-1.6c0.6-0.5,1.1-0.7,1.7-0.7c0.7,0,1.2,0.3,1.6,0.8l2.3,3
			c-2,2.5-4.6,4.3-7.6,5.5s-6.2,1.7-9.6,1.7c-2.9,0-5.6-0.5-8.1-1.6c-2.5-1.1-4.7-2.6-6.5-4.7c-1.8-2-3.3-4.5-4.3-7.5
			s-1.6-6.4-1.6-10.2c0-3.5,0.5-6.7,1.5-9.6c1-2.9,2.4-5.5,4.2-7.6c1.9-2.1,4.1-3.8,6.9-5s5.9-1.8,9.4-1.8c3.3,0,6.1,0.5,8.7,1.6
			c2.5,1.1,4.7,2.6,6.7,4.5L597.7,183.3z"/>
		<path class="st1" d="M627.7,174.3c3.4,0,6.5,0.6,9.2,1.7c2.7,1.1,5.1,2.7,7,4.8c1.9,2.1,3.4,4.6,4.4,7.6c1,3,1.5,6.3,1.5,9.9
			c0,3.7-0.5,7-1.5,9.9c-1,2.9-2.5,5.5-4.4,7.5c-1.9,2.1-4.2,3.7-7,4.8s-5.8,1.7-9.2,1.7c-3.4,0-6.5-0.6-9.2-1.7s-5.1-2.7-7-4.8
			c-1.9-2.1-3.4-4.6-4.5-7.5c-1-2.9-1.6-6.3-1.6-9.9c0-3.7,0.5-7,1.6-9.9c1-3,2.5-5.5,4.5-7.6c1.9-2.1,4.3-3.7,7-4.8
			C621.2,174.9,624.3,174.3,627.7,174.3z M627.7,215.9c4.6,0,8-1.5,10.3-4.6s3.4-7.4,3.4-12.9c0-5.6-1.1-9.9-3.4-13
			c-2.3-3.1-5.7-4.6-10.3-4.6c-2.3,0-4.4,0.4-6.1,1.2c-1.7,0.8-3.2,1.9-4.3,3.5s-2,3.4-2.6,5.5c-0.6,2.2-0.9,4.7-0.9,7.4
			s0.3,5.2,0.9,7.4c0.6,2.2,1.4,4,2.6,5.5c1.2,1.5,2.6,2.6,4.3,3.4C623.4,215.5,625.4,215.9,627.7,215.9z"/>
		<path class="st1" d="M660,221.6V175h4.9c1.2,0,1.9,0.6,2.2,1.7l0.6,5.1c2-2.2,4.3-4,6.8-5.4c2.5-1.4,5.4-2.1,8.7-2.1
			c2.5,0,4.8,0.4,6.7,1.3c1.9,0.8,3.6,2,4.9,3.6s2.3,3.4,3,5.6c0.7,2.2,1,4.6,1,7.2v29.7h-8.2V192c0-3.5-0.8-6.3-2.4-8.2
			c-1.6-1.9-4.1-2.9-7.4-2.9c-2.4,0-4.7,0.6-6.8,1.7s-4,2.7-5.8,4.7v34.3H660z"/>
		<path class="st1" d="M725.3,222.4c-3.7,0-6.5-1-8.5-3.1c-2-2.1-3-5-3-8.9v-28.5h-5.6c-0.5,0-0.9-0.1-1.2-0.4
			c-0.3-0.3-0.5-0.7-0.5-1.4v-3.3l7.6-1l1.9-14.4c0.1-0.5,0.3-0.8,0.6-1.1c0.3-0.3,0.8-0.4,1.3-0.4h4.1v16.1h13.3v5.9H722v28
			c0,2,0.5,3.4,1.4,4.4c1,1,2.2,1.4,3.7,1.4c0.9,0,1.6-0.1,2.2-0.3c0.6-0.2,1.2-0.5,1.6-0.8c0.5-0.3,0.9-0.5,1.2-0.8
			c0.3-0.2,0.6-0.3,0.9-0.3c0.4,0,0.8,0.3,1.2,0.8l2.4,3.9c-1.4,1.3-3.1,2.4-5.1,3.1C729.5,222,727.4,222.4,725.3,222.4z"/>
		<path class="st1" d="M756.5,160.4c0,0.8-0.2,1.5-0.5,2.2c-0.3,0.7-0.8,1.3-1.3,1.8c-0.5,0.5-1.2,1-1.9,1.3s-1.5,0.5-2.3,0.5
			c-0.8,0-1.5-0.2-2.2-0.5c-0.7-0.3-1.3-0.7-1.8-1.3c-0.5-0.5-1-1.2-1.3-1.8c-0.3-0.7-0.5-1.4-0.5-2.2s0.2-1.6,0.5-2.3
			c0.3-0.7,0.7-1.3,1.3-1.9c0.5-0.5,1.2-1,1.8-1.3c0.7-0.3,1.4-0.5,2.2-0.5c0.8,0,1.5,0.2,2.3,0.5s1.3,0.7,1.9,1.3
			c0.5,0.5,1,1.2,1.3,1.9C756.3,158.8,756.5,159.6,756.5,160.4z M754.6,175v46.6h-8.2V175H754.6z"/>
		<path class="st1" d="M769.1,221.6V175h4.9c1.2,0,1.9,0.6,2.2,1.7l0.6,5.1c2-2.2,4.3-4,6.8-5.4c2.5-1.4,5.4-2.1,8.7-2.1
			c2.5,0,4.8,0.4,6.7,1.3c1.9,0.8,3.6,2,4.9,3.6s2.3,3.4,3,5.6c0.7,2.2,1,4.6,1,7.2v29.7h-8.2V192c0-3.5-0.8-6.3-2.4-8.2
			c-1.6-1.9-4.1-2.9-7.4-2.9c-2.4,0-4.7,0.6-6.8,1.7s-4,2.7-5.8,4.7v34.3H769.1z"/>
		<path class="st1" d="M827.3,175v29.7c0,3.5,0.8,6.3,2.4,8.2s4.1,2.9,7.4,2.9c2.4,0,4.6-0.6,6.8-1.7c2.1-1.1,4.1-2.7,5.8-4.7V175
			h8.2v46.6H853c-1.2,0-1.9-0.6-2.2-1.7l-0.6-5c-2,2.2-4.3,4-6.8,5.4c-2.5,1.4-5.4,2-8.7,2c-2.5,0-4.8-0.4-6.7-1.3
			c-1.9-0.8-3.6-2-4.9-3.6c-1.3-1.5-2.3-3.4-3-5.6c-0.7-2.2-1-4.6-1-7.2V175H827.3z"/>
		<path class="st1" d="M878.5,175v29.7c0,3.5,0.8,6.3,2.4,8.2s4.1,2.9,7.4,2.9c2.4,0,4.6-0.6,6.8-1.7c2.1-1.1,4.1-2.7,5.8-4.7V175
			h8.2v46.6h-4.9c-1.2,0-1.9-0.6-2.2-1.7l-0.6-5c-2,2.2-4.3,4-6.8,5.4c-2.5,1.4-5.4,2-8.7,2c-2.5,0-4.8-0.4-6.7-1.3
			c-1.9-0.8-3.6-2-4.9-3.6c-1.3-1.5-2.3-3.4-3-5.6c-0.7-2.2-1-4.6-1-7.2V175H878.5z"/>
		<path class="st1" d="M922.6,221.6V175h4.9c1.2,0,1.9,0.6,2.2,1.7l0.6,4.8c1.7-2.1,3.6-3.8,5.8-5.2c2.1-1.3,4.6-2,7.4-2
			c3.2,0,5.7,0.9,7.7,2.6c1.9,1.7,3.4,4.1,4.2,7.1c0.6-1.7,1.5-3.1,2.6-4.4c1.1-1.2,2.2-2.2,3.6-3c1.3-0.8,2.7-1.4,4.2-1.7
			c1.5-0.4,3-0.6,4.5-0.6c2.5,0,4.6,0.4,6.6,1.2c1.9,0.8,3.5,1.9,4.9,3.4c1.3,1.5,2.4,3.4,3.1,5.5c0.7,2.2,1.1,4.7,1.1,7.5v29.7
			h-8.2V192c0-3.7-0.8-6.4-2.4-8.3s-3.9-2.8-6.9-2.8c-1.4,0-2.6,0.2-3.8,0.7s-2.3,1.2-3.2,2.1c-0.9,0.9-1.6,2.1-2.2,3.5
			c-0.5,1.4-0.8,3-0.8,4.9v29.7H950V192c0-3.7-0.8-6.5-2.3-8.4c-1.5-1.8-3.7-2.8-6.6-2.8c-2,0-3.9,0.5-5.6,1.6
			c-1.7,1.1-3.3,2.6-4.8,4.4v34.7H922.6z"/>
	</g>
</g>
</svg>
