<?xml version="1.0" encoding="utf-8"?>
<!-- Generator: Adobe Illustrator 24.1.0, SVG Export Plug-In . SVG Version: 6.00 Build 0)  -->
<svg version="1.1" id="Layer_1" xmlns="http://www.w3.org/2000/svg" xmlns:xlink="http://www.w3.org/1999/xlink" x="0px" y="0px"
	 viewBox="0 0 256 256" style="enable-background:new 0 0 256 256;" xml:space="preserve">
<style type="text/css">
	.st0{fill:#79B522;}
</style>
<path class="st0" d="M128,1C57.9,1,1,57.9,1,128s56.9,127,127,127s127-56.9,127-127S198.1,1,128,1z M128,21.2
	c58.8,0,106.6,47.8,106.6,106.6c0,3-0.3,6.1-0.3,8.8h-60.7V97.4c0-6.1-5-11-11-11h-25.7V66.2h38.9c6.1,0,11-5,11-11s-5-11-11-11
	h-38.9v-2.2c0-6.1-5-11-11-11c-6.1,0-11,5-11,11v2.2H78.6c-6.1,0-11,5-11,11s5,11,11,11h36.2v20.2H91.6c-6.1,0-11,5-11,11v39.2H21.7
	c-0.3-3-0.3-5.8-0.3-8.8C21.4,69.2,69.2,21.2,128,21.2z M223.8,174.9L223.8,174.9H34.7c-0.8,0-1.4,0-2.2,0.3
	c-2.5-5.2-4.7-10.8-6.6-16.3h64.1c3.3,0,6.4-1.4,8.3-3.9c2.8-1.9,4.4-5.2,4.4-8.8v-37.5h48.9v37.5c0,3.3,1.7,6.4,3.9,8.3
	c1.9,2.5,5.2,4.1,8.6,4.1h66.3C228.5,164.4,226.3,170,223.8,174.9z M189.8,215c-0.6,0-1.4-0.3-1.9-0.3H67.8c-0.6,0-1.1,0-1.4,0.3
	c-7.2-5-13.5-11-19.3-17.7h162.1C203.4,203.6,197,209.7,189.8,215z"/>
</svg>
