<?xml version="1.0" encoding="utf-8"?>
<!-- Generator: Adobe Illustrator 24.1.0, SVG Export Plug-In . SVG Version: 6.00 Build 0)  -->
<svg version="1.1" id="Layer_1" xmlns="http://www.w3.org/2000/svg" xmlns:xlink="http://www.w3.org/1999/xlink" x="0px" y="0px"
	 viewBox="0 0 256 256" style="enable-background:new 0 0 256 256;" xml:space="preserve">
<style type="text/css">
	.st0{fill:#79B522;}
</style>
<g>
	<g>
		<path class="st0" d="M81.6,177.4c-11.9,0-23.7-4.4-32.9-13.5c-18.2-18.2-18.2-47.8,0-66s47.8-18.2,66,0c4.1,4.1,4.1,10.8,0,14.9
			s-10.8,4.1-14.9,0c-10.2-10.2-26.2-10.2-36.4,0s-10.2,26.2,0,36.4c9.9,9.9,25.7,10.2,35.9,0.3L139,99c0.3-0.3,0.6-0.6,0.8-0.8
			c18.2-18.2,47.8-18.2,66,0s18.2,47.8,0,66s-47.8,18.2-66,0c-4.1-4.1-4.1-10.8,0-14.9c4.1-4.1,10.8-4.1,14.9,0
			c5,5,11.3,7.7,18.2,7.7s13.3-2.8,18.2-7.7c10.2-10.2,10.2-26.2,0-36.4c-9.9-9.9-25.7-10.2-35.9-0.3l-39.8,50.5
			c-0.3,0.3-0.6,0.6-0.8,0.8C105.6,173,93.5,177.4,81.6,177.4z"/>
	</g>
	<path class="st0" d="M128,21.7c58.5,0,106,47.5,106,106s-47.5,106-106,106s-106-47.5-106-106S69.5,21.7,128,21.7 M128,1
		C57.9,1,1,57.9,1,128s56.9,127,127,127s127-56.9,127-127S198.1,1,128,1L128,1z"/>
</g>
</svg>
