<?xml version="1.0" encoding="utf-8"?>
<!-- Generator: Adobe Illustrator 24.1.0, SVG Export Plug-In . SVG Version: 6.00 Build 0)  -->
<svg version="1.1" id="Layer_1" xmlns="http://www.w3.org/2000/svg" xmlns:xlink="http://www.w3.org/1999/xlink" x="0px" y="0px"
	 viewBox="0 0 1024 258" style="enable-background:new 0 0 1024 258;" xml:space="preserve">
<style type="text/css">
	.st0{fill:#495260;}
	.st1{fill:#79B522;}
</style>
<path class="st0" d="M994.5,59h-4.8v-2.7h13V59h-5.1v15.4h-2.7L994.5,59L994.5,59z M1004.8,56.2h4.5l4.1,13l0,0l4.1-13h4.5v18.2
	h-2.7V59.7l0,0l-4.8,14.8h-2.1l-4.8-14.8l0,0v14.8h-2.7V56.2L1004.8,56.2z M905.6,55.5c-7.9,0-13.7,5.1-14.8,12.4
	c-10-10.3-24.4-15.4-40.5-15.4c-40.5,0-72.1,31.9-72.1,72.8c0,1,0,1.7,0,2.7c15.4,5.8,26.1,20.6,26.1,38.1c0,4.8-0.7,9.3-2.4,13.4
	c12.7,11,29.5,17.9,48.4,17.9c16.1,0,31.6-7.9,40.5-16.5c0.7,7.9,6.5,13.4,14.8,13.4c9.3,0,15.1-5.5,15.1-15.1V70.3
	C920.7,61.4,914.5,55.5,905.6,55.5 M850,165.1c-22.3,0-40.5-18.2-40.5-40.5S827.7,84,850,84c22.3,0,40.5,18.2,40.5,40.5
	C890.5,147.2,872.3,165.1,850,165.1 M640.6,55.5c-7.9,0-13.7,5.1-14.8,12.4c-10-10.3-24.4-15.4-40.5-15.4
	c-40.5,0-72.1,31.9-72.1,72.8c0,41.2,31.2,72.1,72.1,72.1c16.1,0,31.6-7.9,40.5-16.5c0.7,7.9,6.5,13.4,14.8,13.4
	c9.3,0,15.1-5.5,15.1-15.1V70.3C655.7,61.4,649.8,55.5,640.6,55.5 M584.3,165.1c-22.3,0-40.5-18.2-40.5-40.5S562,84,584.3,84
	c22.3,0,40.5,18.2,40.5,40.5C624.8,147.2,606.6,165.1,584.3,165.1 M129.7,1.6c-9.3,0-15.1,5.8-15.1,14.8v51.5
	c-9.3-10.3-23.7-15.8-40.5-15.8C35.6,52.1,2,86.1,2,124.9C2,163.3,35.6,197,74.1,197c16.8,0,33-8.6,41.5-17.5
	c1.7,9.3,7.2,14.8,16.1,14.8c7.2,0,12.4-5.5,12.4-13.4V16.7C144.8,7.8,138.6,1.6,129.7,1.6 M74.1,165.1c-22.3,0-40.5-18.2-40.5-40.5
	S51.8,84,74.1,84s40.5,18.2,40.5,40.5C114.3,147.2,96.1,165.1,74.1,165.1 M348.8,55.5c-9.6,0-14.8,4.5-15.8,14.8
	c-8.9-8.9-24.7-17.9-41.9-17.9c-38.5,0-72.1,33.6-72.1,72.4s33.6,72.4,72.1,72.4c17.5,0,31.2-5.5,39.8-15.4
	c-1,29.2-14.8,43.3-42.9,43.3c-9.3,0-15.1,5.8-15.1,15.1c0,9.6,5.8,15.1,16.1,15.1c53.2,0,72.1-38.8,72.1-72.1V68.9
	C361.5,61,356,55.5,348.8,55.5 M290.4,165.1c-22.3,0-40.5-18.2-40.5-40.5S268.1,84,290.4,84c22.3,0,40.5,18.2,40.5,40.5
	C330.9,147.2,312.7,165.1,290.4,165.1 M961.6,54.5c-8.6,0-14.8,6.5-14.8,14.8l-0.3,110.5c0,8.9,6.2,15.1,14.8,15.1
	c9.3,0,15.1-5.5,15.1-15.1l0.3-110.5C976.7,60.4,970.5,54.5,961.6,54.5 M183.6,53.8c-8.6,0-14.8,6.5-14.8,14.8v110.5
	c0,8.9,6.2,15.1,14.8,15.1c9.3,0,15.1-5.5,15.1-15.1V68.6C198.7,60,192.5,53.8,183.6,53.8 M402.7,54.2c-8.6,0-14.8,6.5-14.8,14.8
	v109.9c0,8.9,6.2,15.1,14.8,15.1c9.3,0,15.1-5.5,15.1-15.1V68.9C417.8,60,411.9,54.2,402.7,54.2 M495.3,165.1
	c-9.6-0.7-15.8-3.4-15.8-14.8V86.4h7.9c8.6,0,14.8-6.2,14.8-14.8c0-9.3-5.8-15.1-14.8-15.1h-7.9V16.7c0-9.3-5.5-15.1-15.1-15.1
	c-8.6,0-14.8,6.2-14.8,15.1v40.2c-7.2,1-11.7,6.5-11.7,14.8c0,7.6,4.8,13.4,11.7,14.8v63.9c0,27.8,14.8,43.6,41.2,43.6
	c11,0,17.2-5.1,17.2-14.1C507.7,171.2,503.2,165.8,495.3,165.1 M699.3,1.6c-8.6,0-14.8,6.2-14.8,14.8v162.4
	c0,8.9,6.2,15.1,14.8,15.1c9.3,0,15.1-5.5,15.1-15.1v-162C714.4,7.5,708.5,1.6,699.3,1.6 M786.1,150.3c-0.3-0.7-1-1.4-1.7-2.1
	c-1.4-1.7-2.7-3.1-4.8-4.5c-0.7-0.3-1-1-1.7-1c-3.1-2.1-6.5-3.4-10.6-4.1c-1.7-0.3-3.1-0.3-4.8-0.3c-4.8,0-9.3,1-13.4,3.4
	c-0.7,0.3-1.7,1-2.4,1.4c-7.6,4.8-12.4,13.7-12.4,23.3s4.8,18.5,12.4,23.3c0.7,0.3,1.4,1,2.4,1.4c4.1,2.1,8.6,3.4,13.4,3.4
	c6.9,0,13-2.4,17.9-6.5c1.4-1,2.7-2.4,3.8-3.8c0.3-0.7,1-1.4,1.7-2.1c1-1.4,1.7-3.1,2.7-4.8c1.4-3.4,2.1-7.2,2.1-11
	c0-3.8-0.7-7.6-2.1-11C788.2,153.4,787.5,151.7,786.1,150.3"/>
<path class="st1" d="M611,118.7c0.3,1.7,0.7,4.1,0.7,6.2c0,1,0,2.4-0.3,3.4c-0.3,1-0.3,2.4-0.7,3.4c-0.3,2.1-1.4,4.1-2.4,6.2
	c-4.8,8.6-13.7,14.4-24,14.4c-15.1,0-27.5-12.4-27.5-27.5c0-1.7,0.3-3.8,0.3-5.5c1.7-8.9,7.9-16.1,16.1-19.9
	c3.4-1.4,6.9-2.1,10.6-2.1c3.8,0,7.2,0.7,10.6,2.1c6.2,2.7,11,7.2,14.1,13.4C609.7,114.6,610.4,116.7,611,118.7 M74.1,97.4
	c-15.1,0-27.5,12.4-27.5,27.5s12.4,27.5,27.5,27.5s27.5-12.4,27.5-27.5S89.2,97.4,74.1,97.4 M860.6,99.5c-0.7-0.3-1.7-0.7-2.7-1
	c-1-0.3-2.7-0.7-4.1-1c-1.4-0.3-2.7-0.3-4.1-0.3c-2.7,0-5.5,0.3-8.2,1c-1,0.3-1.7,0.3-2.7,1c-8.2,3.4-14.4,11-16.1,19.9
	c-0.3,1.7-0.3,3.4-0.3,5.5c0,7.6,3.1,14.4,7.9,19.2c1,1,2.7,2.4,4.1,3.4c2.1,1.4,4.8,2.7,7.2,3.4c2.7,0.7,5.5,1,8.2,1
	c1.4,0,2.7,0,4.1-0.3c1.4-0.3,2.7-0.3,4.1-1c2.7-0.7,4.8-1.7,7.2-3.4c1.4-1,2.7-2.1,4.1-3.4c4.8-4.8,7.9-11.7,7.9-19.2
	c0-1.7-0.3-3.8-0.3-5.5C875.1,110.5,868.9,102.9,860.6,99.5 M301.4,99.5c-3.4-1.4-6.9-2.1-10.6-2.1c-3.8,0-7.2,0.7-10.6,2.1
	c-8.2,3.4-14.4,11-16.1,19.9c-0.3,1.7-0.3,3.4-0.3,5.5c0,15.1,12.4,27.5,27.5,27.5c15.1,0,27.5-12.4,27.5-27.5
	c0-1.7-0.3-3.8-0.3-5.5C315.8,110.5,309.6,102.9,301.4,99.5"/>
</svg>
