<?xml version="1.0" encoding="utf-8"?>
<!-- Generator: Adobe Illustrator 24.1.0, SVG Export Plug-In . SVG Version: 6.00 Build 0)  -->
<svg version="1.1" id="Layer_1" xmlns="http://www.w3.org/2000/svg" xmlns:xlink="http://www.w3.org/1999/xlink" x="0px" y="0px"
	 viewBox="0 0 256 256" style="enable-background:new 0 0 256 256;" xml:space="preserve">
<style type="text/css">
	.st0{fill:#79B522;stroke:#79B522;stroke-width:3.1392;stroke-miterlimit:10;}
	.st1{fill:#79B522;}
</style>
<g>
	<circle class="st0" cx="128" cy="128" r="25.1"/>
	<path class="st1" d="M128,1C57.9,1,1,57.9,1,128s56.9,127,127,127s127-56.9,127-127S197.9,1,128,1z M128,230.2
		c-56.3,0-102.2-45.8-102.2-102.2S71.7,25.8,128,25.8c13,0,25.4,2.4,36.9,6.9v48.9c-10.1-8.2-23.2-13.1-37.2-13.1
		c-32.8,0-59.4,26.7-59.4,59.4c0,32.8,26.7,59.4,59.4,59.4c14.1,0,27.1-4.9,37.2-13.1c0.7,6.2,6,11,12.3,11
		c6.8,0,12.4-5.6,12.4-12.4V46.6c24.7,18.7,40.6,48.2,40.6,81.4C230.2,184.3,184.3,230.2,128,230.2z M162.4,128
		c0,19.1-15.5,34.7-34.7,34.7S92.9,147.2,92.9,128s15.5-34.7,34.7-34.7S162.4,108.9,162.4,128z"/>
</g>
</svg>
