<?xml version="1.0" encoding="utf-8"?>
<!-- Generator: Adobe Illustrator 24.1.0, SVG Export Plug-In . SVG Version: 6.00 Build 0)  -->
<svg version="1.1" id="Layer_1" xmlns="http://www.w3.org/2000/svg" xmlns:xlink="http://www.w3.org/1999/xlink" x="0px" y="0px"
	 viewBox="0 0 256 256" style="enable-background:new 0 0 256 256;" xml:space="preserve">
<style type="text/css">
	.st0{fill:#79B522;}
</style>
<path class="st0" d="M128,1C57.9,1,1,57.9,1,128s56.9,127,127,127s127-56.9,127-127S197.9,1,128,1z M171.1,215.8
	c-22.9,0-41.7-18.5-41.7-41.7s18.5-41.7,41.7-41.7c23.2,0,41.7,18.5,41.7,41.7c0,6.3-1.7,12.7-4.4,18.5c-5.2,7.2-11.6,13.8-19,19.1
	C183.8,214.4,177.7,215.8,171.1,215.8z M171.1,112c-34.5,0-62.4,27.9-62.4,62.4c0,20.2,9.4,37.8,24.3,49.4
	c-34.8-6.3-61.3-37.3-61.3-73.7c0-41.4,33.7-75.1,75.1-75.1c36.4,0,67.4,26.2,73.7,61.3C209.2,121.4,191.2,112,171.1,112z M21.7,128
	c0-58.5,47.5-106,106-106c50.5,0,93,35.6,103.5,82.8c-16-30.1-48-50.5-84.5-50.5c-53,0-95.8,43.1-95.8,95.8
	c0,31.5,15.2,59.6,38.7,76.8C49.9,211.4,21.7,173,21.7,128z"/>
</svg>
