<?xml version="1.0" encoding="utf-8"?>
<!-- Generator: Adobe Illustrator 24.1.0, SVG Export Plug-In . SVG Version: 6.00 Build 0)  -->
<svg version="1.1" id="Layer_1" xmlns="http://www.w3.org/2000/svg" xmlns:xlink="http://www.w3.org/1999/xlink" x="0px" y="0px"
	 viewBox="0 0 256 256" style="enable-background:new 0 0 256 256;" xml:space="preserve">
<style type="text/css">
	.st0{fill:#79B522;stroke:#79B522;stroke-width:5.5217;stroke-miterlimit:10;}
	.st1{fill:#79B522;}
</style>
<g>
	<path id="XMLID_1_" class="st0" d="M186.3,65.9c-0.3-2.8-2.5-5.2-5.5-5.5c-37.3-3-64.3,15.2-80.9,38.1c-9.1-3-19.1-1.9-28.2,3
		c-8.6,5-16,13-20.7,23.2c-1.1,2.2-0.6,5,1.4,6.9c1.9,1.7,4.7,2.2,6.9,0.8c9.4-5,20.2-4.1,26.5,2.2l26,26c0,0,0,0,0,0.3
		c6.4,6.4,7.5,17.1,2.2,26.5c-1.1,2.2-0.8,5,0.8,6.9c1.1,1.1,2.8,1.9,4.4,1.9c0.8,0,1.7-0.3,2.5-0.6c9.9-4.7,18.2-12.1,23.2-20.7
		c5-9.1,6.1-19.1,3-28.2c6.6-4.7,12.7-10.2,17.7-16C181.6,112.5,188.5,90.7,186.3,65.9z M70.3,117.5c6.4-6.4,14.4-9.9,22.9-8.6
		c-2.2,4.1-4.4,8.3-6.1,12.4C82.2,118.6,76.4,117.2,70.3,117.5z M129.4,176.3c0.3-6.1-1.1-11.9-3.9-16.8c4.4-1.9,8.6-3.9,12.4-6.1
		C139.3,161.7,135.7,170,129.4,176.3z M117.5,149.8l-21-20.7c10.5-27.9,36.4-58,77.9-57.1C176,121.4,135.2,142.9,117.5,149.8z
		 M155.9,91c1.7,1.7,2.8,4.1,2.8,6.9c0,2.8-1.1,5-2.8,6.9c-1.7,1.7-4.1,2.8-6.9,2.8c-2.8,0-5-1.1-6.9-2.8c-1.7-1.7-2.8-4.1-2.8-6.9
		c0-2.8,1.1-5,2.8-6.9c1.7-1.7,4.1-2.8,6.9-2.8C151.7,88.2,154,89.1,155.9,91z M72.5,152.3c-6.9,6.9-7.2,20.4-7.2,22.9
		c0,3.3,2.8,6.1,5.8,6.1c0,0,0,0,0.3,0c3,0,16-0.6,22.6-7.2c4.1-4.1,5-8.6,5-11.3c0-3.9-1.7-7.7-4.7-10.8
		C87.1,144.6,78,147.1,72.5,152.3z M86,165.8c-1.4,1.4-4.7,2.5-8,3c0.6-3.3,1.7-6.6,3-8c0.8-0.8,1.9-1.7,2.8-1.7s1.7,0.3,2.5,1.4
		c0.8,0.8,1.4,1.7,1.4,2.5S86.6,165,86,165.8z"/>
	<path class="st1" d="M128,22.3c58.3,0,105.7,47.5,105.7,105.7S186.3,233.7,128,233.7S22.3,186.3,22.3,128S69.5,22.3,128,22.3
		 M128,1C57.9,1,1,57.9,1,128s56.9,127,127,127s127-56.9,127-127S198.1,1,128,1L128,1z"/>
</g>
</svg>
