<?xml version="1.0" encoding="utf-8"?>
<!-- Generator: Adobe Illustrator 24.1.0, SVG Export Plug-In . SVG Version: 6.00 Build 0)  -->
<svg version="1.1" id="Layer_1" xmlns="http://www.w3.org/2000/svg" xmlns:xlink="http://www.w3.org/1999/xlink" x="0px" y="0px"
	 viewBox="0 0 1024 240" style="enable-background:new 0 0 1024 240;" xml:space="preserve">
<style type="text/css">
	.st0{fill:#495260;}
	.st1{fill:#79B522;}
	.st2{fill:#79B522;stroke:#79B522;stroke-width:2.63;stroke-miterlimit:10;}
</style>
<g>
	<g>
		<path class="st0" d="M1001,66.2h-3.7v-2.1h10v2.1h-3.9v11.8h-2.1L1001,66.2L1001,66.2z M1008.9,64.1h3.4l3.2,10l0,0l3.2-10h3.4
			v13.9h-2.1V66.8l0,0l-3.7,11.3h-1.6l-3.7-11.3l0,0v11.3h-2.1V64.1L1008.9,64.1z M932.8,63.6c-6,0-10.5,3.9-11.3,9.5
			c-7.6-7.9-18.7-11.8-31-11.8c-31,0-55.2,24.5-55.2,55.8c0,0.8,0,1.3,0,2.1c11.8,4.5,20,15.8,20,29.2c0,3.7-0.5,7.1-1.8,10.3
			c9.7,8.4,22.6,13.7,37.1,13.7c12.4,0,24.2-6,31-12.6c0.5,6,5,10.3,11.3,10.3c7.1,0,11.6-4.2,11.6-11.6V74.9
			C944.4,68.1,939.7,63.6,932.8,63.6 M890.2,147.5c-17.1,0-31-13.9-31-31s13.9-31,31-31c17.1,0,31,13.9,31,31
			C921.3,133.8,907.3,147.5,890.2,147.5 M729.8,63.6c-6,0-10.5,3.9-11.3,9.5c-7.6-7.9-18.7-11.8-31-11.8c-31,0-55.2,24.5-55.2,55.8
			c0,31.6,23.9,55.2,55.2,55.2c12.4,0,24.2-6,31-12.6c0.5,6,5,10.3,11.3,10.3c7.1,0,11.6-4.2,11.6-11.6V74.9
			C741.4,68.1,736.9,63.6,729.8,63.6 M686.7,147.5c-17.1,0-31-13.9-31-31s13.9-31,31-31c17.1,0,31,13.9,31,31
			C717.7,133.8,703.8,147.5,686.7,147.5 M338.5,22.3c-7.1,0-11.6,4.5-11.6,11.3v39.4c-7.1-7.9-18.1-12.1-31-12.1
			c-29.5,0-55.2,26-55.2,55.8c0,29.5,25.8,55.2,55.2,55.2c12.9,0,25.2-6.6,31.8-13.4c1.3,7.1,5.5,11.3,12.4,11.3
			c5.5,0,9.5-4.2,9.5-10.3V33.9C350,27.1,345.3,22.3,338.5,22.3 M295.9,147.5c-17.1,0-31-13.9-31-31s13.9-31,31-31
			c17.1,0,31,13.9,31,31C326.6,133.8,312.7,147.5,295.9,147.5 M506.3,63.6c-7.4,0-11.3,3.4-12.1,11.3c-6.8-6.8-18.9-13.7-32.1-13.7
			c-29.5,0-55.2,25.8-55.2,55.5s25.8,55.5,55.2,55.5c13.4,0,23.9-4.2,30.5-11.8c-0.8,22.4-11.3,33.1-32.9,33.1
			c-7.1,0-11.6,4.5-11.6,11.6c0,7.4,4.5,11.6,12.4,11.6c40.8,0,55.2-29.7,55.2-55.2V73.9C516,67.8,511.8,63.6,506.3,63.6
			 M461.6,147.5c-17.1,0-31-13.9-31-31s13.9-31,31-31c17.1,0,31,13.9,31,31C492.6,133.8,478.7,147.5,461.6,147.5 M975.7,62.8
			c-6.6,0-11.3,5-11.3,11.3l-0.3,84.7c0,6.8,4.7,11.6,11.3,11.6c7.1,0,11.6-4.2,11.6-11.6l0.3-84.7
			C987.3,67.3,982.6,62.8,975.7,62.8 M379.8,62.3c-6.6,0-11.3,5-11.3,11.3v84.7c0,6.8,4.7,11.6,11.3,11.6c7.1,0,11.6-4.2,11.6-11.6
			V73.6C391.3,67,386.6,62.3,379.8,62.3 M547.6,62.6c-6.6,0-11.3,5-11.3,11.3V158c0,6.8,4.7,11.6,11.3,11.6
			c7.1,0,11.6-4.2,11.6-11.6V73.9C559.1,67,554.7,62.6,547.6,62.6 M618.6,147.5c-7.4-0.5-12.1-2.6-12.1-11.3V87.3h6
			c6.6,0,11.3-4.7,11.3-11.3c0-7.1-4.5-11.6-11.3-11.6h-6V33.9c0-7.1-4.2-11.6-11.6-11.6c-6.6,0-11.3,4.7-11.3,11.6v30.8
			c-5.5,0.8-8.9,5-8.9,11.3c0,5.8,3.7,10.3,8.9,11.3v48.9c0,21.3,11.3,33.4,31.6,33.4c8.4,0,13.1-3.9,13.1-10.8
			C628,152.2,624.6,148,618.6,147.5 M774.8,22.3c-6.6,0-11.3,4.7-11.3,11.3V158c0,6.8,4.7,11.6,11.3,11.6c7.1,0,11.6-4.2,11.6-11.6
			V33.9C786.4,26.8,781.9,22.3,774.8,22.3 M841.3,136.2c-0.3-0.5-0.8-1.1-1.3-1.6c-1.1-1.3-2.1-2.4-3.7-3.4
			c-0.5-0.3-0.8-0.8-1.3-0.8c-2.4-1.6-5-2.6-8.2-3.2c-1.3-0.3-2.4-0.3-3.7-0.3c-3.7,0-7.1,0.8-10.3,2.6c-0.5,0.3-1.3,0.8-1.8,1.1
			c-5.8,3.7-9.5,10.5-9.5,17.9c0,7.4,3.7,14.2,9.5,17.9c0.5,0.3,1.1,0.8,1.8,1.1c3.2,1.6,6.6,2.6,10.3,2.6c5.3,0,10-1.8,13.7-5
			c1.1-0.8,2.1-1.8,2.9-2.9c0.3-0.5,0.8-1.1,1.3-1.6c0.8-1.1,1.3-2.4,2.1-3.7c1.1-2.6,1.6-5.5,1.6-8.4c0-2.9-0.5-5.8-1.6-8.4
			C842.9,138.6,842.4,137.3,841.3,136.2"/>
		<path class="st1" d="M707.2,112c0.3,1.3,0.5,3.2,0.5,4.7c0,0.8,0,1.8-0.3,2.6s-0.3,1.8-0.5,2.6c-0.3,1.6-1.1,3.2-1.8,4.7
			c-3.7,6.6-10.5,11-18.4,11c-11.6,0-21-9.5-21-21c0-1.3,0.3-2.9,0.3-4.2c1.3-6.8,6-12.4,12.4-15.3c2.6-1.1,5.3-1.6,8.2-1.6
			s5.5,0.5,8.2,1.6c4.7,2.1,8.4,5.5,10.8,10.3C706.1,108.8,706.7,110.4,707.2,112 M295.9,95.7c-11.6,0-21,9.5-21,21s9.5,21,21,21
			c11.6,0,21-9.5,21-21S307.4,95.7,295.9,95.7 M898.4,97.3c-0.5-0.3-1.3-0.5-2.1-0.8s-2.1-0.5-3.2-0.8c-1.1-0.3-2.1-0.3-3.2-0.3
			c-2.1,0-4.2,0.3-6.3,0.8c-0.8,0.3-1.3,0.3-2.1,0.8c-6.3,2.6-11,8.4-12.4,15.3c-0.3,1.3-0.3,2.6-0.3,4.2c0,5.8,2.4,11,6,14.7
			c0.8,0.8,2.1,1.8,3.2,2.6c1.6,1.1,3.7,2.1,5.5,2.6c2.1,0.5,4.2,0.8,6.3,0.8c1.1,0,2.1,0,3.2-0.3c1.1-0.3,2.1-0.3,3.2-0.8
			c2.1-0.5,3.7-1.3,5.5-2.6c1.1-0.8,2.1-1.6,3.2-2.6c3.7-3.7,6-8.9,6-14.7c0-1.3-0.3-2.9-0.3-4.2C909.4,105.7,904.7,99.9,898.4,97.3
			 M470,97.3c-2.6-1.1-5.3-1.6-8.2-1.6c-2.9,0-5.5,0.5-8.2,1.6c-6.3,2.6-11,8.4-12.4,15.3c-0.3,1.3-0.3,2.6-0.3,4.2
			c0,11.6,9.5,21,21,21s21-9.5,21-21c0-1.3-0.3-2.9-0.3-4.2C481,105.7,476.3,99.9,470,97.3"/>
	</g>
	<g>
		<circle class="st2" cx="108.4" cy="119.5" r="21"/>
		<path class="st1" d="M108.4,13.1C49.7,13.1,2,60.8,2,119.5s47.7,106.4,106.4,106.4s106.4-47.7,106.4-106.4S167,13.1,108.4,13.1z
			 M108.4,205.1c-47.2,0-85.6-38.4-85.6-85.6c0-47.2,38.4-85.6,85.6-85.6c10.9,0,21.3,2,30.9,5.8v41c-8.5-6.9-19.4-11-31.2-11
			c-27.5,0-49.8,22.4-49.8,49.8c0,27.5,22.4,49.8,49.8,49.8c11.8,0,22.7-4.1,31.2-11c0.6,5.2,5,9.2,10.3,9.2
			c5.7,0,10.4-4.7,10.4-10.4V51.3C180.7,67,194,91.7,194,119.5C194,166.7,155.6,205.1,108.4,205.1z M137.2,119.5
			c0,16-13,29.1-29.1,29.1s-29.1-13-29.1-29.1s13-29.1,29.1-29.1S137.2,103.5,137.2,119.5z"/>
	</g>
</g>
</svg>
