<?xml version="1.0" encoding="utf-8"?>
<!-- Generator: Adobe Illustrator 24.1.0, SVG Export Plug-In . SVG Version: 6.00 Build 0)  -->
<svg version="1.1" id="Layer_1" xmlns="http://www.w3.org/2000/svg" xmlns:xlink="http://www.w3.org/1999/xlink" x="0px" y="0px"
	 viewBox="0 0 1024 344" style="enable-background:new 0 0 1024 344;" xml:space="preserve">
<style type="text/css">
	.st0{fill:#495260;}
	.st1{fill:#79B522;}
	.st2{enable-background:new    ;}
	.st3{fill:none;stroke:#79B522;stroke-width:3.4717;stroke-miterlimit:10;}
</style>
<g>
	<path class="st0" d="M994.2,142.2h-4.9v-2.8h12.8v2.8h-4.9v15.3h-2.8L994.2,142.2L994.2,142.2z M1004.6,139.4h4.5l4.2,12.8l0,0
		l4.2-12.8h4.5v18.1h-2.8v-14.6l0,0l-4.9,14.6h-2.1l-4.9-14.6l0,0v14.6h-2.8L1004.6,139.4L1004.6,139.4z M905,138.7
		c-7.6,0-13.5,5.2-14.6,12.5c-10.1-10.1-24.3-15.6-40.6-15.6c-40.6,0-72.2,31.9-72.2,72.6c0,1,0,1.7,0,2.8c15.3,5.9,26,20.8,26,38.2
		c0,4.9-0.7,9.4-2.4,13.5c12.8,11.1,29.5,17.7,48.3,17.7c16.3,0,31.6-8,40.6-16.7c0.7,8,6.6,13.5,14.6,13.5
		c9.4,0,14.9-5.6,14.9-14.9V153.7C919.9,144.7,914,138.7,905,138.7 M849.5,248.5c-22.2,0-40.3-18.1-40.3-40.3s18.1-40.3,40.3-40.3
		s40.3,18.1,40.3,40.3C889.7,230.8,871.7,248.5,849.5,248.5 M640.5,138.7c-7.6,0-13.5,5.2-14.6,12.5c-10.1-10.1-24.3-15.6-40.6-15.6
		c-40.6,0-72.2,31.9-72.2,72.6c0,41,31.2,72.2,72.2,72.2c16.3,0,31.6-8,40.6-16.7c0.7,8,6.6,13.5,14.6,13.5
		c9.4,0,14.9-5.6,14.9-14.9V153.7C655.4,144.7,649.5,138.7,640.5,138.7 M583.9,248.5c-22.2,0-40.3-18.1-40.3-40.3
		s18.1-40.3,40.3-40.3s40.3,18.1,40.3,40.3C624.1,230.8,606.1,248.5,583.9,248.5 M129.4,85.3c-9.4,0-14.9,5.9-14.9,14.9v51.4
		c-9.4-10.1-23.6-16-40.3-16c-38.5,0-72.2,34-72.2,72.6s33.7,72.2,72.2,72.2c17,0,33-8.7,41.7-17.4c1.7,9.4,7.3,14.6,16.3,14.6
		c7.3,0,12.5-5.6,12.5-13.5V99.9C144.7,91.2,138.4,85.3,129.4,85.3 M74.2,248.5c-22.2,0-40.3-18.1-40.3-40.3s18.1-40.3,40.3-40.3
		s40.3,18.1,40.3,40.3C114.1,230.8,96.4,248.5,74.2,248.5 M348.5,138.7c-9.7,0-14.6,4.5-16,14.6c-9-9-24.6-17.7-41.7-17.7
		c-38.5,0-72.2,33.7-72.2,72.6c0,38.5,33.7,72.6,72.2,72.6c17.4,0,31.2-5.6,39.9-15.3c-1,29.2-14.9,43.4-43,43.4
		c-9.4,0-14.9,5.9-14.9,14.9c0,9.7,5.9,14.9,16,14.9c53.5,0,72.2-38.9,72.2-72.2V151.9C361.3,144.7,356.1,138.7,348.5,138.7
		 M290.5,248.5c-22.2,0-40.3-18.1-40.3-40.3s18.1-40.3,40.3-40.3s40.3,18.1,40.3,40.3C330.4,230.8,312.7,248.5,290.5,248.5
		 M961.2,138.1c-8.3,0-14.9,6.2-14.9,14.9L946,263.4c0,9,6.2,14.9,14.9,14.9c9.4,0,14.9-5.6,14.9-14.9l0.3-110.4
		C976.2,144,970.3,138.1,961.2,138.1 M183.2,137.4c-8.3,0-14.9,6.2-14.9,14.9v110.4c0,9,6.2,14.9,14.9,14.9
		c9.4,0,14.9-5.6,14.9-14.9V152.3C198.5,143.3,192.3,137.4,183.2,137.4 M402.6,137.7c-8.3,0-14.9,6.2-14.9,14.9v110.1
		c0,9,6.2,14.9,14.9,14.9c9.4,0,14.9-5.6,14.9-14.9V152.6C417.6,143.6,411.7,137.7,402.6,137.7 M495.3,248.5
		c-9.7-0.7-16-3.5-16-14.9V170h7.6c8.3,0,14.9-6.2,14.9-14.9c0-9.4-5.9-14.9-14.9-14.9h-7.6v-39.9c0-9.4-5.6-14.9-14.9-14.9
		c-8.7,0-14.9,6.2-14.9,14.9v40.3c-7.3,1-11.5,6.6-11.5,14.6c0,7.6,4.9,13.5,11.5,14.6v63.9c0,27.8,14.9,43.7,41,43.7
		c10.8,0,17.4-5.2,17.4-13.9C507.8,254.7,503,249.2,495.3,248.5 M698.8,85.3c-8.7,0-14.9,6.2-14.9,14.9v162.5
		c0,9,6.2,14.9,14.9,14.9c9.4,0,14.9-5.6,14.9-14.9V100.2C714.1,90.8,708.2,85.3,698.8,85.3 M786.3,233.5c-0.3-0.7-1-1.4-1.7-2.1
		c-1.4-1.7-2.8-3.1-4.9-4.5c-0.7-0.3-1-1-1.7-1c-3.1-2.1-6.6-3.5-10.8-4.2c-1.7-0.3-3.1-0.3-4.9-0.3c-4.9,0-9.4,1-13.5,3.5
		c-0.7,0.3-1.7,1-2.4,1.4c-7.6,4.9-12.5,13.5-12.5,23.3s4.9,18.4,12.5,23.3c0.7,0.3,1.4,1,2.4,1.4c4.2,2.1,8.3,3.5,13.5,3.5
		c6.9,0,12.8-2.4,18.1-6.2c1.4-1,2.4-2.4,3.8-3.8c0.3-0.7,1-1.4,1.7-2.1c1-1.4,1.7-3.1,2.4-4.9c1.4-3.5,2.1-6.9,2.1-11.1
		c0-4.2-0.7-7.6-2.1-11.1C788,236.7,787,235.3,786.3,233.5"/>
	<path class="st1" d="M610.6,201.9c0.3,1.7,0.7,4.2,0.7,6.2c0,1,0,2.4-0.3,3.5c-0.3,1-0.3,2.4-0.7,3.5c-0.3,2.1-1.4,4.2-2.4,6.2
		c-4.9,8.3-13.5,14.2-24,14.2c-14.9,0-27.4-12.2-27.4-27.8c0-1.7,0.3-3.8,0.3-5.6c1.7-9,8-16.3,16.3-19.8c3.5-1.4,6.9-2.1,10.8-2.1
		c3.8,0,7.3,0.7,10.8,2.1c6.2,2.4,11.1,7.3,13.9,13.5C609.6,198.1,610.3,200.2,610.6,201.9 M74.2,180.8c-14.9,0-27.4,12.2-27.4,27.8
		s12.2,27.8,27.4,27.8c14.9,0,27.4-12.2,27.4-27.8S89.1,180.8,74.2,180.8 M860.2,182.8c-0.7-0.3-1.7-0.7-2.4-1c-1-0.3-2.4-0.7-4.2-1
		s-2.8-0.3-4.2-0.3c-2.8,0-5.6,0.3-8.3,1c-1,0.3-1.7,0.3-2.4,1c-8.3,3.5-14.2,10.8-16.3,19.8c-0.3,1.7-0.3,3.5-0.3,5.6
		c0,7.6,3.1,14.2,8,19.4c1,1,2.4,2.4,4.2,3.5c2.1,1.4,4.9,2.4,6.9,3.5c2.4,0.7,5.6,1,8.3,1c1.4,0,2.8,0,4.2-0.3s2.4-0.3,4.2-1
		c2.4-0.7,4.9-1.7,6.9-3.5c1.4-1,2.8-2.1,4.2-3.5c4.9-4.9,8-11.8,8-19.4c0-1.7-0.3-3.8-0.3-5.6C874.5,194,868.5,186.7,860.2,182.8
		 M300.9,182.8c-3.5-1.4-6.9-2.1-10.8-2.1s-7.3,0.7-10.8,2.1c-8.3,3.5-14.2,10.8-16.3,19.8c-0.3,1.7-0.3,3.5-0.3,5.6
		c0,14.9,12.2,27.8,27.4,27.8c14.9,0,27.4-12.2,27.4-27.8c0-1.7-0.3-3.8-0.3-5.6C315.5,194,309.2,186.7,300.9,182.8"/>
	<g class="st2">
		<path class="st0" d="M663.7,59.6V17.1h4.7c0.5,0,0.9,0.1,1.3,0.3c0.4,0.2,0.6,0.6,0.7,1.1l0.6,3c1.3-1.5,2.8-2.7,4.5-3.6
			c1.7-0.9,3.6-1.4,5.9-1.4c1.7,0,3.3,0.4,4.8,1.1c1.4,0.7,2.7,1.8,3.8,3.2c1.1,1.4,1.9,3.1,2.4,5.1c0.6,2,0.9,4.4,0.9,7
			c0,2.4-0.3,4.6-1,6.7c-0.6,2-1.6,3.8-2.8,5.3c-1.2,1.5-2.6,2.7-4.3,3.5s-3.6,1.3-5.7,1.3c-1.8,0-3.3-0.3-4.6-0.8
			c-1.3-0.6-2.4-1.3-3.4-2.3v13.1H663.7z M678.7,22.6c-1.6,0-3,0.3-4.1,1c-1.1,0.7-2.2,1.6-3.2,2.9v14.4c0.9,1.1,1.8,1.8,2.9,2.3
			s2.1,0.6,3.3,0.6c1.2,0,2.2-0.2,3.2-0.7s1.8-1.1,2.4-2c0.7-0.9,1.2-2,1.5-3.4c0.4-1.4,0.5-3,0.5-4.8c0-1.9-0.2-3.5-0.5-4.8
			c-0.3-1.3-0.7-2.4-1.3-3.2c-0.6-0.8-1.2-1.4-2-1.8S679.7,22.6,678.7,22.6z"/>
		<path class="st0" d="M712.7,16.6c2.4,0,4.6,0.4,6.5,1.2c1.9,0.8,3.6,1.9,5,3.3c1.4,1.4,2.4,3.1,3.2,5.2c0.8,2,1.1,4.3,1.1,6.8
			c0,2.5-0.4,4.8-1.1,6.9c-0.8,2-1.8,3.8-3.2,5.2c-1.4,1.4-3,2.5-5,3.3s-4.1,1.2-6.5,1.2c-2.4,0-4.6-0.4-6.5-1.2s-3.6-1.9-5-3.3
			c-1.4-1.4-2.5-3.2-3.2-5.2c-0.8-2-1.1-4.3-1.1-6.9c0-2.5,0.4-4.8,1.1-6.8c0.8-2,1.8-3.8,3.2-5.2c1.4-1.4,3.1-2.5,5-3.3
			C708.1,16.9,710.3,16.6,712.7,16.6z M712.7,43.6c2.7,0,4.6-0.9,5.9-2.7c1.3-1.8,1.9-4.4,1.9-7.9c0-3.5-0.6-6.1-1.9-7.9
			c-1.3-1.8-3.3-2.7-5.9-2.7c-2.7,0-4.7,0.9-6,2.7c-1.3,1.8-1.9,4.5-1.9,7.9c0,3.4,0.6,6.1,1.9,7.9C708,42.7,710,43.6,712.7,43.6z"
			/>
		<path class="st0" d="M730.6,17.1h6.1c0.6,0,1.1,0.1,1.5,0.4c0.4,0.3,0.6,0.6,0.8,1l4.6,17.1c0.2,0.9,0.5,1.9,0.6,2.7
			c0.2,0.9,0.3,1.8,0.5,2.7c0.2-0.9,0.5-1.8,0.7-2.7c0.3-0.9,0.5-1.8,0.8-2.7l5.3-17.2c0.1-0.4,0.4-0.8,0.8-1
			c0.4-0.3,0.8-0.4,1.3-0.4h3.4c0.6,0,1,0.1,1.4,0.4c0.4,0.3,0.6,0.6,0.8,1l5.2,17.5c0.3,0.9,0.5,1.8,0.7,2.6
			c0.2,0.8,0.4,1.7,0.6,2.5c0.1-0.9,0.3-1.8,0.5-2.7c0.2-0.9,0.4-1.8,0.7-2.8l4.8-17.1c0.1-0.4,0.4-0.8,0.8-1
			c0.4-0.3,0.9-0.4,1.4-0.4h5.8l-10.2,32.1h-6.2c-0.7,0-1.1-0.5-1.4-1.4L756,29.2c-0.2-0.6-0.4-1.2-0.5-1.8s-0.3-1.2-0.4-1.8
			c-0.1,0.6-0.3,1.2-0.4,1.9c-0.1,0.6-0.3,1.2-0.5,1.9l-5.8,18.5c-0.3,0.9-0.9,1.4-1.7,1.4h-5.9L730.6,17.1z"/>
		<path class="st0" d="M797.2,16.6c2,0,3.9,0.3,5.6,1c1.7,0.6,3.2,1.6,4.4,2.8c1.2,1.2,2.2,2.8,2.9,4.6c0.7,1.8,1,3.9,1,6.2
			c0,0.6,0,1.1-0.1,1.5c-0.1,0.4-0.1,0.7-0.3,0.9s-0.3,0.4-0.5,0.5c-0.2,0.1-0.5,0.1-0.9,0.1h-19.8c0.2,3.3,1.1,5.7,2.7,7.2
			c1.5,1.5,3.6,2.3,6.1,2.3c1.2,0,2.3-0.1,3.2-0.4s1.7-0.6,2.4-1c0.7-0.4,1.3-0.7,1.8-1c0.5-0.3,1-0.4,1.5-0.4
			c0.3,0,0.6,0.1,0.8,0.2c0.2,0.1,0.4,0.3,0.6,0.5l2.2,2.8c-0.9,1-1.8,1.8-2.9,2.5c-1.1,0.7-2.2,1.2-3.3,1.6s-2.3,0.7-3.5,0.9
			c-1.2,0.2-2.4,0.2-3.5,0.2c-2.2,0-4.3-0.4-6.2-1.1c-1.9-0.7-3.6-1.8-5-3.3c-1.4-1.4-2.5-3.2-3.3-5.4c-0.8-2.1-1.2-4.6-1.2-7.4
			c0-2.2,0.4-4.2,1.1-6.2s1.7-3.6,3-5c1.3-1.4,2.9-2.6,4.8-3.4C792.7,17,794.8,16.6,797.2,16.6z M797.4,22.1c-2.2,0-4,0.6-5.3,1.9
			c-1.3,1.3-2.1,3.1-2.4,5.4h14.5c0-1-0.1-1.9-0.4-2.8c-0.3-0.9-0.7-1.7-1.2-2.3c-0.6-0.7-1.3-1.2-2.1-1.6
			C799.5,22.3,798.5,22.1,797.4,22.1z"/>
		<path class="st0" d="M817.4,49.1V17.1h4.5c0.8,0,1.3,0.1,1.7,0.4c0.3,0.3,0.5,0.8,0.6,1.5l0.5,3.9c1.1-2,2.5-3.5,4-4.7
			c1.5-1.1,3.3-1.7,5.2-1.7c1.6,0,2.9,0.4,3.9,1.1l-1,5.8c-0.1,0.4-0.2,0.6-0.4,0.8c-0.2,0.2-0.5,0.2-0.8,0.2
			c-0.3,0-0.7-0.1-1.3-0.2c-0.5-0.1-1.3-0.2-2.2-0.2c-1.6,0-3,0.4-4.1,1.3c-1.1,0.9-2.1,2.2-2.9,3.9v20H817.4z"/>
		<path class="st0" d="M856.1,16.6c2,0,3.9,0.3,5.6,1c1.7,0.6,3.2,1.6,4.4,2.8s2.2,2.8,2.9,4.6c0.7,1.8,1,3.9,1,6.2
			c0,0.6,0,1.1-0.1,1.5c-0.1,0.4-0.1,0.7-0.3,0.9c-0.1,0.2-0.3,0.4-0.5,0.5c-0.2,0.1-0.5,0.1-0.9,0.1h-19.8c0.2,3.3,1.1,5.7,2.7,7.2
			c1.5,1.5,3.6,2.3,6.1,2.3c1.2,0,2.3-0.1,3.2-0.4s1.7-0.6,2.4-1c0.7-0.4,1.3-0.7,1.8-1c0.5-0.3,1-0.4,1.5-0.4
			c0.3,0,0.6,0.1,0.8,0.2c0.2,0.1,0.4,0.3,0.6,0.5l2.2,2.8c-0.9,1-1.8,1.8-2.9,2.5c-1.1,0.7-2.2,1.2-3.3,1.6s-2.3,0.7-3.5,0.9
			c-1.2,0.2-2.4,0.2-3.5,0.2c-2.2,0-4.3-0.4-6.2-1.1s-3.6-1.8-5-3.3c-1.4-1.4-2.5-3.2-3.3-5.4c-0.8-2.1-1.2-4.6-1.2-7.4
			c0-2.2,0.4-4.2,1.1-6.2c0.7-1.9,1.7-3.6,3-5s2.9-2.6,4.8-3.4C851.6,17,853.8,16.6,856.1,16.6z M856.3,22.1c-2.2,0-4,0.6-5.3,1.9
			c-1.3,1.3-2.1,3.1-2.4,5.4h14.5c0-1-0.1-1.9-0.4-2.8c-0.3-0.9-0.7-1.7-1.2-2.3c-0.6-0.7-1.3-1.2-2.1-1.6S857.4,22.1,856.3,22.1z"
			/>
		<path class="st0" d="M898.9,49.1c-1,0-1.7-0.5-2-1.4l-0.6-3.1c-0.7,0.8-1.4,1.4-2.1,2c-0.7,0.6-1.5,1.1-2.4,1.6
			c-0.8,0.4-1.8,0.8-2.7,1s-2,0.4-3.1,0.4c-1.8,0-3.4-0.4-4.8-1.1s-2.7-1.8-3.8-3.2c-1.1-1.4-1.9-3.1-2.4-5.1c-0.6-2-0.9-4.4-0.9-7
			c0-2.4,0.3-4.6,1-6.6c0.6-2,1.6-3.8,2.8-5.3s2.7-2.7,4.3-3.5c1.7-0.8,3.6-1.3,5.7-1.3c1.8,0,3.3,0.3,4.6,0.9
			c1.3,0.6,2.4,1.3,3.4,2.3V2.7h7.7v46.4H898.9z M888.6,43.5c1.6,0,3-0.3,4.1-1c1.1-0.7,2.2-1.6,3.2-2.8V25.2
			c-0.9-1.1-1.8-1.8-2.9-2.2s-2.1-0.7-3.3-0.7c-1.2,0-2.2,0.2-3.2,0.7c-0.9,0.4-1.8,1.1-2.4,2c-0.7,0.9-1.2,2-1.5,3.4
			c-0.4,1.4-0.5,3-0.5,4.8c0,1.9,0.2,3.5,0.5,4.8c0.3,1.3,0.7,2.4,1.3,3.2c0.6,0.8,1.2,1.4,2.1,1.8S887.6,43.5,888.6,43.5z"/>
		<path class="st0" d="M924.1,49.1V2.7h7.7V21c1.3-1.4,2.7-2.4,4.3-3.2c1.6-0.8,3.5-1.2,5.6-1.2c1.7,0,3.3,0.4,4.8,1.1
			c1.4,0.7,2.7,1.8,3.7,3.1s1.9,3.1,2.4,5.1c0.6,2,0.9,4.3,0.9,7c0,2.4-0.3,4.6-1,6.7c-0.6,2-1.6,3.8-2.8,5.3
			c-1.2,1.5-2.6,2.7-4.3,3.5c-1.7,0.8-3.6,1.3-5.7,1.3c-1,0-1.9-0.1-2.7-0.3s-1.6-0.5-2.2-0.8c-0.7-0.4-1.3-0.8-1.9-1.3
			c-0.6-0.5-1.1-1.1-1.6-1.7l-0.3,2.2c-0.1,0.5-0.3,0.9-0.6,1.2c-0.3,0.2-0.7,0.3-1.2,0.3H924.1z M939.1,22.6c-1.6,0-3,0.3-4.1,1
			s-2.2,1.6-3.2,2.9v14.4c0.9,1.1,1.8,1.8,2.9,2.3s2.2,0.6,3.4,0.6c1.2,0,2.2-0.2,3.2-0.7s1.7-1.1,2.4-2c0.7-0.9,1.2-2,1.5-3.4
			s0.5-3,0.5-4.8c0-1.9-0.2-3.5-0.5-4.8s-0.7-2.4-1.3-3.2s-1.2-1.4-2-1.8C941,22.7,940.1,22.6,939.1,22.6z"/>
		<path class="st0" d="M969.9,57.9c-0.2,0.5-0.5,1-0.9,1.2c-0.4,0.3-0.9,0.4-1.7,0.4h-5.8l6-12.8l-13-29.7h6.7
			c0.6,0,1.1,0.1,1.4,0.4c0.3,0.3,0.6,0.6,0.8,1l6.8,16.6c0.2,0.5,0.4,1.1,0.6,1.7s0.3,1.2,0.4,1.7c0.2-0.6,0.3-1.2,0.5-1.7
			s0.4-1.1,0.6-1.7l6.4-16.6c0.2-0.4,0.4-0.8,0.8-1c0.4-0.3,0.8-0.4,1.3-0.4h6.2L969.9,57.9z"/>
	</g>
	<line class="st3" x1="637" y1="32.2" x2="27" y2="32.2"/>
</g>
</svg>
