<?xml version="1.0" encoding="utf-8"?>
<!-- Generator: Adobe Illustrator 24.1.0, SVG Export Plug-In . SVG Version: 6.00 Build 0)  -->
<svg version="1.1" id="Layer_1" xmlns="http://www.w3.org/2000/svg" xmlns:xlink="http://www.w3.org/1999/xlink" x="0px" y="0px"
	 viewBox="0 0 1024 344" style="enable-background:new 0 0 1024 344;" xml:space="preserve">
<style type="text/css">
	.st0{fill:#FFFFFF;}
	.st1{fill:#79B522;}
	.st2{enable-background:new    ;}
	.st3{fill:none;stroke:#79B522;stroke-width:3.4706;stroke-miterlimit:10;}
</style>
<g>
	<path class="st0" d="M994.2,144.2h-4.9v-2.8h12.8v2.8h-4.9v15.3h-2.8L994.2,144.2L994.2,144.2z M1004.6,141.4h4.5l4.2,12.8l0,0
		l4.2-12.8h4.5v18h-2.8v-14.6l0,0l-4.9,14.6h-2.1l-4.9-14.6l0,0v14.6h-2.8L1004.6,141.4L1004.6,141.4z M904.7,140.7
		c-7.6,0-13.5,5.2-14.6,12.5c-10.1-10.1-24.3-15.6-40.6-15.6c-40.6,0-72.2,31.9-72.2,72.5c0,1,0,1.7,0,2.8c15.3,5.9,26,20.8,26,38.2
		c0,4.9-0.7,9.4-2.4,13.5c12.8,11.1,29.5,17.7,48.2,17.7c16.3,0,31.6-8,40.6-16.7c0.7,8,6.6,13.5,14.6,13.5
		c9.4,0,14.9-5.6,14.9-14.9V155.6C919.6,146.6,913.7,140.7,904.7,140.7 M849.2,250.4c-22.2,0-40.3-18-40.3-40.3s18-40.3,40.3-40.3
		c22.2,0,40.3,18,40.3,40.3C889.4,232.7,871.7,250.4,849.2,250.4 M640.2,140.7c-7.6,0-13.5,5.2-14.6,12.5
		c-10.1-10.1-24.3-15.6-40.6-15.6c-40.6,0-72.2,31.9-72.2,72.5c0,41,31.2,72.2,72.2,72.2c16.3,0,31.6-8,40.6-16.7
		c0.7,8,6.6,13.5,14.6,13.5c9.4,0,14.9-5.6,14.9-14.9V155.6C655.2,146.6,649.6,140.7,640.2,140.7 M584,250.4
		c-22.2,0-40.3-18-40.3-40.3s18-40.3,40.3-40.3c22.2,0,40.3,18,40.3,40.3C623.9,232.7,606.2,250.4,584,250.4 M129.4,87.2
		c-9.4,0-14.9,5.9-14.9,14.9v51.4c-9.4-10.1-23.6-16-40.3-16C35.7,137.5,2,171.5,2,210s33.7,72.2,72.2,72.2c17,0,33-8.7,41.6-17.4
		c1.7,9.4,7.3,14.6,16.3,14.6c7.3,0,12.5-5.6,12.5-13.5V101.8C144.6,93.1,138.7,87.2,129.4,87.2 M74.5,250.4
		c-22.2,0-40.3-18-40.3-40.3s18-40.3,40.3-40.3c22.2,0,40.3,18,40.3,40.3C114.4,232.7,96.4,250.4,74.5,250.4 M348.7,140.7
		c-9.7,0-14.6,4.5-16,14.6c-9-9-24.6-17.7-41.6-17.7c-38.5,0-72.2,33.7-72.2,72.5c0,38.5,33.7,72.5,72.2,72.5
		c17.4,0,31.2-5.6,39.9-15.3c-1,29.2-14.9,43.4-43,43.4c-9.4,0-14.9,5.9-14.9,14.9c0,9.7,5.9,14.9,16,14.9
		c53.4,0,72.2-38.9,72.2-72.2V153.9C361.6,146.6,356.3,140.7,348.7,140.7 M290.4,250.4c-22.2,0-40.3-18-40.3-40.3s18-40.3,40.3-40.3
		c22.2,0,40.3,18,40.3,40.3C330.7,232.7,313,250.4,290.4,250.4 M961.3,140c-8.3,0-14.9,6.2-14.9,14.9L946,265.3
		c0,9,6.2,14.9,14.9,14.9c9.4,0,14.9-5.6,14.9-14.9l0.3-110.4C976.2,145.9,969.9,140,961.3,140 M183.2,139.3
		c-8.3,0-14.9,6.2-14.9,14.9v110.4c0,9,6.2,14.9,14.9,14.9c9.4,0,14.9-5.6,14.9-14.9V154.2C198.8,145.2,192.5,139.3,183.2,139.3
		 M402.5,139.6c-8.3,0-14.9,6.2-14.9,14.9v110c0,9,6.2,14.9,14.9,14.9c9.4,0,14.9-5.6,14.9-14.9v-110
		C417.4,145.5,411.9,139.6,402.5,139.6 M495.2,250.4c-9.7-0.7-16-3.5-16-14.9V172h7.6c8.3,0,14.9-6.2,14.9-14.9
		c0-9.4-5.9-14.9-14.9-14.9h-7.6v-39.9c0-9.4-5.6-14.9-14.9-14.9c-8.7,0-14.9,6.2-14.9,14.9v40.3c-7.3,1-11.5,6.6-11.5,14.6
		c0,7.6,4.9,13.5,11.5,14.6v63.9c0,27.8,14.9,43.7,41,43.7c10.8,0,17.4-5.2,17.4-13.9C507.7,256.6,503.1,251.1,495.2,250.4
		 M698.5,87.2c-8.7,0-14.9,6.2-14.9,14.9v162.4c0,9,6.2,14.9,14.9,14.9c9.4,0,14.9-5.6,14.9-14.9V102.2
		C713.8,92.8,707.9,87.2,698.5,87.2 M786,235.4c-0.3-0.7-1-1.4-1.7-2.1c-1.4-1.7-2.8-3.1-4.9-4.5c-0.7-0.3-1-1-1.7-1
		c-3.1-2.1-6.6-3.5-10.8-4.2c-1.7-0.3-3.1-0.3-4.9-0.3c-4.9,0-9.4,1-13.5,3.5c-0.7,0.3-1.7,1-2.4,1.4c-7.6,4.9-12.5,13.5-12.5,23.3
		c0,9.7,4.9,18.4,12.5,23.3c0.7,0.3,1.4,1,2.4,1.4c4.2,2.1,8.3,3.5,13.5,3.5c6.9,0,12.8-2.4,18-6.2c1.4-1,2.4-2.4,3.8-3.8
		c0.3-0.7,1-1.4,1.7-2.1c1-1.4,1.7-3.1,2.4-4.9c1.4-3.5,2.1-6.9,2.1-11.1c0-4.2-0.7-7.6-2.1-11.1C787.7,238.6,786.7,237.2,786,235.4
		"/>
	<path class="st1" d="M610.7,203.9c0.3,1.7,0.7,4.2,0.7,6.2c0,1,0,2.4-0.3,3.5c-0.3,1-0.3,2.4-0.7,3.5c-0.3,2.1-1.4,4.2-2.4,6.2
		c-4.9,8.3-13.5,14.2-23.9,14.2c-14.9,0-27.4-12.1-27.4-27.8c0-1.7,0.3-3.8,0.3-5.6c1.7-9,8-16.3,16.3-19.8
		c3.5-1.4,6.9-2.1,10.8-2.1s7.3,0.7,10.8,2.1c6.2,2.4,11.1,7.3,13.9,13.5C609.7,200,610,202.1,610.7,203.9 M74.5,182.7
		c-14.9,0-27.4,12.1-27.4,27.8s12.1,27.8,27.4,27.8c14.9,0,27.4-12.1,27.4-27.8S89.1,182.7,74.5,182.7 M859.9,184.8
		c-0.7-0.3-1.7-0.7-2.4-1c-1-0.3-2.4-0.7-4.2-1c-1.7-0.3-2.8-0.3-4.2-0.3c-2.8,0-5.6,0.3-8.3,1c-1,0.3-1.7,0.3-2.4,1
		c-8.3,3.5-14.2,10.8-16.3,19.8c-0.3,1.7-0.3,3.5-0.3,5.6c0,7.6,3.1,14.2,8,19.4c1,1,2.4,2.4,4.2,3.5c2.1,1.4,4.9,2.4,6.9,3.5
		c2.4,0.7,5.6,1,8.3,1c1.4,0,2.8,0,4.2-0.3s2.4-0.3,4.2-1c2.4-0.7,4.9-1.7,6.9-3.5c1.4-1,2.8-2.1,4.2-3.5c4.9-4.9,8-11.8,8-19.4
		c0-1.7-0.3-3.8-0.3-5.6C874.5,195.9,868.6,188.6,859.9,184.8 M300.8,184.8c-3.5-1.4-6.9-2.1-10.8-2.1s-7.3,0.7-10.8,2.1
		c-8.3,3.5-14.2,10.8-16.3,19.8c-0.3,1.7-0.3,3.5-0.3,5.6c0,14.9,12.1,27.8,27.4,27.8c14.9,0,27.4-12.1,27.4-27.8
		c0-1.7-0.3-3.8-0.3-5.6C315.7,195.9,309.5,188.6,300.8,184.8"/>
	<g class="st2">
		<path class="st0" d="M663.8,61.7V19.2h4.7c0.5,0,0.9,0.1,1.3,0.3c0.4,0.2,0.6,0.6,0.7,1.1l0.6,3c1.3-1.5,2.8-2.7,4.5-3.6
			c1.7-0.9,3.6-1.4,5.9-1.4c1.7,0,3.3,0.4,4.8,1.1c1.4,0.7,2.7,1.8,3.7,3.2s1.9,3.1,2.4,5.1s0.9,4.4,0.9,7c0,2.4-0.3,4.6-1,6.7
			c-0.6,2-1.6,3.8-2.8,5.3c-1.2,1.5-2.6,2.7-4.3,3.5c-1.7,0.8-3.6,1.3-5.7,1.3c-1.8,0-3.3-0.3-4.6-0.8s-2.4-1.3-3.4-2.3v13.1H663.8z
			 M678.8,24.7c-1.6,0-3,0.3-4.1,1c-1.1,0.7-2.2,1.6-3.2,2.9v14.4c0.9,1.1,1.8,1.8,2.9,2.3s2.1,0.6,3.3,0.6c1.2,0,2.2-0.2,3.2-0.7
			c0.9-0.4,1.7-1.1,2.4-2c0.7-0.9,1.2-2,1.5-3.4c0.4-1.4,0.5-3,0.5-4.8c0-1.9-0.2-3.5-0.5-4.8c-0.3-1.3-0.7-2.4-1.3-3.2
			c-0.6-0.8-1.2-1.4-2-1.8C680.7,24.9,679.8,24.7,678.8,24.7z"/>
		<path class="st0" d="M712.8,18.7c2.4,0,4.6,0.4,6.5,1.2c1.9,0.8,3.6,1.9,5,3.3c1.4,1.4,2.4,3.1,3.2,5.2c0.8,2,1.1,4.3,1.1,6.8
			c0,2.5-0.4,4.8-1.1,6.9s-1.8,3.8-3.2,5.2c-1.4,1.4-3,2.5-5,3.3c-1.9,0.8-4.1,1.2-6.5,1.2c-2.4,0-4.6-0.4-6.5-1.2
			c-2-0.8-3.6-1.9-5-3.3c-1.4-1.4-2.5-3.2-3.2-5.2s-1.1-4.3-1.1-6.9c0-2.5,0.4-4.8,1.1-6.8c0.8-2,1.8-3.8,3.2-5.2
			c1.4-1.4,3.1-2.5,5-3.3C708.2,19.1,710.4,18.7,712.8,18.7z M712.8,45.8c2.7,0,4.6-0.9,5.9-2.7c1.3-1.8,1.9-4.4,1.9-7.9
			c0-3.5-0.6-6.1-1.9-7.9c-1.3-1.8-3.3-2.7-5.9-2.7c-2.7,0-4.7,0.9-6,2.7s-1.9,4.5-1.9,7.9s0.6,6.1,1.9,7.9
			C708.1,44.9,710.1,45.8,712.8,45.8z"/>
		<path class="st0" d="M730.7,19.2h6.1c0.6,0,1.1,0.1,1.5,0.4c0.4,0.3,0.6,0.6,0.8,1l4.6,17.1c0.2,0.9,0.5,1.9,0.6,2.7
			c0.2,0.9,0.3,1.8,0.5,2.7c0.2-0.9,0.5-1.8,0.7-2.7c0.3-0.9,0.5-1.8,0.8-2.7l5.3-17.2c0.1-0.4,0.4-0.8,0.8-1
			c0.4-0.3,0.8-0.4,1.3-0.4h3.4c0.6,0,1,0.1,1.4,0.4c0.4,0.3,0.6,0.6,0.7,1l5.2,17.5c0.3,0.9,0.5,1.8,0.7,2.6
			c0.2,0.8,0.4,1.7,0.6,2.5c0.1-0.9,0.3-1.8,0.5-2.7c0.2-0.9,0.4-1.8,0.7-2.8l4.7-17.1c0.1-0.4,0.4-0.8,0.8-1
			c0.4-0.3,0.9-0.4,1.4-0.4h5.8l-10.2,32h-6.2c-0.7,0-1.1-0.5-1.4-1.4l-5.8-18.5c-0.2-0.6-0.4-1.2-0.5-1.8s-0.3-1.2-0.4-1.8
			c-0.1,0.6-0.3,1.2-0.4,1.9c-0.1,0.6-0.3,1.2-0.5,1.9l-5.8,18.5c-0.3,0.9-0.9,1.4-1.7,1.4h-5.9L730.7,19.2z"/>
		<path class="st0" d="M797.3,18.7c2,0,3.9,0.3,5.6,1c1.7,0.6,3.2,1.6,4.4,2.8c1.2,1.2,2.2,2.8,2.9,4.6c0.7,1.8,1,3.9,1,6.2
			c0,0.6,0,1.1-0.1,1.5c-0.1,0.4-0.1,0.7-0.3,0.9c-0.1,0.2-0.3,0.4-0.5,0.5c-0.2,0.1-0.5,0.1-0.9,0.1h-19.8c0.2,3.3,1.1,5.7,2.7,7.2
			c1.5,1.5,3.6,2.3,6.1,2.3c1.2,0,2.3-0.1,3.2-0.4c0.9-0.3,1.7-0.6,2.4-1c0.7-0.4,1.3-0.7,1.8-1c0.5-0.3,1-0.4,1.5-0.4
			c0.3,0,0.6,0.1,0.8,0.2c0.2,0.1,0.4,0.3,0.6,0.5l2.2,2.8c-0.9,1-1.8,1.8-2.9,2.5s-2.2,1.2-3.3,1.6c-1.2,0.4-2.3,0.7-3.5,0.9
			c-1.2,0.2-2.4,0.2-3.5,0.2c-2.2,0-4.3-0.4-6.2-1.1c-1.9-0.7-3.6-1.8-5-3.3s-2.5-3.2-3.3-5.4c-0.8-2.1-1.2-4.6-1.2-7.4
			c0-2.2,0.4-4.2,1.1-6.2c0.7-1.9,1.7-3.6,3-5c1.3-1.4,2.9-2.6,4.8-3.4C792.7,19.1,794.9,18.7,797.3,18.7z M797.4,24.2
			c-2.2,0-4,0.6-5.3,1.9c-1.3,1.3-2.1,3.1-2.4,5.4h14.5c0-1-0.1-1.9-0.4-2.8c-0.3-0.9-0.7-1.7-1.2-2.3c-0.6-0.7-1.3-1.2-2.1-1.6
			C799.6,24.4,798.6,24.2,797.4,24.2z"/>
		<path class="st0" d="M817.4,51.2v-32h4.5c0.8,0,1.3,0.1,1.7,0.4c0.3,0.3,0.5,0.8,0.6,1.5l0.5,3.9c1.1-2,2.5-3.5,4-4.7
			c1.5-1.1,3.3-1.7,5.2-1.7c1.6,0,2.9,0.4,3.9,1.1l-1,5.8c-0.1,0.4-0.2,0.6-0.4,0.8c-0.2,0.2-0.5,0.2-0.8,0.2
			c-0.3,0-0.7-0.1-1.3-0.2c-0.5-0.1-1.3-0.2-2.2-0.2c-1.6,0-3,0.4-4.1,1.3c-1.1,0.9-2.1,2.2-2.9,3.9v20H817.4z"/>
		<path class="st0" d="M856.2,18.7c2,0,3.9,0.3,5.6,1c1.7,0.6,3.2,1.6,4.4,2.8c1.2,1.2,2.2,2.8,2.9,4.6c0.7,1.8,1,3.9,1,6.2
			c0,0.6,0,1.1-0.1,1.5c-0.1,0.4-0.1,0.7-0.3,0.9c-0.1,0.2-0.3,0.4-0.5,0.5c-0.2,0.1-0.5,0.1-0.9,0.1h-19.8c0.2,3.3,1.1,5.7,2.7,7.2
			c1.5,1.5,3.6,2.3,6.1,2.3c1.2,0,2.3-0.1,3.2-0.4c0.9-0.3,1.7-0.6,2.4-1c0.7-0.4,1.3-0.7,1.8-1c0.5-0.3,1-0.4,1.5-0.4
			c0.3,0,0.6,0.1,0.8,0.2c0.2,0.1,0.4,0.3,0.6,0.5l2.2,2.8c-0.9,1-1.8,1.8-2.9,2.5s-2.2,1.2-3.3,1.6c-1.2,0.4-2.3,0.7-3.5,0.9
			c-1.2,0.2-2.4,0.2-3.5,0.2c-2.2,0-4.3-0.4-6.2-1.1c-1.9-0.7-3.6-1.8-5-3.3s-2.5-3.2-3.3-5.4c-0.8-2.1-1.2-4.6-1.2-7.4
			c0-2.2,0.4-4.2,1.1-6.2c0.7-1.9,1.7-3.6,3-5c1.3-1.4,2.9-2.6,4.8-3.4C851.7,19.1,853.8,18.7,856.2,18.7z M856.4,24.2
			c-2.2,0-4,0.6-5.3,1.9c-1.3,1.3-2.1,3.1-2.4,5.4h14.5c0-1-0.1-1.9-0.4-2.8c-0.3-0.9-0.7-1.7-1.2-2.3c-0.6-0.7-1.3-1.2-2.1-1.6
			C858.5,24.4,857.5,24.2,856.4,24.2z"/>
		<path class="st0" d="M898.9,51.2c-1,0-1.7-0.5-2-1.4l-0.6-3.1c-0.7,0.8-1.4,1.4-2.1,2c-0.7,0.6-1.5,1.1-2.4,1.6
			c-0.8,0.4-1.7,0.8-2.7,1s-2,0.4-3.1,0.4c-1.8,0-3.4-0.4-4.8-1.1c-1.5-0.7-2.7-1.8-3.8-3.2c-1.1-1.4-1.9-3.1-2.4-5.1
			c-0.6-2-0.9-4.4-0.9-7c0-2.4,0.3-4.6,1-6.6c0.6-2,1.6-3.8,2.8-5.3c1.2-1.5,2.7-2.7,4.3-3.5c1.7-0.8,3.6-1.3,5.7-1.3
			c1.8,0,3.3,0.3,4.6,0.9c1.3,0.6,2.4,1.3,3.4,2.3V4.8h7.7v46.4H898.9z M888.6,45.6c1.6,0,3-0.3,4.1-1c1.1-0.7,2.2-1.6,3.2-2.8V27.4
			c-0.9-1.1-1.8-1.8-2.9-2.2s-2.1-0.7-3.3-0.7c-1.2,0-2.2,0.2-3.2,0.7c-0.9,0.4-1.7,1.1-2.4,2s-1.2,2-1.5,3.4
			c-0.4,1.4-0.5,3-0.5,4.8c0,1.9,0.2,3.5,0.5,4.8c0.3,1.3,0.7,2.4,1.3,3.2s1.2,1.4,2.1,1.8C886.7,45.4,887.6,45.6,888.6,45.6z"/>
		<path class="st0" d="M924.1,51.2V4.8h7.7v18.3c1.3-1.4,2.7-2.4,4.3-3.2c1.6-0.8,3.5-1.2,5.6-1.2c1.7,0,3.3,0.4,4.8,1.1
			c1.4,0.7,2.7,1.8,3.7,3.1s1.9,3.1,2.4,5.1c0.6,2,0.9,4.3,0.9,7c0,2.4-0.3,4.6-1,6.7c-0.6,2-1.6,3.8-2.8,5.3
			c-1.2,1.5-2.6,2.7-4.3,3.5c-1.7,0.8-3.6,1.3-5.7,1.3c-1,0-1.9-0.1-2.7-0.3c-0.8-0.2-1.6-0.5-2.2-0.8c-0.7-0.4-1.3-0.8-1.9-1.3
			c-0.6-0.5-1.1-1.1-1.6-1.7l-0.3,2.2c-0.1,0.5-0.3,0.9-0.6,1.2c-0.3,0.2-0.7,0.3-1.2,0.3H924.1z M939.1,24.7c-1.6,0-3,0.3-4.1,1
			c-1.1,0.7-2.2,1.6-3.2,2.9v14.4c0.9,1.1,1.8,1.8,2.9,2.3s2.1,0.6,3.4,0.6c1.2,0,2.2-0.2,3.2-0.7c0.9-0.4,1.7-1.1,2.4-2
			s1.2-2,1.5-3.4c0.4-1.4,0.5-3,0.5-4.8c0-1.9-0.2-3.5-0.5-4.8c-0.3-1.3-0.7-2.4-1.3-3.2c-0.6-0.8-1.2-1.4-2-1.8
			C941,24.9,940.1,24.7,939.1,24.7z"/>
		<path class="st0" d="M970,60c-0.2,0.5-0.5,1-0.9,1.2c-0.4,0.3-0.9,0.4-1.7,0.4h-5.7l6-12.8l-13-29.7h6.7c0.6,0,1.1,0.1,1.4,0.4
			c0.3,0.3,0.6,0.6,0.8,1l6.8,16.6c0.2,0.5,0.4,1.1,0.6,1.7c0.2,0.6,0.3,1.2,0.4,1.7c0.2-0.6,0.3-1.2,0.5-1.7
			c0.2-0.6,0.4-1.1,0.6-1.7l6.4-16.6c0.2-0.4,0.4-0.8,0.8-1c0.4-0.3,0.8-0.4,1.3-0.4h6.2L970,60z"/>
	</g>
	<line class="st3" x1="637.1" y1="34.1" x2="27.3" y2="34.1"/>
</g>
</svg>
