<?xml version="1.0" encoding="utf-8"?>
<!-- Generator: Adobe Illustrator 24.1.0, SVG Export Plug-In . SVG Version: 6.00 Build 0)  -->
<svg version="1.1" xmlns="http://www.w3.org/2000/svg" xmlns:xlink="http://www.w3.org/1999/xlink" x="0px" y="0px"
	 viewBox="0 0 310.8 107.7" style="enable-background:new 0 0 310.8 107.7;" xml:space="preserve">
<style type="text/css">
	.st0{fill:#FFFFFF;}
	.st1{fill:#79B522;}
</style>
<g id="digitalai">
	<path class="st0" d="M270,26.4c-2.2,0-3.9,1.5-4.2,3.6c-2.9-2.9-7-4.5-11.7-4.5c-11.7,0-20.8,9.2-20.8,20.9c0,0.3,0,0.5,0,0.8
		c4.4,1.7,7.5,6,7.5,11c0,1.4-0.2,2.7-0.7,3.9c3.7,3.2,8.5,5.1,13.9,5.1c4.7,0,9.1-2.3,11.7-4.8c0.2,2.3,1.9,3.9,4.2,3.9
		c2.7,0,4.3-1.6,4.3-4.3V30.7C274.5,28.1,272.8,26.4,270,26.4z M254.1,58c-6.4,0-11.6-5.2-11.6-11.6c0-6.4,5.2-11.6,11.6-11.6
		c6.4,0,11.6,5.2,11.6,11.6C265.8,52.9,260.5,58,254.1,58z"/>
	<path class="st0" d="M193.8,26.4c-2.2,0-3.9,1.5-4.2,3.6c-2.9-2.9-7-4.5-11.7-4.5c-11.7,0-20.8,9.2-20.8,20.9
		c0,11.8,9,20.8,20.8,20.8c4.7,0,9.1-2.3,11.7-4.8c0.2,2.3,1.9,3.9,4.2,3.9c2.7,0,4.3-1.6,4.3-4.3V30.7
		C198.1,28.1,196.4,26.4,193.8,26.4z M177.5,58c-6.4,0-11.6-5.2-11.6-11.6c0-6.4,5.2-11.6,11.6-11.6s11.6,5.2,11.6,11.6
		C189.2,52.9,183.9,58,177.5,58z"/>
	<path class="st0" d="M46.7,11c-2.7,0-4.3,1.7-4.3,4.3v14.8c-2.7-2.9-6.8-4.6-11.6-4.6C19.7,25.5,10,35.3,10,46.4
		c0,11.1,9.7,20.8,20.8,20.8c4.9,0,9.5-2.5,12-5c0.5,2.7,2.1,4.2,4.7,4.2c2.1,0,3.6-1.6,3.6-3.9V15.2C51,12.7,49.2,11,46.7,11z
		 M30.7,58c-6.4,0-11.6-5.2-11.6-11.6c0-6.4,5.2-11.6,11.6-11.6c6.4,0,11.6,5.2,11.6,11.6C42.2,52.9,37.1,58,30.7,58z"/>
	<path class="st0" d="M109.7,26.4c-2.8,0-4.2,1.3-4.6,4.2c-2.6-2.6-7.1-5.1-12-5.1c-11.1,0-20.8,9.7-20.8,20.9
		c0,11.1,9.7,20.9,20.8,20.9c5,0,9-1.6,11.5-4.4c-0.3,8.4-4.3,12.5-12.4,12.5c-2.7,0-4.3,1.7-4.3,4.3c0,2.8,1.7,4.3,4.6,4.3
		c15.4,0,20.8-11.2,20.8-20.8v-33C113.5,28.1,111.9,26.4,109.7,26.4z M93,58c-6.4,0-11.6-5.2-11.6-11.6c0-6.4,5.3-11.6,11.6-11.6
		c6.4,0,11.6,5.2,11.6,11.6C104.6,52.9,99.4,58,93,58z"/>
	<path class="st0" d="M286.2,26.2c-2.4,0-4.3,1.8-4.3,4.3l-0.1,31.8c0,2.6,1.8,4.3,4.3,4.3c2.7,0,4.3-1.6,4.3-4.3l0.1-31.8
		C290.5,27.9,288.8,26.2,286.2,26.2"/>
	<path class="st0" d="M62.2,26c-2.4,0-4.3,1.8-4.3,4.3v31.8c0,2.6,1.8,4.3,4.3,4.3c2.7,0,4.3-1.6,4.3-4.3V30.3
		C66.5,27.7,64.7,26,62.2,26"/>
	<path class="st0" d="M125.4,26.1c-2.4,0-4.3,1.8-4.3,4.3v31.7c0,2.6,1.8,4.3,4.3,4.3c2.7,0,4.3-1.6,4.3-4.3V30.4
		C129.6,27.8,127.9,26.1,125.4,26.1"/>
	<path class="st0" d="M152,58c-2.8-0.2-4.6-1-4.6-4.3V35.4h2.2c2.4,0,4.3-1.8,4.3-4.3c0-2.7-1.7-4.3-4.3-4.3h-2.2V15.3
		c0-2.7-1.6-4.3-4.3-4.3c-2.5,0-4.3,1.8-4.3,4.3v11.6c-2.1,0.3-3.3,1.9-3.3,4.2c0,2.2,1.4,3.9,3.3,4.2v18.4c0,8,4.3,12.6,11.8,12.6
		c3.1,0,5-1.5,5-4C155.6,59.8,154.2,58.2,152,58"/>
	<path class="st0" d="M210.6,11c-2.5,0-4.3,1.8-4.3,4.3v46.8c0,2.6,1.8,4.3,4.3,4.3c2.7,0,4.3-1.6,4.3-4.3V15.3
		C215,12.7,213.3,11,210.6,11"/>
	<path class="st0" d="M235.8,53.8c-0.1-0.2-0.3-0.4-0.5-0.6c-0.4-0.5-0.8-0.9-1.4-1.3c-0.2-0.1-0.3-0.3-0.5-0.3
		c-0.9-0.6-1.9-1-3.1-1.2c-0.5-0.1-0.9-0.1-1.4-0.1c-1.4,0-2.7,0.3-3.9,1c-0.2,0.1-0.5,0.3-0.7,0.4c-2.2,1.4-3.6,3.9-3.6,6.7
		s1.4,5.3,3.6,6.7c0.2,0.1,0.4,0.3,0.7,0.4c1.2,0.6,2.4,1,3.9,1c2,0,3.7-0.7,5.2-1.8c0.4-0.3,0.7-0.7,1.1-1.1
		c0.1-0.2,0.3-0.4,0.5-0.6c0.3-0.4,0.5-0.9,0.7-1.4c0.4-1,0.6-2,0.6-3.2s-0.2-2.2-0.6-3.2C236.3,54.6,236,54.2,235.8,53.8"/>
</g>
<g id="trademark">
	<polygon class="st0" points="295.8,27.5 294.4,27.5 294.4,26.7 298.1,26.7 298.1,27.5 296.7,27.5 296.7,31.9 295.9,31.9 
		295.8,27.5 	"/>
	<polygon class="st0" points="298.8,26.7 300.1,26.7 301.3,30.4 301.3,30.4 302.5,26.7 303.8,26.7 303.8,31.9 303,31.9 303,27.7 
		303,27.7 301.6,31.9 301,31.9 299.6,27.7 299.6,27.7 299.6,31.9 298.8,31.9 298.8,26.7 	"/>
</g>
<g id="continuum">
	<path class="st0" d="M139.1,81.6c-0.1,0.1-0.2,0.2-0.3,0.3c-0.1,0.1-0.2,0.1-0.4,0.1s-0.4-0.1-0.6-0.2c-0.2-0.1-0.5-0.3-0.8-0.5
		s-0.7-0.3-1.2-0.5c-0.5-0.1-1-0.2-1.7-0.2c-0.9,0-1.7,0.2-2.3,0.5c-0.7,0.3-1.2,0.8-1.7,1.4s-0.8,1.3-1,2.2
		c-0.2,0.8-0.3,1.8-0.3,2.8c0,1.1,0.1,2.1,0.4,2.9c0.2,0.9,0.6,1.6,1.1,2.1c0.5,0.6,1,1,1.7,1.3c0.6,0.3,1.4,0.5,2.2,0.5
		s1.4-0.1,1.9-0.3c0.5-0.2,0.9-0.4,1.2-0.6s0.6-0.4,0.8-0.6s0.4-0.3,0.6-0.3c0.3,0,0.5,0.1,0.6,0.3l0.9,1.2c-0.8,1-1.8,1.7-2.9,2.1
		s-2.4,0.7-3.7,0.7c-1.1,0-2.2-0.2-3.2-0.6s-1.8-1-2.5-1.8s-1.3-1.8-1.7-2.9c-0.4-1.2-0.6-2.5-0.6-3.9c0-1.3,0.2-2.6,0.6-3.7
		s0.9-2.1,1.6-3c0.7-0.8,1.6-1.5,2.7-1.9c1.1-0.5,2.3-0.7,3.6-0.7s2.4,0.2,3.4,0.6s1.8,1,2.6,1.7L139.1,81.6z"/>
	<path class="st0" d="M150.8,78.1c1.3,0,2.5,0.2,3.6,0.7s2,1.1,2.7,1.9s1.3,1.8,1.7,2.9s0.6,2.4,0.6,3.8s-0.2,2.7-0.6,3.9
		c-0.4,1.1-1,2.1-1.7,2.9s-1.6,1.4-2.7,1.9c-1.1,0.4-2.3,0.7-3.6,0.7s-2.5-0.2-3.6-0.7c-1.1-0.4-2-1.1-2.7-1.9s-1.3-1.8-1.7-2.9
		s-0.6-2.4-0.6-3.9c0-1.4,0.2-2.7,0.6-3.8c0.4-1.1,1-2.1,1.7-2.9s1.7-1.4,2.7-1.9S149.5,78.1,150.8,78.1z M150.8,94.2
		c1.8,0,3.1-0.6,4-1.8c0.9-1.2,1.3-2.9,1.3-5c0-2.2-0.4-3.8-1.3-5c-0.9-1.2-2.2-1.8-4-1.8c-0.9,0-1.7,0.2-2.4,0.5s-1.2,0.8-1.7,1.3
		s-0.8,1.3-1,2.2c-0.2,0.9-0.3,1.8-0.3,2.9s0.1,2,0.3,2.9c0.2,0.8,0.6,1.6,1,2.1s1,1,1.7,1.3S149.9,94.2,150.8,94.2z"/>
	<path class="st0" d="M163.3,96.4v-18h1.9c0.5,0,0.7,0.2,0.9,0.7l0.2,2c0.8-0.9,1.7-1.6,2.6-2.1c1-0.5,2.1-0.8,3.4-0.8
		c1,0,1.9,0.2,2.6,0.5c0.8,0.3,1.4,0.8,1.9,1.4s0.9,1.3,1.2,2.2c0.3,0.8,0.4,1.8,0.4,2.8v11.5h-3.2V84.9c0-1.4-0.3-2.4-0.9-3.2
		c-0.6-0.8-1.6-1.1-2.9-1.1c-0.9,0-1.8,0.2-2.6,0.7s-1.6,1.1-2.3,1.8v13.3C166.5,96.4,163.3,96.4,163.3,96.4z"/>
	<path class="st0" d="M188.6,96.7c-1.4,0-2.5-0.4-3.3-1.2c-0.8-0.8-1.2-1.9-1.2-3.4V81H182c-0.2,0-0.4-0.1-0.5-0.2s-0.2-0.3-0.2-0.5
		V79l3-0.4L185,73c0-0.2,0.1-0.3,0.2-0.4s0.3-0.2,0.5-0.2h1.6v6.2h5.2V81h-5.2v10.9c0,0.8,0.2,1.3,0.6,1.7c0.4,0.4,0.8,0.6,1.4,0.6
		c0.3,0,0.6,0,0.9-0.1c0.2-0.1,0.5-0.2,0.6-0.3c0.2-0.1,0.3-0.2,0.5-0.3c0.1-0.1,0.2-0.1,0.3-0.1c0.2,0,0.3,0.1,0.4,0.3l0.9,1.5
		c-0.5,0.5-1.2,0.9-2,1.2C190.3,96.6,189.5,96.7,188.6,96.7z"/>
	<path class="st0" d="M200.7,72.7c0,0.3-0.1,0.6-0.2,0.9s-0.3,0.5-0.5,0.7s-0.4,0.4-0.7,0.5s-0.6,0.2-0.9,0.2s-0.6-0.1-0.9-0.2
		s-0.5-0.3-0.7-0.5s-0.4-0.4-0.5-0.7s-0.2-0.6-0.2-0.9s0.1-0.6,0.2-0.9c0.1-0.3,0.3-0.5,0.5-0.7s0.4-0.4,0.7-0.5s0.6-0.2,0.9-0.2
		s0.6,0.1,0.9,0.2c0.3,0.1,0.5,0.3,0.7,0.5s0.4,0.5,0.5,0.7C200.7,72.1,200.7,72.4,200.7,72.7z M200,78.4v18.1h-3.2V78.4H200z"/>
	<path class="st0" d="M205.6,96.4v-18h1.9c0.5,0,0.7,0.2,0.9,0.7l0.2,2c0.8-0.9,1.7-1.6,2.6-2.1c1-0.5,2.1-0.8,3.4-0.8
		c1,0,1.9,0.2,2.6,0.5c0.8,0.3,1.4,0.8,1.9,1.4s0.9,1.3,1.2,2.2s0.4,1.8,0.4,2.8v11.5h-3.2V84.9c0-1.4-0.3-2.4-0.9-3.2
		s-1.6-1.1-2.9-1.1c-0.9,0-1.8,0.2-2.6,0.7s-1.6,1.1-2.3,1.8v13.3C208.8,96.4,205.6,96.4,205.6,96.4z"/>
	<path class="st0" d="M228.2,78.4v11.5c0,1.4,0.3,2.4,0.9,3.2c0.6,0.8,1.6,1.1,2.9,1.1c0.9,0,1.8-0.2,2.6-0.7s1.6-1.1,2.3-1.8V78.4
		h3.2v18.1h-1.9c-0.5,0-0.7-0.2-0.9-0.7l-0.2-1.9c-0.8,0.9-1.7,1.6-2.6,2.1c-1,0.5-2.1,0.8-3.4,0.8c-1,0-1.9-0.2-2.6-0.5
		s-1.4-0.8-1.9-1.4s-0.9-1.3-1.2-2.2c-0.3-0.8-0.4-1.8-0.4-2.8V78.4H228.2z"/>
	<path class="st0" d="M248.1,78.4v11.5c0,1.4,0.3,2.4,0.9,3.2c0.6,0.8,1.6,1.1,2.9,1.1c0.9,0,1.8-0.2,2.6-0.7s1.6-1.1,2.3-1.8V78.4
		h3.2v18.1h-1.9c-0.5,0-0.7-0.2-0.9-0.7l-0.2-1.9c-0.8,0.9-1.7,1.6-2.6,2.1c-1,0.5-2.1,0.8-3.4,0.8c-1,0-1.9-0.2-2.6-0.5
		s-1.4-0.8-1.9-1.4s-0.9-1.3-1.2-2.2c-0.3-0.8-0.4-1.8-0.4-2.8V78.4H248.1z"/>
	<path class="st0" d="M265.2,96.4v-18h1.9c0.5,0,0.7,0.2,0.9,0.7l0.2,1.9c0.7-0.8,1.4-1.5,2.2-2c0.8-0.5,1.8-0.8,2.9-0.8
		c1.2,0,2.2,0.3,3,1s1.3,1.6,1.6,2.7c0.2-0.7,0.6-1.2,1-1.7s0.9-0.9,1.4-1.2s1.1-0.5,1.6-0.7s1.2-0.2,1.8-0.2c1,0,1.8,0.2,2.5,0.5
		s1.4,0.7,1.9,1.3c0.5,0.6,0.9,1.3,1.2,2.2c0.3,0.9,0.4,1.8,0.4,2.9v11.5h-3.2V84.9c0-1.4-0.3-2.5-0.9-3.2s-1.5-1.1-2.7-1.1
		c-0.5,0-1,0.1-1.5,0.3c-0.5,0.2-0.9,0.5-1.2,0.8c-0.4,0.4-0.6,0.8-0.8,1.3c-0.2,0.5-0.3,1.2-0.3,1.9v11.5h-3.2V84.9
		c0-1.5-0.3-2.5-0.9-3.2s-1.4-1.1-2.6-1.1c-0.8,0-1.5,0.2-2.2,0.6s-1.3,1-1.8,1.7v13.5H265.2z"/>
</g>
<g id="dots">
	<path class="st1" d="M185.2,44.7c0.1,0.5,0.2,1.2,0.2,1.8c0,0.3,0,0.7-0.1,1s-0.1,0.7-0.2,1c-0.1,0.6-0.4,1.2-0.7,1.8
		c-1.4,2.4-3.9,4.1-6.9,4.1c-4.3,0-7.9-3.5-7.9-8c0-0.5,0.1-1.1,0.1-1.6c0.5-2.6,2.3-4.7,4.7-5.7c1-0.4,2-0.6,3.1-0.6
		s2.1,0.2,3.1,0.6c1.8,0.7,3.2,2.1,4,3.9C184.9,43.5,185.1,44.1,185.2,44.7 M30.7,38.5c-4.3,0-7.9,3.5-7.9,8s3.5,8,7.9,8
		s7.9-3.5,7.9-8S35,38.5,30.7,38.5 M257.1,39.2c-0.2-0.1-0.5-0.2-0.7-0.3c-0.3-0.1-0.7-0.2-1.2-0.3c-0.4-0.1-0.8-0.1-1.2-0.1
		c-0.8,0-1.6,0.1-2.4,0.3c-0.3,0.1-0.5,0.1-0.7,0.3c-2.4,1-4.1,3.1-4.7,5.7c-0.1,0.5-0.1,1-0.1,1.6c0,2.2,0.9,4.1,2.3,5.6
		c0.3,0.3,0.7,0.7,1.2,1c0.6,0.4,1.4,0.7,2,1c0.7,0.2,1.6,0.3,2.4,0.3c0.4,0,0.8,0,1.2-0.1s0.7-0.1,1.2-0.3c0.7-0.2,1.4-0.5,2-1
		c0.4-0.3,0.8-0.6,1.2-1c1.4-1.4,2.3-3.4,2.3-5.6c0-0.5-0.1-1.1-0.1-1.6C261.3,42.3,259.5,40.2,257.1,39.2 M96.1,39.2
		c-1-0.4-2-0.6-3.1-0.6s-2.1,0.2-3.1,0.6c-2.4,1-4.1,3.1-4.7,5.7c-0.1,0.5-0.1,1-0.1,1.6c0,4.3,3.5,8,7.9,8c4.3,0,7.9-3.5,7.9-8
		c0-0.5-0.1-1.1-0.1-1.6C100.2,42.3,98.4,40.2,96.1,39.2"/>
</g>
</svg>
