<?xml version="1.0" encoding="utf-8"?>
<!-- Generator: Adobe Illustrator 24.1.0, SVG Export Plug-In . SVG Version: 6.00 Build 0)  -->
<svg version="1.1" id="Layer_1" xmlns="http://www.w3.org/2000/svg" xmlns:xlink="http://www.w3.org/1999/xlink" x="0px" y="0px"
	 viewBox="0 0 96 96" style="enable-background:new 0 0 96 96;" xml:space="preserve">
<g>
	<g>
		<path d="M31.2,65.9c-4.3,0-8.6-1.6-11.9-4.9c-6.6-6.6-6.6-17.3,0-23.9s17.3-6.6,23.9,0c1.5,1.5,1.5,3.9,0,5.4s-3.9,1.5-5.4,0
			c-3.7-3.7-9.5-3.7-13.2,0s-3.7,9.5,0,13.2c3.6,3.6,9.3,3.7,13,0.1L52,37.5c0.1-0.1,0.2-0.2,0.3-0.3c6.6-6.6,17.3-6.6,23.9,0
			s6.6,17.3,0,23.9s-17.3,6.6-23.9,0c-1.5-1.5-1.5-3.9,0-5.4s3.9-1.5,5.4,0c1.8,1.8,4.1,2.8,6.6,2.8s4.8-1,6.6-2.8
			c3.7-3.7,3.7-9.5,0-13.2c-3.6-3.6-9.3-3.7-13-0.1L43.5,60.7c-0.1,0.1-0.2,0.2-0.3,0.3C39.9,64.3,35.5,65.9,31.2,65.9z"/>
	</g>
	<path d="M48,9.5c21.2,0,38.4,17.2,38.4,38.4S69.2,86.3,48,86.3S9.6,69.1,9.6,47.9S26.8,9.5,48,9.5 M48,2C22.6,2,2,22.6,2,48
		s20.6,46,46,46s46-20.6,46-46S73.4,2,48,2L48,2z"/>
</g>
</svg>
