<?xml version="1.0" encoding="utf-8"?>
<!-- Generator: Adobe Illustrator 24.1.0, SVG Export Plug-In . SVG Version: 6.00 Build 0)  -->
<svg version="1.1" id="Layer_1" xmlns="http://www.w3.org/2000/svg" xmlns:xlink="http://www.w3.org/1999/xlink" x="0px" y="0px"
	 viewBox="0 0 544 161" style="enable-background:new 0 0 544 161;" xml:space="preserve">
<style type="text/css">
	.st0{fill:#495260;}
	.st1{fill:#79B522;}
</style>
<path class="st0" d="M512.3,47.3h-2.4v-1.4h6.4v1.4h-2.4V55h-1.4L512.3,47.3L512.3,47.3z M517.5,45.9h2.3l2.1,6.4l0,0l2.1-6.4h2.3
	V55h-1.4v-7.3l0,0l-2.4,7.3h-1l-2.4-7.3l0,0V55h-1.4V45.9L517.5,45.9z M467.5,45.6c-3.8,0-6.8,2.6-7.3,6.3
	c-5.1-5.1-12.2-7.8-20.4-7.8c-20.4,0-36.2,16-36.2,36.4c0,0.5,0,0.9,0,1.4c7.7,3,13.1,10.5,13.1,19.2c0,2.4-0.3,4.7-1.2,6.8
	c6.4,5.6,14.8,8.9,24.2,8.9c8.2,0,15.9-4,20.4-8.4c0.3,4,3.3,6.8,7.3,6.8c4.7,0,7.5-2.8,7.5-7.5V53.1
	C475,48.5,472.1,45.6,467.5,45.6 M439.6,100.6c-11.2,0-20.2-9.1-20.2-20.2c0-11.2,9.1-20.2,20.2-20.2c11.2,0,20.2,9.1,20.2,20.2
	S450.8,100.6,439.6,100.6 M334.7,45.6c-3.8,0-6.8,2.6-7.3,6.3c-5.1-5.1-12.2-7.8-20.4-7.8c-20.4,0-36.2,16-36.2,36.4
	c0,20.6,15.7,36.2,36.2,36.2c8.2,0,15.9-4,20.4-8.4c0.3,4,3.3,6.8,7.3,6.8c4.7,0,7.5-2.8,7.5-7.5V53.1
	C342.2,48.5,339.3,45.6,334.7,45.6 M306.3,100.6c-11.2,0-20.2-9.1-20.2-20.2c0-11.2,9.1-20.2,20.2-20.2c11.2,0,20.2,9.1,20.2,20.2
	S317.5,100.6,306.3,100.6 M78.2,18.7c-4.7,0-7.5,3-7.5,7.5V52C66,47,58.9,44,50.5,44c-19.3,0-36.2,17.1-36.2,36.4
	c0,19.3,16.9,36.2,36.2,36.2c8.5,0,16.6-4.4,20.9-8.7c0.9,4.7,3.7,7.3,8.2,7.3c3.7,0,6.3-2.8,6.3-6.8V26
	C85.9,21.7,82.7,18.7,78.2,18.7 M50.5,100.6c-11.2,0-20.2-9.1-20.2-20.2c0-11.2,9.1-20.2,20.2-20.2s20.2,9.1,20.2,20.2
	C70.5,91.6,61.7,100.6,50.5,100.6 M188.2,45.6c-4.9,0-7.3,2.3-8,7.3c-4.5-4.5-12.4-8.9-20.9-8.9C139.9,44,123,60.9,123,80.4
	c0,19.3,16.9,36.4,36.2,36.4c8.7,0,15.7-2.8,20-7.7c-0.5,14.6-7.5,21.8-21.6,21.8c-4.7,0-7.5,3-7.5,7.5c0,4.9,3,7.5,8,7.5
	c26.8,0,36.2-19.5,36.2-36.2V52.2C194.6,48.4,192,45.6,188.2,45.6 M159.1,100.6c-11.2,0-20.2-9.1-20.2-20.2
	c0-11.2,9.1-20.2,20.2-20.2c11.2,0,20.2,9.1,20.2,20.2C179.1,91.6,170.2,100.6,159.1,100.6 M495.8,45c-4.2,0-7.5,3.1-7.5,7.5
	l-0.2,55.4c0,4.5,3.1,7.5,7.5,7.5c4.7,0,7.5-2.8,7.5-7.5l0.2-55.4C503.2,48,500.3,45,495.8,45 M105.2,44.7c-4.2,0-7.5,3.1-7.5,7.5
	v55.4c0,4.5,3.1,7.5,7.5,7.5c4.7,0,7.5-2.8,7.5-7.5V52.2C112.9,47.8,109.7,44.7,105.2,44.7 M215.4,44.9c-4.2,0-7.5,3.1-7.5,7.5v55.2
	c0,4.5,3.1,7.5,7.5,7.5c4.7,0,7.5-2.8,7.5-7.5V52.4C222.8,47.8,219.9,44.9,215.4,44.9 M261.9,100.6c-4.9-0.3-8-1.7-8-7.5V61.3h3.8
	c4.2,0,7.5-3.1,7.5-7.5c0-4.7-3-7.5-7.5-7.5h-3.8V26c0-4.7-2.8-7.5-7.5-7.5c-4.4,0-7.5,3.1-7.5,7.5v20.2c-3.7,0.5-5.8,3.3-5.8,7.3
	c0,3.8,2.4,6.8,5.8,7.3V93c0,13.9,7.5,22,20.6,22c5.4,0,8.7-2.6,8.7-7S265.7,101,261.9,100.6 M364,18.7c-4.4,0-7.5,3.1-7.5,7.5v81.6
	c0,4.5,3.1,7.5,7.5,7.5c4.7,0,7.5-2.8,7.5-7.5V26C371.7,21.5,368.7,18.7,364,18.7 M407.9,93.1c-0.2-0.3-0.5-0.7-0.9-1
	c-0.7-0.9-1.4-1.6-2.4-2.3c-0.3-0.2-0.5-0.5-0.9-0.5c-1.6-1-3.3-1.7-5.4-2.1c-0.9-0.2-1.6-0.2-2.4-0.2c-2.4,0-4.7,0.5-6.8,1.7
	c-0.3,0.2-0.9,0.5-1.2,0.7c-3.8,2.4-6.3,6.8-6.3,11.7c0,4.9,2.4,9.2,6.3,11.7c0.3,0.2,0.7,0.5,1.2,0.7c2.1,1,4.2,1.7,6.8,1.7
	c3.5,0,6.4-1.2,9.1-3.1c0.7-0.5,1.2-1.2,1.9-1.9c0.2-0.3,0.5-0.7,0.9-1c0.5-0.7,0.9-1.6,1.2-2.4c0.7-1.7,1-3.5,1-5.6s-0.3-3.8-1-5.6
	C408.8,94.7,408.3,93.8,407.9,93.1"/>
<path class="st1" d="M319.7,77.3c0.2,0.9,0.3,2.1,0.3,3.1c0,0.5,0,1.2-0.2,1.7c-0.2,0.5-0.2,1.2-0.3,1.7c-0.2,1-0.7,2.1-1.2,3.1
	c-2.4,4.2-6.8,7.1-12,7.1c-7.5,0-13.8-6.1-13.8-13.9c0-0.9,0.2-1.9,0.2-2.8c0.9-4.5,4-8.2,8.2-9.9c1.7-0.7,3.5-1,5.4-1
	s3.7,0.3,5.4,1c3.1,1.2,5.6,3.7,7,6.8C319.2,75.2,319.6,76.2,319.7,77.3 M50.5,66.7c-7.5,0-13.8,6.1-13.8,13.9s6.1,13.9,13.8,13.9
	c7.5,0,13.8-6.1,13.8-13.9S58,66.7,50.5,66.7 M445,67.7c-0.3-0.2-0.9-0.3-1.2-0.5c-0.5-0.2-1.2-0.3-2.1-0.5
	c-0.7-0.2-1.4-0.2-2.1-0.2c-1.4,0-2.8,0.2-4.2,0.5c-0.5,0.2-0.9,0.2-1.2,0.5c-4.2,1.7-7.1,5.4-8.2,9.9c-0.2,0.9-0.2,1.7-0.2,2.8
	c0,3.8,1.6,7.1,4,9.8c0.5,0.5,1.2,1.2,2.1,1.7c1,0.7,2.4,1.2,3.5,1.7c1.2,0.3,2.8,0.5,4.2,0.5c0.7,0,1.4,0,2.1-0.2
	c0.7-0.2,1.2-0.2,2.1-0.5c1.2-0.3,2.4-0.9,3.5-1.7c0.7-0.5,1.4-1,2.1-1.7c2.4-2.4,4-5.9,4-9.8c0-0.9-0.2-1.9-0.2-2.8
	C452.2,73.1,449.2,69.4,445,67.7 M164.3,67.7c-1.7-0.7-3.5-1-5.4-1s-3.7,0.3-5.4,1c-4.2,1.7-7.1,5.4-8.2,9.9
	c-0.2,0.9-0.2,1.7-0.2,2.8c0,7.5,6.1,13.9,13.8,13.9c7.5,0,13.8-6.1,13.8-13.9c0-0.9-0.2-1.9-0.2-2.8
	C171.6,73.1,168.5,69.4,164.3,67.7"/>
</svg>
