<?xml version="1.0" encoding="utf-8"?>
<!-- Generator: Adobe Illustrator 24.1.0, SVG Export Plug-In . SVG Version: 6.00 Build 0)  -->
<svg version="1.1" id="Layer_1" xmlns="http://www.w3.org/2000/svg" xmlns:xlink="http://www.w3.org/1999/xlink" x="0px" y="0px"
	 viewBox="0 0 256 256" style="enable-background:new 0 0 256 256;" xml:space="preserve">
<path d="M128,22.3c58.3,0,105.7,47.5,105.7,105.7S186.3,233.7,128,233.7S22.3,186.3,22.3,128S69.5,22.3,128,22.3 M128,1
	C57.9,1,1,57.9,1,128s56.9,127,127,127s127-56.9,127-127S198.1,1,128,1L128,1z"/>
<g>
	<path d="M186.1,96c0,9.4-2.1,18.1-6.4,26.2c-4.3,8-9.8,14.6-16.7,19.6v14.5c0,4.6-2.5,7.1-7.6,7.6l-52.7,4.1h-0.7
		c-2.3,0-4.1-0.7-5.5-2.1c-1.8-1.8-2.8-3.7-2.8-5.5v-18.6C78.4,131.2,70.7,115.9,70.7,96c0-16.1,5.7-29.8,17-41.2
		c11.4-11.4,24.9-17.1,40.5-17.1c15.6,0,29.1,5.7,40.5,17.1C180.1,66.2,185.9,79.9,186.1,96z M170.3,96c0-11.9-4.1-22-12.4-30.3
		s-18.1-12.4-29.6-12.4c-11.5,0-21.4,4.1-29.6,12.4C90.4,73.9,86.2,84,86.2,96c0,15.8,6.4,27.4,19.3,34.8c2.3,1.4,3.4,3.6,3.4,6.5
		v14.8l38.6-3.1v-11.7c0-3,1.3-5.2,3.8-6.5C164,123.9,170.3,112.3,170.3,96z M159.4,174.8c-1.5-1.4-3.4-1.9-5.7-1.7l-52.4,3.8
		c-2.1,0.2-3.8,1.2-5.3,2.8c-1.5,1.6-2.1,3.4-1.9,5.5c0.7,4.8,3.3,7.2,7.9,7.2h0.3l52.4-4.1c2.3-0.2,4.1-1.1,5.5-2.6
		c1.4-1.5,1.9-3.4,1.7-5.7C161.8,177.9,160.9,176.2,159.4,174.8z M142.7,198.9c-1.6-1.4-3.4-1.9-5.5-1.7l-18.9,1.4
		c-2.1,0.5-3.8,1.4-5.3,2.9c-1.5,1.5-2.1,3.3-1.9,5.3c0.9,4.8,3.6,7.2,7.9,7.2h0.3l18.9-1.4c2.1-0.5,3.8-1.4,5.3-2.9
		c1.5-1.5,2.1-3.3,1.9-5.3C145.3,202.2,144.3,200.3,142.7,198.9z M153.6,76.7c-4-5-8.4-8.5-13.3-10.3c-1.8-0.5-3.6-0.3-5.2,0.5
		c-1.6,0.8-2.6,2-3.1,3.6c-1.6,4.1-0.3,7,3.8,8.6c0.9,0.2,2.1,0.8,3.4,1.7c1.4,0.9,2.8,2.6,4.3,5.2c1.5,2.5,2.1,5.4,1.9,8.6
		c-0.2,1.8,0.3,3.4,1.6,4.8c1.3,1.4,2.7,2.2,4.3,2.4h0.7c3.9,0,6.1-2.1,6.5-6.2C159.3,88,157.6,81.7,153.6,76.7z"/>
</g>
</svg>
