<?xml version="1.0" encoding="utf-8"?>
<!-- Generator: Adobe Illustrator 24.1.0, SVG Export Plug-In . SVG Version: 6.00 Build 0)  -->
<svg version="1.1" id="Layer_1" xmlns="http://www.w3.org/2000/svg" xmlns:xlink="http://www.w3.org/1999/xlink" x="0px" y="0px"
	 viewBox="0 0 990 394" style="enable-background:new 0 0 990 394;" xml:space="preserve">
<style type="text/css">
	.st0{fill:#495260;}
	.st1{fill:#79B522;}
	.st2{enable-background:new    ;}
	.st3{fill:#FFFFFF;}
</style>
<rect x="497.5" class="st0" width="492.6" height="395"/>
<path class="st0" d="M437.1,230.2h-1.4v-0.8h3.7v0.8H438v4.4h-0.8L437.1,230.2L437.1,230.2z M440.1,229.4h1.3l1.2,3.7l0,0l1.2-3.7
	h1.3v5.2h-0.8v-4.2l0,0l-1.4,4.2h-0.6l-1.4-4.2l0,0v4.2h-0.8L440.1,229.4L440.1,229.4z M411.4,229.2c-2.2,0-3.9,1.5-4.2,3.6
	c-2.9-2.9-7-4.5-11.7-4.5c-11.7,0-20.8,9.2-20.8,20.9c0,0.3,0,0.5,0,0.8c4.4,1.7,7.5,6,7.5,11c0,1.4-0.2,2.7-0.7,3.9
	c3.7,3.2,8.5,5.1,13.9,5.1c4.7,0,9.1-2.3,11.7-4.8c0.2,2.3,1.9,3.9,4.2,3.9c2.7,0,4.3-1.6,4.3-4.3v-31.3
	C415.7,230.9,414,229.2,411.4,229.2 M395.4,260.8c-6.4,0-11.6-5.2-11.6-11.6s5.2-11.6,11.6-11.6s11.6,5.2,11.6,11.6
	C407,255.7,401.8,260.8,395.4,260.8 M335.2,229.2c-2.2,0-3.9,1.5-4.2,3.6c-2.9-2.9-7-4.5-11.7-4.5c-11.7,0-20.8,9.2-20.8,20.9
	c0,11.8,9,20.8,20.8,20.8c4.7,0,9.1-2.3,11.7-4.8c0.2,2.3,1.9,3.9,4.2,3.9c2.7,0,4.3-1.6,4.3-4.3v-31.3
	C339.5,230.9,337.8,229.2,335.2,229.2 M318.9,260.8c-6.4,0-11.6-5.2-11.6-11.6s5.2-11.6,11.6-11.6s11.6,5.2,11.6,11.6
	C330.5,255.7,325.3,260.8,318.9,260.8 M188,213.8c-2.7,0-4.3,1.7-4.3,4.3v14.8c-2.7-2.9-6.8-4.6-11.6-4.6
	c-11.1,0-20.8,9.8-20.8,20.9S161,270,172.1,270c4.9,0,9.5-2.5,12-5c0.5,2.7,2.1,4.2,4.7,4.2c2.1,0,3.6-1.6,3.6-3.9V218
	C192.4,215.5,190.6,213.8,188,213.8 M172.1,260.8c-6.4,0-11.6-5.2-11.6-11.6s5.2-11.6,11.6-11.6s11.6,5.2,11.6,11.6
	C183.6,255.7,178.5,260.8,172.1,260.8 M251.1,229.2c-2.8,0-4.2,1.3-4.6,4.2c-2.6-2.6-7.1-5.1-12-5.1c-11.1,0-20.8,9.7-20.8,20.9
	c0,11.1,9.7,20.9,20.8,20.9c5,0,9-1.6,11.5-4.4c-0.3,8.4-4.3,12.5-12.4,12.5c-2.7,0-4.3,1.7-4.3,4.3c0,2.8,1.7,4.3,4.6,4.3
	c15.4,0,20.8-11.2,20.8-20.8v-33C254.8,230.9,253.3,229.2,251.1,229.2 M234.4,260.8c-6.4,0-11.6-5.2-11.6-11.6s5.2-11.6,11.6-11.6
	c6.4,0,11.6,5.2,11.6,11.6C245.9,255.7,240.8,260.8,234.4,260.8 M427.6,229c-2.4,0-4.3,1.8-4.3,4.3l-0.1,31.8c0,2.6,1.8,4.3,4.3,4.3
	c2.7,0,4.3-1.6,4.3-4.3l0.1-31.8C431.9,230.7,430.2,229,427.6,229 M203.5,228.8c-2.4,0-4.3,1.8-4.3,4.3v31.8c0,2.6,1.8,4.3,4.3,4.3
	c2.7,0,4.3-1.6,4.3-4.3v-31.8C207.9,230.5,206.1,228.8,203.5,228.8 M266.7,228.9c-2.4,0-4.3,1.8-4.3,4.3v31.7c0,2.6,1.8,4.3,4.3,4.3
	c2.7,0,4.3-1.6,4.3-4.3v-31.7C271,230.6,269.3,228.9,266.7,228.9 M293.4,260.8c-2.8-0.2-4.6-1-4.6-4.3v-18.3h2.2
	c2.4,0,4.3-1.8,4.3-4.3c0-2.7-1.7-4.3-4.3-4.3h-2.2v-11.5c0-2.7-1.6-4.3-4.3-4.3c-2.5,0-4.3,1.8-4.3,4.3v11.6
	c-2.1,0.3-3.3,1.9-3.3,4.2c0,2.2,1.4,3.9,3.3,4.2v18.4c0,8,4.3,12.6,11.8,12.6c3.1,0,5-1.5,5-4S295.6,261,293.4,260.8 M352,213.8
	c-2.5,0-4.3,1.8-4.3,4.3v46.8c0,2.6,1.8,4.3,4.3,4.3c2.7,0,4.3-1.6,4.3-4.3v-46.8C356.4,215.4,354.7,213.8,352,213.8 M377.2,256.5
	c-0.1-0.2-0.3-0.4-0.5-0.6c-0.4-0.5-0.8-0.9-1.4-1.3c-0.2-0.1-0.3-0.3-0.5-0.3c-0.9-0.6-1.9-1-3.1-1.2c-0.5-0.1-0.9-0.1-1.4-0.1
	c-1.4,0-2.7,0.3-3.9,1c-0.2,0.1-0.5,0.3-0.7,0.4c-2.2,1.4-3.6,3.9-3.6,6.7s1.4,5.3,3.6,6.7c0.2,0.1,0.4,0.3,0.7,0.4
	c1.2,0.6,2.4,1,3.9,1c2,0,3.7-0.7,5.2-1.8c0.4-0.3,0.7-0.7,1.1-1.1c0.1-0.2,0.3-0.4,0.5-0.6c0.3-0.4,0.5-0.9,0.7-1.4
	c0.4-1,0.6-2,0.6-3.2s-0.2-2.2-0.6-3.2C377.7,257.4,377.4,257,377.2,256.5"/>
<path class="st1" d="M326.6,247.4c0.1,0.5,0.2,1.2,0.2,1.8c0,0.3,0,0.7-0.1,1s-0.1,0.7-0.2,1c-0.1,0.6-0.4,1.2-0.7,1.8
	c-1.4,2.4-3.9,4.1-6.9,4.1c-4.3,0-7.9-3.5-7.9-8c0-0.5,0.1-1.1,0.1-1.6c0.5-2.6,2.3-4.7,4.7-5.7c1-0.4,2-0.6,3.1-0.6
	s2.1,0.2,3.1,0.6c1.8,0.7,3.2,2.1,4,3.9C326.3,246.3,326.5,246.9,326.6,247.4 M172.1,241.3c-4.3,0-7.9,3.5-7.9,8s3.5,8,7.9,8
	c4.3,0,7.9-3.5,7.9-8S176.4,241.3,172.1,241.3 M398.5,241.9c-0.2-0.1-0.5-0.2-0.7-0.3c-0.3-0.1-0.7-0.2-1.2-0.3s-0.8-0.1-1.2-0.1
	c-0.8,0-1.6,0.1-2.4,0.3c-0.3,0.1-0.5,0.1-0.7,0.3c-2.4,1-4.1,3.1-4.7,5.7c-0.1,0.5-0.1,1-0.1,1.6c0,2.2,0.9,4.1,2.3,5.6
	c0.3,0.3,0.7,0.7,1.2,1c0.6,0.4,1.4,0.7,2,1c0.7,0.2,1.6,0.3,2.4,0.3c0.4,0,0.8,0,1.2-0.1c0.4-0.1,0.7-0.1,1.2-0.3
	c0.7-0.2,1.4-0.5,2-1c0.4-0.3,0.8-0.6,1.2-1c1.4-1.4,2.3-3.4,2.3-5.6c0-0.5-0.1-1.1-0.1-1.6C402.6,245.1,400.9,243,398.5,241.9
	 M237.4,241.9c-1-0.4-2-0.6-3.1-0.6s-2.1,0.2-3.1,0.6c-2.4,1-4.1,3.1-4.7,5.7c-0.1,0.5-0.1,1-0.1,1.6c0,4.3,3.5,8,7.9,8
	c4.3,0,7.9-3.5,7.9-8c0-0.5-0.1-1.1-0.1-1.6C241.6,245.1,239.8,243,237.4,241.9"/>
<g class="st2">
	<path class="st0" d="M311,299.2h-1.4c-0.3,0-0.6,0-0.7-0.1c-0.2-0.1-0.3-0.3-0.4-0.6l-0.4-1.7c-0.5,0.4-0.9,0.8-1.4,1.2
		c-0.5,0.3-0.9,0.6-1.4,0.9c-0.5,0.2-1,0.4-1.6,0.5c-0.6,0.1-1.2,0.2-1.9,0.2c-0.7,0-1.4-0.1-2-0.3c-0.6-0.2-1.1-0.5-1.6-0.9
		c-0.5-0.4-0.8-0.9-1.1-1.5c-0.3-0.6-0.4-1.3-0.4-2.1c0-0.7,0.2-1.4,0.6-2.1c0.4-0.7,1-1.3,1.9-1.8c0.9-0.5,2-0.9,3.4-1.3
		s3.1-0.5,5.2-0.5v-1.4c0-1.4-0.3-2.5-0.9-3.2s-1.5-1.1-2.7-1.1c-0.8,0-1.4,0.1-2,0.3c-0.5,0.2-1,0.4-1.4,0.7s-0.7,0.5-1,0.7
		c-0.3,0.2-0.6,0.3-0.8,0.3c-0.2,0-0.4-0.1-0.6-0.2c-0.2-0.1-0.3-0.3-0.4-0.4l-0.6-1c1-1,2.1-1.7,3.2-2.2c1.2-0.5,2.4-0.7,3.8-0.7
		c1,0,1.9,0.2,2.7,0.5s1.4,0.8,2,1.4c0.5,0.6,0.9,1.3,1.2,2.2c0.3,0.8,0.4,1.8,0.4,2.8V299.2z M302.7,297.2c0.6,0,1.1-0.1,1.5-0.2
		c0.5-0.1,0.9-0.3,1.3-0.5s0.8-0.5,1.2-0.8s0.7-0.6,1.1-1v-3.7c-1.5,0-2.7,0.1-3.7,0.3c-1,0.2-1.9,0.4-2.5,0.7
		c-0.6,0.3-1.1,0.7-1.4,1.1c-0.3,0.4-0.4,0.9-0.4,1.4c0,0.5,0.1,0.9,0.2,1.2c0.2,0.3,0.4,0.6,0.6,0.9c0.3,0.2,0.6,0.4,0.9,0.5
		C301.9,297.2,302.3,297.2,302.7,297.2z"/>
	<path class="st0" d="M315.8,299.2v-18.1h1.9c0.5,0,0.7,0.2,0.9,0.7l0.2,2c0.8-0.9,1.7-1.6,2.6-2.1c1-0.5,2.1-0.8,3.4-0.8
		c1,0,1.9,0.2,2.6,0.5c0.8,0.3,1.4,0.8,1.9,1.4c0.5,0.6,0.9,1.3,1.2,2.2c0.3,0.8,0.4,1.8,0.4,2.8v11.5h-3.2v-11.5
		c0-1.4-0.3-2.4-0.9-3.2c-0.6-0.8-1.6-1.1-2.9-1.1c-0.9,0-1.8,0.2-2.6,0.7s-1.6,1.1-2.3,1.8v13.3H315.8z"/>
	<path class="st0" d="M349,299.2h-1.4c-0.3,0-0.6,0-0.7-0.1c-0.2-0.1-0.3-0.3-0.4-0.6l-0.4-1.7c-0.5,0.4-0.9,0.8-1.4,1.2
		c-0.5,0.3-0.9,0.6-1.4,0.9c-0.5,0.2-1,0.4-1.6,0.5c-0.6,0.1-1.2,0.2-1.9,0.2c-0.7,0-1.4-0.1-2-0.3c-0.6-0.2-1.1-0.5-1.6-0.9
		c-0.5-0.4-0.8-0.9-1.1-1.5c-0.3-0.6-0.4-1.3-0.4-2.1c0-0.7,0.2-1.4,0.6-2.1c0.4-0.7,1-1.3,1.9-1.8c0.9-0.5,2-0.9,3.4-1.3
		s3.1-0.5,5.2-0.5v-1.4c0-1.4-0.3-2.5-0.9-3.2s-1.5-1.1-2.7-1.1c-0.8,0-1.4,0.1-2,0.3c-0.5,0.2-1,0.4-1.4,0.7s-0.7,0.5-1,0.7
		c-0.3,0.2-0.6,0.3-0.8,0.3c-0.2,0-0.4-0.1-0.6-0.2c-0.2-0.1-0.3-0.3-0.4-0.4l-0.6-1c1-1,2.1-1.7,3.2-2.2c1.2-0.5,2.4-0.7,3.8-0.7
		c1,0,1.9,0.2,2.7,0.5s1.4,0.8,2,1.4c0.5,0.6,0.9,1.3,1.2,2.2c0.3,0.8,0.4,1.8,0.4,2.8V299.2z M340.7,297.2c0.6,0,1.1-0.1,1.5-0.2
		c0.5-0.1,0.9-0.3,1.3-0.5s0.8-0.5,1.2-0.8s0.7-0.6,1.1-1v-3.7c-1.5,0-2.7,0.1-3.7,0.3c-1,0.2-1.9,0.4-2.5,0.7
		c-0.6,0.3-1.1,0.7-1.4,1.1c-0.3,0.4-0.4,0.9-0.4,1.4c0,0.5,0.1,0.9,0.2,1.2c0.2,0.3,0.4,0.6,0.6,0.9c0.3,0.2,0.6,0.4,0.9,0.5
		C339.9,297.2,340.3,297.2,340.7,297.2z"/>
	<path class="st0" d="M357.3,272.9v26.3h-3.2v-26.3H357.3z"/>
	<path class="st0" d="M368.2,304.5c-0.1,0.2-0.2,0.4-0.4,0.6c-0.2,0.1-0.4,0.2-0.7,0.2h-2.4l3.3-7.2l-7.5-17h2.7
		c0.3,0,0.5,0.1,0.6,0.2c0.2,0.1,0.3,0.3,0.3,0.5l4.8,11.4c0.1,0.3,0.2,0.5,0.3,0.8c0.1,0.3,0.1,0.5,0.2,0.8
		c0.1-0.3,0.2-0.5,0.2-0.8c0.1-0.3,0.2-0.5,0.3-0.8l4.7-11.4c0.1-0.2,0.2-0.3,0.4-0.5c0.2-0.1,0.4-0.2,0.6-0.2h2.5L368.2,304.5z"/>
	<path class="st0" d="M386.7,299.5c-1.4,0-2.5-0.4-3.3-1.2c-0.8-0.8-1.2-1.9-1.2-3.4v-11.1h-2.2c-0.2,0-0.4-0.1-0.5-0.2
		s-0.2-0.3-0.2-0.5v-1.3l3-0.4l0.7-5.6c0-0.2,0.1-0.3,0.2-0.4c0.1-0.1,0.3-0.2,0.5-0.2h1.6v6.2h5.2v2.3h-5.2v10.9
		c0,0.8,0.2,1.3,0.6,1.7c0.4,0.4,0.8,0.6,1.4,0.6c0.3,0,0.6,0,0.9-0.1c0.2-0.1,0.5-0.2,0.6-0.3c0.2-0.1,0.3-0.2,0.5-0.3
		c0.1-0.1,0.2-0.1,0.3-0.1c0.2,0,0.3,0.1,0.4,0.3l0.9,1.5c-0.5,0.5-1.2,0.9-2,1.2C388.3,299.3,387.5,299.5,386.7,299.5z"/>
	<path class="st0" d="M398.8,275.4c0,0.3-0.1,0.6-0.2,0.9c-0.1,0.3-0.3,0.5-0.5,0.7c-0.2,0.2-0.4,0.4-0.7,0.5
		c-0.3,0.1-0.6,0.2-0.9,0.2s-0.6-0.1-0.9-0.2c-0.3-0.1-0.5-0.3-0.7-0.5c-0.2-0.2-0.4-0.4-0.5-0.7s-0.2-0.6-0.2-0.9s0.1-0.6,0.2-0.9
		c0.1-0.3,0.3-0.5,0.5-0.7c0.2-0.2,0.4-0.4,0.7-0.5c0.3-0.1,0.6-0.2,0.9-0.2s0.6,0.1,0.9,0.2c0.3,0.1,0.5,0.3,0.7,0.5
		c0.2,0.2,0.4,0.5,0.5,0.7C398.7,274.8,398.8,275.1,398.8,275.4z M398.1,281.1v18.1h-3.2v-18.1H398.1z"/>
	<path class="st0" d="M416,284.3c-0.1,0.1-0.2,0.2-0.3,0.3s-0.2,0.1-0.4,0.1s-0.4-0.1-0.6-0.2c-0.2-0.1-0.5-0.3-0.8-0.5
		c-0.3-0.2-0.7-0.3-1.2-0.5c-0.5-0.1-1-0.2-1.7-0.2c-0.9,0-1.7,0.2-2.3,0.5c-0.7,0.3-1.2,0.8-1.7,1.4c-0.5,0.6-0.8,1.3-1,2.2
		c-0.2,0.8-0.3,1.8-0.3,2.8c0,1.1,0.1,2.1,0.4,2.9c0.2,0.9,0.6,1.6,1.1,2.1c0.5,0.6,1,1,1.7,1.3c0.6,0.3,1.4,0.5,2.2,0.5
		c0.8,0,1.4-0.1,1.9-0.3c0.5-0.2,0.9-0.4,1.2-0.6c0.3-0.2,0.6-0.4,0.8-0.6s0.4-0.3,0.6-0.3c0.3,0,0.5,0.1,0.6,0.3l0.9,1.2
		c-0.8,1-1.8,1.7-2.9,2.1c-1.2,0.4-2.4,0.7-3.7,0.7c-1.1,0-2.2-0.2-3.2-0.6c-1-0.4-1.8-1-2.5-1.8c-0.7-0.8-1.3-1.8-1.7-2.9
		s-0.6-2.5-0.6-3.9c0-1.3,0.2-2.6,0.6-3.7s0.9-2.1,1.6-3c0.7-0.8,1.6-1.5,2.7-1.9c1.1-0.5,2.3-0.7,3.6-0.7c1.3,0,2.4,0.2,3.4,0.6
		c1,0.4,1.8,1,2.6,1.7L416,284.3z"/>
	<path class="st0" d="M430.7,284.1c-0.1,0.3-0.4,0.4-0.7,0.4c-0.2,0-0.4-0.1-0.6-0.2s-0.5-0.3-0.8-0.4c-0.3-0.2-0.7-0.3-1.2-0.4
		c-0.5-0.1-1-0.2-1.6-0.2c-0.5,0-1,0.1-1.4,0.2c-0.4,0.1-0.8,0.3-1.1,0.6c-0.3,0.2-0.5,0.5-0.7,0.8s-0.2,0.7-0.2,1
		c0,0.5,0.1,0.9,0.4,1.2c0.3,0.3,0.6,0.6,1.1,0.8c0.4,0.2,0.9,0.4,1.5,0.6c0.6,0.2,1.1,0.4,1.7,0.6c0.6,0.2,1.2,0.4,1.7,0.7
		s1.1,0.5,1.5,0.9c0.4,0.4,0.8,0.8,1.1,1.3c0.3,0.5,0.4,1.1,0.4,1.9c0,0.8-0.1,1.6-0.4,2.3s-0.7,1.3-1.3,1.8s-1.3,0.9-2.1,1.2
		c-0.8,0.3-1.8,0.4-2.9,0.4c-1.3,0-2.4-0.2-3.4-0.6c-1-0.4-1.9-0.9-2.6-1.6l0.8-1.2c0.1-0.2,0.2-0.3,0.3-0.4
		c0.1-0.1,0.3-0.1,0.5-0.1s0.4,0.1,0.7,0.2c0.2,0.2,0.5,0.4,0.9,0.6c0.3,0.2,0.8,0.4,1.2,0.6c0.5,0.2,1.1,0.2,1.8,0.2
		c0.6,0,1.2-0.1,1.6-0.2c0.5-0.2,0.9-0.4,1.2-0.7c0.3-0.3,0.5-0.6,0.7-0.9c0.1-0.4,0.2-0.7,0.2-1.1c0-0.5-0.1-0.9-0.4-1.2
		c-0.3-0.3-0.6-0.6-1.1-0.8s-0.9-0.4-1.5-0.6c-0.6-0.2-1.1-0.4-1.7-0.5c-0.6-0.2-1.2-0.4-1.7-0.7c-0.6-0.2-1.1-0.5-1.5-0.9
		c-0.4-0.4-0.8-0.8-1.1-1.4c-0.3-0.5-0.4-1.2-0.4-2c0-0.7,0.1-1.4,0.4-2s0.7-1.2,1.2-1.7c0.5-0.5,1.2-0.9,2-1.2
		c0.8-0.3,1.7-0.4,2.7-0.4c1.2,0,2.3,0.2,3.2,0.6c0.9,0.4,1.8,0.9,2.5,1.5L430.7,284.1z"/>
</g>
<path class="st3" d="M932.3,230.6h-1.4v-0.8h3.7v0.8h-1.4v4.4h-0.8L932.3,230.6L932.3,230.6z M935.3,229.8h1.3l1.2,3.7l0,0l1.2-3.7
	h1.3v5.2h-0.8v-4.2l0,0l-1.4,4.2h-0.6l-1.4-4.2l0,0v4.2h-0.8V229.8L935.3,229.8z M906.6,229.6c-2.2,0-3.9,1.5-4.2,3.6
	c-2.9-2.9-7-4.5-11.7-4.5c-11.7,0-20.8,9.2-20.8,20.9c0,0.3,0,0.5,0,0.8c4.4,1.7,7.5,6,7.5,11c0,1.4-0.2,2.7-0.7,3.9
	c3.7,3.2,8.5,5.1,13.9,5.1c4.7,0,9.1-2.3,11.7-4.8c0.2,2.3,1.9,3.9,4.2,3.9c2.7,0,4.3-1.6,4.3-4.3v-31.3
	C910.9,231.3,909.2,229.6,906.6,229.6 M890.6,261.2c-6.4,0-11.6-5.2-11.6-11.6s5.2-11.6,11.6-11.6c6.4,0,11.6,5.2,11.6,11.6
	C902.2,256.1,897,261.2,890.6,261.2 M830.4,229.6c-2.2,0-3.9,1.5-4.2,3.6c-2.9-2.9-7-4.5-11.7-4.5c-11.7,0-20.8,9.2-20.8,20.9
	c0,11.8,9,20.8,20.8,20.8c4.7,0,9.1-2.3,11.7-4.8c0.2,2.3,1.9,3.9,4.2,3.9c2.7,0,4.3-1.6,4.3-4.3v-31.3
	C834.7,231.3,833,229.6,830.4,229.6 M814.1,261.2c-6.4,0-11.6-5.2-11.6-11.6s5.2-11.6,11.6-11.6c6.4,0,11.6,5.2,11.6,11.6
	C825.7,256.1,820.5,261.2,814.1,261.2 M683.2,214.2c-2.7,0-4.3,1.7-4.3,4.3v14.8c-2.7-2.9-6.8-4.6-11.6-4.6
	c-11.1,0-20.8,9.8-20.8,20.9s9.7,20.8,20.8,20.8c4.9,0,9.5-2.5,12-5c0.5,2.7,2.1,4.2,4.7,4.2c2.1,0,3.6-1.6,3.6-3.9v-47.3
	C687.6,215.9,685.8,214.2,683.2,214.2 M667.3,261.2c-6.4,0-11.6-5.2-11.6-11.6s5.2-11.6,11.6-11.6c6.4,0,11.6,5.2,11.6,11.6
	C678.8,256.1,673.7,261.2,667.3,261.2 M746.3,229.6c-2.8,0-4.2,1.3-4.6,4.2c-2.6-2.6-7.1-5.1-12-5.1c-11.1,0-20.8,9.7-20.8,20.9
	c0,11.1,9.7,20.9,20.8,20.9c5,0,9-1.6,11.5-4.4c-0.3,8.4-4.3,12.5-12.4,12.5c-2.7,0-4.3,1.7-4.3,4.3c0,2.8,1.7,4.3,4.6,4.3
	c15.4,0,20.8-11.2,20.8-20.8v-33C750,231.3,748.5,229.6,746.3,229.6 M729.6,261.2c-6.4,0-11.6-5.2-11.6-11.6s5.2-11.6,11.6-11.6
	c6.4,0,11.6,5.2,11.6,11.6C741.1,256.1,736,261.2,729.6,261.2 M922.8,229.4c-2.4,0-4.3,1.8-4.3,4.3l-0.1,31.8c0,2.6,1.8,4.3,4.3,4.3
	c2.7,0,4.3-1.6,4.3-4.3l0.1-31.8C927.1,231.1,925.4,229.4,922.8,229.4 M698.7,229.2c-2.4,0-4.3,1.8-4.3,4.3v31.8
	c0,2.6,1.8,4.3,4.3,4.3c2.7,0,4.3-1.6,4.3-4.3v-31.8C703.1,230.9,701.3,229.2,698.7,229.2 M761.9,229.3c-2.4,0-4.3,1.8-4.3,4.3v31.7
	c0,2.6,1.8,4.3,4.3,4.3c2.7,0,4.3-1.6,4.3-4.3v-31.7C766.2,231,764.5,229.3,761.9,229.3 M788.6,261.2c-2.8-0.2-4.6-1-4.6-4.3v-18.3
	h2.2c2.4,0,4.3-1.8,4.3-4.3c0-2.7-1.7-4.3-4.3-4.3H784v-11.5c0-2.7-1.6-4.3-4.3-4.3c-2.5,0-4.3,1.8-4.3,4.3v11.6
	c-2.1,0.3-3.3,1.9-3.3,4.2c0,2.2,1.4,3.9,3.3,4.2v18.4c0,8,4.3,12.6,11.8,12.6c3.1,0,5-1.5,5-4C792.2,263,790.8,261.4,788.6,261.2
	 M847.2,214.2c-2.5,0-4.3,1.8-4.3,4.3v46.8c0,2.6,1.8,4.3,4.3,4.3c2.7,0,4.3-1.6,4.3-4.3v-46.8C851.6,215.8,849.9,214.2,847.2,214.2
	 M872.4,256.9c-0.1-0.2-0.3-0.4-0.5-0.6c-0.4-0.5-0.8-0.9-1.4-1.3c-0.2-0.1-0.3-0.3-0.5-0.3c-0.9-0.6-1.9-1-3.1-1.2
	c-0.5-0.1-0.9-0.1-1.4-0.1c-1.4,0-2.7,0.3-3.9,1c-0.2,0.1-0.5,0.3-0.7,0.4c-2.2,1.4-3.6,3.9-3.6,6.7s1.4,5.3,3.6,6.7
	c0.2,0.1,0.4,0.3,0.7,0.4c1.2,0.6,2.4,1,3.9,1c2,0,3.7-0.7,5.2-1.8c0.4-0.3,0.7-0.7,1.1-1.1c0.1-0.2,0.3-0.4,0.5-0.6
	c0.3-0.4,0.5-0.9,0.7-1.4c0.4-1,0.6-2,0.6-3.2s-0.2-2.2-0.6-3.2C872.9,257.8,872.6,257.4,872.4,256.9"/>
<path class="st1" d="M821.8,247.8c0.1,0.5,0.2,1.2,0.2,1.8c0,0.3,0,0.7-0.1,1s-0.1,0.7-0.2,1c-0.1,0.6-0.4,1.2-0.7,1.8
	c-1.4,2.4-3.9,4.1-6.9,4.1c-4.3,0-7.9-3.5-7.9-8c0-0.5,0.1-1.1,0.1-1.6c0.5-2.6,2.3-4.7,4.7-5.7c1-0.4,2-0.6,3.1-0.6
	s2.1,0.2,3.1,0.6c1.8,0.7,3.2,2.1,4,3.9C821.5,246.7,821.7,247.3,821.8,247.8 M667.3,241.7c-4.3,0-7.9,3.5-7.9,8s3.5,8,7.9,8
	c4.3,0,7.9-3.5,7.9-8S671.6,241.7,667.3,241.7 M893.7,242.3c-0.2-0.1-0.5-0.2-0.7-0.3c-0.3-0.1-0.7-0.2-1.2-0.3s-0.8-0.1-1.2-0.1
	c-0.8,0-1.6,0.1-2.4,0.3c-0.3,0.1-0.5,0.1-0.7,0.3c-2.4,1-4.1,3.1-4.7,5.7c-0.1,0.5-0.1,1-0.1,1.6c0,2.2,0.9,4.1,2.3,5.6
	c0.3,0.3,0.7,0.7,1.2,1c0.6,0.4,1.4,0.7,2,1c0.7,0.2,1.6,0.3,2.4,0.3c0.4,0,0.8,0,1.2-0.1s0.7-0.1,1.2-0.3c0.7-0.2,1.4-0.5,2-1
	c0.4-0.3,0.8-0.6,1.2-1c1.4-1.4,2.3-3.4,2.3-5.6c0-0.5-0.1-1.1-0.1-1.6C897.8,245.5,896.1,243.4,893.7,242.3 M732.6,242.3
	c-1-0.4-2-0.6-3.1-0.6s-2.1,0.2-3.1,0.6c-2.4,1-4.1,3.1-4.7,5.7c-0.1,0.5-0.1,1-0.1,1.6c0,4.3,3.5,8,7.9,8c4.3,0,7.9-3.5,7.9-8
	c0-0.5-0.1-1.1-0.1-1.6C736.8,245.5,735,243.4,732.6,242.3"/>
<g class="st2">
	<path class="st3" d="M806.2,299.6h-1.4c-0.3,0-0.6,0-0.7-0.1c-0.2-0.1-0.3-0.3-0.4-0.6l-0.4-1.7c-0.5,0.4-0.9,0.8-1.4,1.2
		c-0.5,0.3-0.9,0.6-1.4,0.9c-0.5,0.2-1,0.4-1.6,0.5c-0.6,0.1-1.2,0.2-1.9,0.2c-0.7,0-1.4-0.1-2-0.3c-0.6-0.2-1.1-0.5-1.6-0.9
		s-0.8-0.9-1.1-1.5c-0.3-0.6-0.4-1.3-0.4-2.1c0-0.7,0.2-1.4,0.6-2.1c0.4-0.7,1-1.3,1.9-1.8c0.9-0.5,2-0.9,3.4-1.3
		c1.4-0.3,3.1-0.5,5.2-0.5V288c0-1.4-0.3-2.5-0.9-3.2c-0.6-0.7-1.5-1.1-2.7-1.1c-0.8,0-1.4,0.1-2,0.3c-0.5,0.2-1,0.4-1.4,0.7
		s-0.7,0.5-1,0.7c-0.3,0.2-0.6,0.3-0.8,0.3c-0.2,0-0.4-0.1-0.6-0.2c-0.2-0.1-0.3-0.3-0.4-0.4l-0.6-1c1-1,2.1-1.7,3.2-2.2
		c1.2-0.5,2.4-0.7,3.8-0.7c1,0,1.9,0.2,2.7,0.5c0.8,0.3,1.4,0.8,2,1.4c0.5,0.6,0.9,1.3,1.2,2.2c0.3,0.8,0.4,1.8,0.4,2.8V299.6z
		 M797.9,297.6c0.6,0,1.1-0.1,1.5-0.2c0.5-0.1,0.9-0.3,1.3-0.5c0.4-0.2,0.8-0.5,1.2-0.8s0.7-0.6,1.1-1v-3.7c-1.5,0-2.7,0.1-3.7,0.3
		s-1.9,0.4-2.5,0.7c-0.6,0.3-1.1,0.7-1.4,1.1s-0.4,0.9-0.4,1.4c0,0.5,0.1,0.9,0.2,1.2c0.2,0.3,0.4,0.6,0.6,0.9
		c0.3,0.2,0.6,0.4,0.9,0.5C797.1,297.6,797.5,297.6,797.9,297.6z"/>
	<path class="st3" d="M811,299.6v-18.1h1.9c0.5,0,0.7,0.2,0.9,0.7l0.2,2c0.8-0.9,1.7-1.6,2.6-2.1c1-0.5,2.1-0.8,3.4-0.8
		c1,0,1.9,0.2,2.6,0.5c0.8,0.3,1.4,0.8,1.9,1.4c0.5,0.6,0.9,1.3,1.2,2.2s0.4,1.8,0.4,2.8v11.5h-3.2v-11.5c0-1.4-0.3-2.4-0.9-3.2
		s-1.6-1.1-2.9-1.1c-0.9,0-1.8,0.2-2.6,0.7s-1.6,1.1-2.3,1.8v13.3H811z"/>
	<path class="st3" d="M844.2,299.6h-1.4c-0.3,0-0.6,0-0.8-0.1c-0.2-0.1-0.3-0.3-0.4-0.6l-0.4-1.7c-0.5,0.4-0.9,0.8-1.4,1.2
		c-0.5,0.3-0.9,0.6-1.4,0.9c-0.5,0.2-1,0.4-1.6,0.5c-0.6,0.1-1.2,0.2-1.9,0.2c-0.7,0-1.4-0.1-2-0.3c-0.6-0.2-1.1-0.5-1.6-0.9
		c-0.5-0.4-0.8-0.9-1.1-1.5c-0.3-0.6-0.4-1.3-0.4-2.1c0-0.7,0.2-1.4,0.6-2.1c0.4-0.7,1-1.3,1.9-1.8c0.9-0.5,2-0.9,3.4-1.3
		c1.4-0.3,3.1-0.5,5.2-0.5V288c0-1.4-0.3-2.5-0.9-3.2c-0.6-0.7-1.5-1.1-2.7-1.1c-0.8,0-1.4,0.1-2,0.3c-0.5,0.2-1,0.4-1.4,0.7
		s-0.7,0.5-1,0.7c-0.3,0.2-0.6,0.3-0.8,0.3c-0.2,0-0.4-0.1-0.6-0.2c-0.2-0.1-0.3-0.3-0.4-0.4l-0.6-1c1-1,2.1-1.7,3.2-2.2
		c1.2-0.5,2.4-0.7,3.8-0.7c1,0,1.9,0.2,2.7,0.5c0.8,0.3,1.4,0.8,2,1.4c0.5,0.6,0.9,1.3,1.2,2.2c0.3,0.8,0.4,1.8,0.4,2.8V299.6z
		 M835.9,297.6c0.6,0,1.1-0.1,1.5-0.2c0.5-0.1,0.9-0.3,1.3-0.5c0.4-0.2,0.8-0.5,1.2-0.8s0.7-0.6,1.1-1v-3.7c-1.5,0-2.7,0.1-3.7,0.3
		c-1,0.2-1.9,0.4-2.5,0.7c-0.6,0.3-1.1,0.7-1.4,1.1c-0.3,0.4-0.4,0.9-0.4,1.4c0,0.5,0.1,0.9,0.2,1.2c0.2,0.3,0.4,0.6,0.6,0.9
		c0.3,0.2,0.6,0.4,0.9,0.5S835.5,297.6,835.9,297.6z"/>
	<path class="st3" d="M852.5,273.3v26.3h-3.2v-26.3H852.5z"/>
	<path class="st3" d="M863.4,304.9c-0.1,0.2-0.2,0.4-0.4,0.6c-0.2,0.1-0.4,0.2-0.7,0.2h-2.4l3.3-7.2l-7.5-17h2.7
		c0.3,0,0.5,0.1,0.6,0.2c0.2,0.1,0.3,0.3,0.3,0.5l4.8,11.4c0.1,0.3,0.2,0.5,0.3,0.8s0.1,0.5,0.2,0.8c0.1-0.3,0.2-0.5,0.2-0.8
		s0.2-0.5,0.3-0.8l4.7-11.4c0.1-0.2,0.2-0.3,0.4-0.5s0.4-0.2,0.6-0.2h2.5L863.4,304.9z"/>
	<path class="st3" d="M881.9,299.9c-1.4,0-2.5-0.4-3.3-1.2c-0.8-0.8-1.2-1.9-1.2-3.4v-11.1h-2.2c-0.2,0-0.4-0.1-0.5-0.2
		s-0.2-0.3-0.2-0.5v-1.3l3-0.4l0.7-5.6c0-0.2,0.1-0.3,0.2-0.4c0.1-0.1,0.3-0.2,0.5-0.2h1.6v6.2h5.2v2.3h-5.2V295
		c0,0.8,0.2,1.3,0.6,1.7c0.4,0.4,0.8,0.6,1.4,0.6c0.3,0,0.6,0,0.9-0.1s0.5-0.2,0.6-0.3c0.2-0.1,0.3-0.2,0.5-0.3
		c0.1-0.1,0.2-0.1,0.3-0.1c0.2,0,0.3,0.1,0.4,0.3l0.9,1.5c-0.5,0.5-1.2,0.9-2,1.2C883.5,299.7,882.7,299.9,881.9,299.9z"/>
	<path class="st3" d="M894,275.8c0,0.3-0.1,0.6-0.2,0.9s-0.3,0.5-0.5,0.7c-0.2,0.2-0.4,0.4-0.7,0.5c-0.3,0.1-0.6,0.2-0.9,0.2
		s-0.6-0.1-0.9-0.2s-0.5-0.3-0.7-0.5c-0.2-0.2-0.4-0.4-0.5-0.7s-0.2-0.6-0.2-0.9s0.1-0.6,0.2-0.9c0.1-0.3,0.3-0.5,0.5-0.7
		c0.2-0.2,0.4-0.4,0.7-0.5s0.6-0.2,0.9-0.2s0.6,0.1,0.9,0.2c0.3,0.1,0.5,0.3,0.7,0.5c0.2,0.2,0.4,0.5,0.5,0.7
		C893.9,275.2,894,275.5,894,275.8z M893.3,281.5v18.1h-3.2v-18.1H893.3z"/>
	<path class="st3" d="M911.2,284.7c-0.1,0.1-0.2,0.2-0.3,0.3c-0.1,0.1-0.2,0.1-0.4,0.1s-0.4-0.1-0.6-0.2c-0.2-0.1-0.5-0.3-0.8-0.5
		c-0.3-0.2-0.7-0.3-1.2-0.5c-0.5-0.1-1-0.2-1.7-0.2c-0.9,0-1.7,0.2-2.3,0.5c-0.7,0.3-1.2,0.8-1.7,1.4c-0.5,0.6-0.8,1.3-1,2.2
		c-0.2,0.8-0.3,1.8-0.3,2.8c0,1.1,0.1,2.1,0.4,2.9c0.2,0.9,0.6,1.6,1.1,2.1c0.5,0.6,1,1,1.7,1.3c0.6,0.3,1.4,0.5,2.2,0.5
		c0.8,0,1.4-0.1,1.9-0.3c0.5-0.2,0.9-0.4,1.2-0.6c0.3-0.2,0.6-0.4,0.8-0.6c0.2-0.2,0.4-0.3,0.6-0.3c0.3,0,0.5,0.1,0.6,0.3l0.9,1.2
		c-0.8,1-1.8,1.7-2.9,2.1s-2.4,0.7-3.7,0.7c-1.1,0-2.2-0.2-3.2-0.6c-1-0.4-1.8-1-2.5-1.8c-0.7-0.8-1.3-1.8-1.7-2.9
		c-0.4-1.2-0.6-2.5-0.6-3.9c0-1.3,0.2-2.6,0.6-3.7s0.9-2.1,1.6-3c0.7-0.8,1.6-1.5,2.7-1.9c1.1-0.5,2.3-0.7,3.6-0.7
		c1.3,0,2.4,0.2,3.4,0.6c1,0.4,1.8,1,2.6,1.7L911.2,284.7z"/>
	<path class="st3" d="M925.9,284.5c-0.1,0.3-0.4,0.4-0.7,0.4c-0.2,0-0.4-0.1-0.6-0.2c-0.2-0.1-0.5-0.3-0.8-0.4
		c-0.3-0.2-0.7-0.3-1.2-0.4s-1-0.2-1.6-0.2c-0.5,0-1,0.1-1.4,0.2c-0.4,0.1-0.8,0.3-1.1,0.6c-0.3,0.2-0.5,0.5-0.7,0.8
		c-0.2,0.3-0.2,0.7-0.2,1c0,0.5,0.1,0.9,0.4,1.2c0.3,0.3,0.6,0.6,1.1,0.8c0.4,0.2,0.9,0.4,1.5,0.6c0.6,0.2,1.1,0.4,1.7,0.6
		c0.6,0.2,1.2,0.4,1.7,0.7s1.1,0.5,1.5,0.9c0.4,0.4,0.8,0.8,1.1,1.3c0.3,0.5,0.4,1.1,0.4,1.9c0,0.8-0.1,1.6-0.4,2.3
		c-0.3,0.7-0.7,1.3-1.3,1.8s-1.3,0.9-2.1,1.2c-0.8,0.3-1.8,0.4-2.9,0.4c-1.3,0-2.4-0.2-3.4-0.6c-1-0.4-1.9-0.9-2.6-1.6l0.8-1.2
		c0.1-0.2,0.2-0.3,0.3-0.4s0.3-0.1,0.5-0.1c0.2,0,0.4,0.1,0.7,0.2s0.5,0.4,0.9,0.6c0.3,0.2,0.8,0.4,1.2,0.6c0.5,0.2,1.1,0.2,1.8,0.2
		c0.6,0,1.2-0.1,1.6-0.2c0.5-0.2,0.9-0.4,1.2-0.7c0.3-0.3,0.5-0.6,0.7-0.9s0.2-0.7,0.2-1.1c0-0.5-0.1-0.9-0.4-1.2
		c-0.3-0.3-0.6-0.6-1.1-0.8s-0.9-0.4-1.5-0.6c-0.6-0.2-1.1-0.4-1.7-0.5s-1.2-0.4-1.7-0.7c-0.6-0.2-1.1-0.5-1.5-0.9
		c-0.4-0.4-0.8-0.8-1.1-1.4c-0.3-0.5-0.4-1.2-0.4-2c0-0.7,0.1-1.4,0.4-2c0.3-0.6,0.7-1.2,1.2-1.7c0.5-0.5,1.2-0.9,2-1.2
		c0.8-0.3,1.7-0.4,2.7-0.4c1.2,0,2.3,0.2,3.2,0.6c0.9,0.4,1.8,0.9,2.5,1.5L925.9,284.5z"/>
</g>
<g>
	<path class="st1" d="M257,57.7c21.1,0,38.3,17.2,38.3,38.3s-17.2,38.3-38.3,38.3s-38.3-17.2-38.3-38.3S235.8,57.7,257,57.7 M257,50
		c-25.4,0-46,20.6-46,46s20.6,46,46,46s46-20.6,46-46S282.4,50,257,50L257,50z"/>
	<g>
		<g>
			<path class="st1" d="M250.3,91.2h-16.4c-0.5,0-0.9-0.2-1.3-0.5c-0.4-0.4-0.6-0.8-0.6-1.3c0-5.1,1.8-9.4,5.4-13
				c3.6-3.6,7.9-5.4,12.9-5.4c0.5,0,1,0.2,1.3,0.5c0.4,0.4,0.5,0.8,0.5,1.3v16.4c0.1,0.5-0.1,1-0.5,1.4S250.8,91.2,250.3,91.2z
				 M275.2,114.2c-4.6,4.6-10.1,6.8-16.5,6.8s-11.9-2.2-16.5-6.5c-4.5-4.4-6.8-9.6-6.8-15.8c0-0.6,0.2-1.1,0.6-1.5
				c0.4-0.4,0.9-0.6,1.5-0.6h19.9V76.6c0-0.6,0.2-1.1,0.6-1.5c0.4-0.4,0.9-0.6,1.5-0.6c6.1,0,11.3,2.3,15.7,6.9
				c4.4,4.6,6.6,10,6.6,16.4C282,104.1,279.7,109.6,275.2,114.2z M236,87.4h12.4V75c-3.3,0.4-6,1.7-8.3,4.1
				C237.7,81.4,236.4,84.2,236,87.4z M239.9,100.9c0.5,4.4,2.6,8.2,6.2,11.2c3.6,3,7.8,4.5,12.6,4.5c5.2,0,9.7-1.9,13.4-5.6
				s5.6-8.2,5.6-13.4c0-4.7-1.5-8.9-4.6-12.5c-3.1-3.6-6.8-5.7-11.1-6.2v19.7c0,0.7-0.2,1.2-0.6,1.6c-0.4,0.4-1,0.6-1.6,0.6H239.9z"
				/>
			<path class="st1" d="M258.7,122c-6.7,0-12.5-2.3-17.1-6.8c-4.7-4.5-7.1-10.1-7.1-16.5c0-0.9,0.3-1.6,0.9-2.2
				c0.6-0.6,1.4-0.9,2.2-0.9h18.9V76.6c0-0.9,0.3-1.6,0.9-2.2c0.6-0.6,1.4-0.9,2.2-0.9c6.3,0,11.8,2.4,16.4,7.2
				c4.6,4.8,6.9,10.5,6.9,17.1c0,6.7-2.4,12.5-7.1,17.2S265.4,122,258.7,122z M237.6,97.5c-0.3,0-0.6,0.1-0.8,0.3s-0.3,0.5-0.3,0.8
				c0,5.9,2.2,11,6.5,15.1c4.3,4.2,9.6,6.3,15.8,6.3c6.1,0,11.5-2.2,15.8-6.5s6.5-9.7,6.5-15.8c0-6-2.1-11.3-6.4-15.7
				c-4.2-4.4-9.3-6.6-15-6.6c-0.3,0-0.6,0.1-0.8,0.3s-0.3,0.5-0.3,0.8v20.9H237.6z M258.7,117.6c-5,0-9.5-1.6-13.2-4.8
				c-3.8-3.2-6-7.2-6.5-11.8l-0.1-1.1h20.9c0.4,0,0.7-0.1,0.9-0.3s0.3-0.5,0.3-0.9V77.8l1.1,0.1c4.6,0.6,8.6,2.8,11.8,6.6
				c3.2,3.8,4.8,8.2,4.8,13.1c0,5.5-2,10.2-5.9,14.1C268.9,115.6,264.1,117.6,258.7,117.6z M241.1,101.9c0.7,3.7,2.6,6.8,5.6,9.4
				c3.4,2.9,7.4,4.3,12,4.3c4.9,0,9.2-1.8,12.7-5.3c3.5-3.5,5.3-7.8,5.3-12.7c0-4.4-1.5-8.4-4.4-11.9c-2.6-3.1-5.8-5-9.4-5.7v18.6
				c0,0.9-0.3,1.7-0.9,2.3c-0.6,0.6-1.4,0.9-2.3,0.9H241.1z M250.3,92.2h-16.4c-0.7,0-1.4-0.3-1.9-0.8c-0.6-0.5-0.9-1.3-0.9-2.1
				c0-5.3,1.9-9.9,5.7-13.7S245,70,250.3,70c0.8,0,1.5,0.3,2,0.8c0.5,0.5,0.8,1.2,0.8,2v16.4c0.1,0.8-0.2,1.5-0.8,2.1
				C251.8,91.9,251,92.2,250.3,92.2z M250.3,72c-4.7,0-8.8,1.7-12.2,5.1s-5.1,7.5-5.1,12.3c0,0.2,0.1,0.4,0.3,0.6
				c0.3,0.2,0.5,0.3,0.6,0.3h16.4c0.3,0,0.5-0.1,0.7-0.3c0.2-0.2,0.2-0.4,0.2-0.5l0-0.1V72.9c0-0.3-0.1-0.4-0.2-0.6
				C250.7,72.1,250.5,72,250.3,72z M249.4,88.4h-14.5l0.1-1.1c0.4-3.5,1.9-6.5,4.3-8.9c2.5-2.5,5.5-3.9,8.9-4.3l1.1-0.1V88.4z
				 M237.2,86.4h10.2V76.2c-2.5,0.5-4.8,1.7-6.6,3.6C238.9,81.6,237.7,83.9,237.2,86.4z"/>
		</g>
	</g>
</g>
<g>
	<path class="st1" d="M726,55.7c21.1,0,38.3,17.2,38.3,38.3s-17.2,38.3-38.3,38.3s-38.3-17.2-38.3-38.3S704.8,55.7,726,55.7 M726,48
		c-25.4,0-46,20.6-46,46s20.6,46,46,46s46-20.6,46-46S751.4,48,726,48L726,48z"/>
	<g>
		<g>
			<path class="st1" d="M719.3,89.2h-16.4c-0.5,0-0.9-0.2-1.3-0.5c-0.4-0.4-0.6-0.8-0.6-1.3c0-5.1,1.8-9.4,5.4-13
				c3.6-3.6,7.9-5.4,12.9-5.4c0.5,0,1,0.2,1.3,0.5c0.4,0.4,0.5,0.8,0.5,1.3v16.4c0.1,0.5-0.1,1-0.5,1.4S719.8,89.2,719.3,89.2z
				 M744.2,112.2c-4.6,4.6-10.1,6.8-16.5,6.8s-11.9-2.2-16.5-6.5c-4.5-4.4-6.8-9.6-6.8-15.8c0-0.6,0.2-1.1,0.6-1.5
				c0.4-0.4,0.9-0.6,1.5-0.6h19.9V74.6c0-0.6,0.2-1.1,0.6-1.5c0.4-0.4,0.9-0.6,1.5-0.6c6.1,0,11.3,2.3,15.7,6.9
				c4.4,4.6,6.6,10,6.6,16.4C751,102.1,748.7,107.6,744.2,112.2z M705,85.4h12.4V73c-3.3,0.4-6,1.7-8.3,4.1
				C706.7,79.4,705.4,82.2,705,85.4z M708.9,98.9c0.5,4.4,2.6,8.2,6.2,11.2c3.6,3,7.8,4.5,12.6,4.5c5.2,0,9.7-1.9,13.4-5.6
				s5.6-8.2,5.6-13.4c0-4.7-1.5-8.9-4.6-12.5c-3.1-3.6-6.8-5.7-11.1-6.2v19.7c0,0.7-0.2,1.2-0.6,1.6c-0.4,0.4-1,0.6-1.6,0.6H708.9z"
				/>
			<path class="st1" d="M727.7,120c-6.7,0-12.5-2.3-17.1-6.8c-4.7-4.5-7.1-10.1-7.1-16.5c0-0.9,0.3-1.6,0.9-2.2
				c0.6-0.6,1.4-0.9,2.2-0.9h18.9V74.6c0-0.9,0.3-1.6,0.9-2.2c0.6-0.6,1.4-0.9,2.2-0.9c6.3,0,11.8,2.4,16.4,7.2
				c4.6,4.8,6.9,10.5,6.9,17.1c0,6.7-2.4,12.5-7.1,17.2S734.4,120,727.7,120z M706.6,95.5c-0.3,0-0.6,0.1-0.8,0.3s-0.3,0.5-0.3,0.8
				c0,5.9,2.2,11,6.5,15.1c4.3,4.2,9.6,6.3,15.8,6.3c6.1,0,11.5-2.2,15.8-6.5s6.5-9.7,6.5-15.8c0-6-2.1-11.3-6.4-15.7
				c-4.2-4.4-9.3-6.6-15-6.6c-0.3,0-0.6,0.1-0.8,0.3s-0.3,0.5-0.3,0.8v20.9H706.6z M727.7,115.6c-5,0-9.5-1.6-13.2-4.8
				c-3.8-3.2-6-7.2-6.5-11.8l-0.1-1.1h20.9c0.4,0,0.7-0.1,0.9-0.3s0.3-0.5,0.3-0.9V75.8l1.1,0.1c4.6,0.6,8.6,2.8,11.8,6.6
				c3.2,3.8,4.8,8.2,4.8,13.1c0,5.5-2,10.2-5.9,14.1C737.9,113.6,733.1,115.6,727.7,115.6z M710.1,99.9c0.7,3.7,2.6,6.8,5.6,9.4
				c3.4,2.9,7.4,4.3,12,4.3c4.9,0,9.2-1.8,12.7-5.3c3.5-3.5,5.3-7.8,5.3-12.7c0-4.4-1.5-8.4-4.4-11.9c-2.6-3.1-5.8-5-9.4-5.7v18.6
				c0,0.9-0.3,1.7-0.9,2.3c-0.6,0.6-1.4,0.9-2.3,0.9H710.1z M719.3,90.2h-16.4c-0.7,0-1.4-0.3-1.9-0.8c-0.6-0.5-0.9-1.3-0.9-2.1
				c0-5.3,1.9-9.9,5.7-13.7S714,68,719.3,68c0.8,0,1.5,0.3,2,0.8c0.5,0.5,0.8,1.2,0.8,2v16.4c0.1,0.8-0.2,1.5-0.8,2.1
				C720.8,89.9,720,90.2,719.3,90.2z M719.3,70c-4.7,0-8.8,1.7-12.2,5.1s-5.1,7.5-5.1,12.3c0,0.2,0.1,0.4,0.3,0.6
				c0.3,0.2,0.5,0.3,0.6,0.3h16.4c0.3,0,0.5-0.1,0.7-0.3c0.2-0.2,0.2-0.4,0.2-0.5l0-0.1V70.9c0-0.3-0.1-0.4-0.2-0.6
				C719.7,70.1,719.5,70,719.3,70z M718.4,86.4h-14.5l0.1-1.1c0.4-3.5,1.9-6.5,4.3-8.9c2.5-2.5,5.5-3.9,8.9-4.3l1.1-0.1V86.4z
				 M706.2,84.4h10.2V74.2c-2.5,0.5-4.8,1.7-6.6,3.6C707.9,79.6,706.7,81.9,706.2,84.4z"/>
		</g>
	</g>
</g>
<g>
	<path class="st1" d="M95.7,220.5c21.1,0,38.3,17.2,38.3,38.3s-17.2,38.3-38.3,38.3s-38.3-17.2-38.3-38.3S74.5,220.5,95.7,220.5
		 M95.7,212.8c-25.4,0-46,20.6-46,46s20.6,46,46,46s46-20.6,46-46S121.1,212.8,95.7,212.8L95.7,212.8z"/>
	<g>
		<g>
			<path class="st1" d="M89,254H72.6c-0.5,0-0.9-0.2-1.3-0.5c-0.4-0.4-0.6-0.8-0.6-1.3c0-5.1,1.8-9.4,5.4-13
				c3.6-3.6,7.9-5.4,12.9-5.4c0.5,0,1,0.2,1.3,0.5c0.4,0.4,0.5,0.8,0.5,1.3V252c0.1,0.5-0.1,1-0.5,1.4S89.5,254,89,254z
				 M113.9,276.9c-4.6,4.6-10.1,6.8-16.5,6.8s-11.9-2.2-16.5-6.5c-4.5-4.4-6.8-9.6-6.8-15.8c0-0.6,0.2-1.1,0.6-1.5
				c0.4-0.4,0.9-0.6,1.5-0.6h19.9v-19.9c0-0.6,0.2-1.1,0.6-1.5c0.4-0.4,0.9-0.6,1.5-0.6c6.1,0,11.3,2.3,15.7,6.9
				c4.4,4.6,6.6,10,6.6,16.4C120.7,266.9,118.5,272.4,113.9,276.9z M74.7,250.2h12.4v-12.4c-3.3,0.4-6,1.7-8.3,4.1
				C76.5,244.2,75.1,246.9,74.7,250.2z M78.6,263.7c0.5,4.4,2.6,8.2,6.2,11.2c3.6,3,7.8,4.5,12.6,4.5c5.2,0,9.7-1.9,13.4-5.6
				s5.6-8.2,5.6-13.4c0-4.7-1.5-8.9-4.6-12.5c-3.1-3.6-6.8-5.7-11.1-6.2v19.7c0,0.7-0.2,1.2-0.6,1.6c-0.4,0.4-1,0.6-1.6,0.6H78.6z"
				/>
			<path class="st1" d="M97.4,284.8c-6.7,0-12.5-2.3-17.1-6.8c-4.7-4.5-7.1-10.1-7.1-16.5c0-0.9,0.3-1.6,0.9-2.2
				c0.6-0.6,1.4-0.9,2.2-0.9h18.9v-18.9c0-0.9,0.3-1.6,0.9-2.2c0.6-0.6,1.4-0.9,2.2-0.9c6.3,0,11.8,2.4,16.4,7.2
				c4.6,4.8,6.9,10.5,6.9,17.1c0,6.7-2.4,12.5-7.1,17.2S104.1,284.8,97.4,284.8z M76.3,260.3c-0.3,0-0.6,0.1-0.8,0.3
				s-0.3,0.5-0.3,0.8c0,5.9,2.2,11,6.5,15.1c4.3,4.2,9.6,6.3,15.8,6.3c6.1,0,11.5-2.2,15.8-6.5s6.5-9.7,6.5-15.8
				c0-6-2.1-11.3-6.4-15.7c-4.2-4.4-9.3-6.6-15-6.6c-0.3,0-0.6,0.1-0.8,0.3s-0.3,0.5-0.3,0.8v20.9H76.3z M97.4,280.4
				c-5,0-9.5-1.6-13.2-4.8c-3.8-3.2-6-7.2-6.5-11.8l-0.1-1.1h20.9c0.4,0,0.7-0.1,0.9-0.3s0.3-0.5,0.3-0.9v-20.9l1.1,0.1
				c4.6,0.6,8.6,2.8,11.8,6.6c3.2,3.8,4.8,8.2,4.8,13.1c0,5.5-2,10.2-5.9,14.1C107.6,278.4,102.9,280.4,97.4,280.4z M79.8,264.7
				c0.7,3.7,2.6,6.8,5.6,9.4c3.4,2.9,7.4,4.3,12,4.3c4.9,0,9.2-1.8,12.7-5.3c3.5-3.5,5.3-7.8,5.3-12.7c0-4.4-1.5-8.4-4.4-11.9
				c-2.6-3.1-5.8-5-9.4-5.7v18.6c0,0.9-0.3,1.7-0.9,2.3c-0.6,0.6-1.4,0.9-2.3,0.9H79.8z M89,255H72.6c-0.7,0-1.4-0.3-1.9-0.8
				c-0.6-0.5-0.9-1.3-0.9-2.1c0-5.3,1.9-9.9,5.7-13.7s8.3-5.7,13.6-5.7c0.8,0,1.5,0.3,2,0.8c0.5,0.5,0.8,1.2,0.8,2V252
				c0.1,0.8-0.2,1.5-0.8,2.1C90.5,254.7,89.8,255,89,255z M89,234.8c-4.7,0-8.8,1.7-12.2,5.1s-5.1,7.5-5.1,12.3
				c0,0.2,0.1,0.4,0.3,0.6c0.3,0.2,0.5,0.3,0.6,0.3H89c0.3,0,0.5-0.1,0.7-0.3c0.2-0.2,0.2-0.4,0.2-0.5l0-0.1v-16.4
				c0-0.3-0.1-0.4-0.2-0.6C89.4,234.9,89.3,234.8,89,234.8z M88.1,251.2H73.6l0.1-1.1c0.4-3.5,1.9-6.5,4.3-8.9
				c2.5-2.5,5.5-3.9,8.9-4.3l1.1-0.1V251.2z M75.9,249.2h10.2V239c-2.5,0.5-4.8,1.7-6.6,3.6C77.6,244.4,76.4,246.6,75.9,249.2z"/>
		</g>
	</g>
</g>
<g>
	<path class="st1" d="M592,220.5c21.1,0,38.3,17.2,38.3,38.3s-17.2,38.3-38.3,38.3s-38.3-17.2-38.3-38.3S570.8,220.5,592,220.5
		 M592,212.8c-25.4,0-46,20.6-46,46s20.6,46,46,46s46-20.6,46-46S617.4,212.8,592,212.8L592,212.8z"/>
	<g>
		<g>
			<path class="st1" d="M585.3,254h-16.4c-0.5,0-0.9-0.2-1.3-0.5c-0.4-0.4-0.6-0.8-0.6-1.3c0-5.1,1.8-9.4,5.4-13
				c3.6-3.6,7.9-5.4,12.9-5.4c0.5,0,1,0.2,1.3,0.5c0.4,0.4,0.5,0.8,0.5,1.3V252c0.1,0.5-0.1,1-0.5,1.4S585.8,254,585.3,254z
				 M610.2,276.9c-4.6,4.6-10.1,6.8-16.5,6.8s-11.9-2.2-16.5-6.5c-4.5-4.4-6.8-9.6-6.8-15.8c0-0.6,0.2-1.1,0.6-1.5
				c0.4-0.4,0.9-0.6,1.5-0.6h19.9v-19.9c0-0.6,0.2-1.1,0.6-1.5c0.4-0.4,0.9-0.6,1.5-0.6c6.1,0,11.3,2.3,15.7,6.9
				c4.4,4.6,6.6,10,6.6,16.4C617,266.9,614.7,272.4,610.2,276.9z M571,250.2h12.4v-12.4c-3.3,0.4-6,1.7-8.3,4.1
				C572.7,244.2,571.4,246.9,571,250.2z M574.9,263.7c0.5,4.4,2.6,8.2,6.2,11.2c3.6,3,7.8,4.5,12.6,4.5c5.2,0,9.7-1.9,13.4-5.6
				s5.6-8.2,5.6-13.4c0-4.7-1.5-8.9-4.6-12.5c-3.1-3.6-6.8-5.7-11.1-6.2v19.7c0,0.7-0.2,1.2-0.6,1.6c-0.4,0.4-1,0.6-1.6,0.6H574.9z"
				/>
			<path class="st1" d="M593.7,284.8c-6.7,0-12.5-2.3-17.1-6.8c-4.7-4.5-7.1-10.1-7.1-16.5c0-0.9,0.3-1.6,0.9-2.2
				c0.6-0.6,1.4-0.9,2.2-0.9h18.9v-18.9c0-0.9,0.3-1.6,0.9-2.2c0.6-0.6,1.4-0.9,2.2-0.9c6.3,0,11.8,2.4,16.4,7.2
				c4.6,4.8,6.9,10.5,6.9,17.1c0,6.7-2.4,12.5-7.1,17.2S600.4,284.8,593.7,284.8z M572.6,260.3c-0.3,0-0.6,0.1-0.8,0.3
				s-0.3,0.5-0.3,0.8c0,5.9,2.2,11,6.5,15.1c4.3,4.2,9.6,6.3,15.8,6.3c6.1,0,11.5-2.2,15.8-6.5s6.5-9.7,6.5-15.8
				c0-6-2.1-11.3-6.4-15.7c-4.2-4.4-9.3-6.6-15-6.6c-0.3,0-0.6,0.1-0.8,0.3s-0.3,0.5-0.3,0.8v20.9H572.6z M593.7,280.4
				c-5,0-9.5-1.6-13.2-4.8c-3.8-3.2-6-7.2-6.5-11.8l-0.1-1.1h20.9c0.4,0,0.7-0.1,0.9-0.3s0.3-0.5,0.3-0.9v-20.9l1.1,0.1
				c4.6,0.6,8.6,2.8,11.8,6.6c3.2,3.8,4.8,8.2,4.8,13.1c0,5.5-2,10.2-5.9,14.1C603.9,278.4,599.1,280.4,593.7,280.4z M576.1,264.7
				c0.7,3.7,2.6,6.8,5.6,9.4c3.4,2.9,7.4,4.3,12,4.3c4.9,0,9.2-1.8,12.7-5.3c3.5-3.5,5.3-7.8,5.3-12.7c0-4.4-1.5-8.4-4.4-11.9
				c-2.6-3.1-5.8-5-9.4-5.7v18.6c0,0.9-0.3,1.7-0.9,2.3c-0.6,0.6-1.4,0.9-2.3,0.9H576.1z M585.3,255h-16.4c-0.7,0-1.4-0.3-1.9-0.8
				c-0.6-0.5-0.9-1.3-0.9-2.1c0-5.3,1.9-9.9,5.7-13.7s8.3-5.7,13.6-5.7c0.8,0,1.5,0.3,2,0.8c0.5,0.5,0.8,1.2,0.8,2V252
				c0.1,0.8-0.2,1.5-0.8,2.1C586.8,254.7,586,255,585.3,255z M585.3,234.8c-4.7,0-8.8,1.7-12.2,5.1s-5.1,7.5-5.1,12.3
				c0,0.2,0.1,0.4,0.3,0.6c0.3,0.2,0.5,0.3,0.6,0.3h16.4c0.3,0,0.5-0.1,0.7-0.3c0.2-0.2,0.2-0.4,0.2-0.5l0-0.1v-16.4
				c0-0.3-0.1-0.4-0.2-0.6C585.7,234.9,585.5,234.8,585.3,234.8z M584.4,251.2h-14.5l0.1-1.1c0.4-3.5,1.9-6.5,4.3-8.9
				c2.5-2.5,5.5-3.9,8.9-4.3l1.1-0.1V251.2z M572.2,249.2h10.2V239c-2.5,0.5-4.8,1.7-6.6,3.6C573.9,244.4,572.7,246.6,572.2,249.2z"
				/>
		</g>
	</g>
</g>
</svg>
