<?xml version="1.0" encoding="utf-8"?>
<!-- Generator: Adobe Illustrator 24.1.0, SVG Export Plug-In . SVG Version: 6.00 Build 0)  -->
<svg version="1.1" id="Layer_1" xmlns="http://www.w3.org/2000/svg" xmlns:xlink="http://www.w3.org/1999/xlink" x="0px" y="0px"
	 viewBox="0 0 96 96" style="enable-background:new 0 0 96 96;" xml:space="preserve">
<style type="text/css">
	.st0{fill:#79B522;}
</style>
<g>
	<path class="st0" d="M48,9.7c21.1,0,38.3,17.2,38.3,38.3S69.1,86.3,48,86.3S9.7,69.1,9.7,48S26.8,9.7,48,9.7 M48,2
		C22.6,2,2,22.6,2,48s20.6,46,46,46s46-20.6,46-46S73.4,2,48,2L48,2z"/>
	<g>
		<g>
			<path class="st0" d="M41.3,43.2H24.9c-0.5,0-0.9-0.2-1.3-0.5c-0.4-0.4-0.6-0.8-0.6-1.3c0-5.1,1.8-9.4,5.4-13
				C32,24.8,36.2,23,41.3,23c0.5,0,1,0.2,1.3,0.5c0.4,0.4,0.5,0.8,0.5,1.3v16.4c0.1,0.5-0.1,1-0.5,1.4S41.8,43.2,41.3,43.2z
				 M66.2,66.2C61.6,70.7,56.1,73,49.7,73s-11.9-2.2-16.5-6.5c-4.5-4.4-6.8-9.6-6.8-15.8c0-0.6,0.2-1.1,0.6-1.5
				c0.4-0.4,0.9-0.6,1.5-0.6h19.9V28.6c0-0.6,0.2-1.1,0.6-1.5c0.4-0.4,0.9-0.6,1.5-0.6c6.1,0,11.3,2.3,15.7,6.9
				c4.4,4.6,6.6,10,6.6,16.4C73,56.1,70.7,61.6,66.2,66.2z M27,39.4h12.4V27c-3.3,0.4-6,1.7-8.3,4.1C28.7,33.4,27.4,36.2,27,39.4z
				 M30.9,52.9c0.5,4.4,2.6,8.2,6.2,11.2c3.6,3,7.8,4.5,12.6,4.5c5.2,0,9.7-1.9,13.4-5.6c3.7-3.7,5.6-8.2,5.6-13.4
				c0-4.7-1.5-8.9-4.6-12.5c-3.1-3.6-6.8-5.7-11.1-6.2v19.7c0,0.7-0.2,1.2-0.6,1.6c-0.4,0.4-1,0.6-1.6,0.6H30.9z"/>
			<path class="st0" d="M49.7,74c-6.7,0-12.5-2.3-17.1-6.8c-4.7-4.5-7.1-10.1-7.1-16.5c0-0.9,0.3-1.6,0.9-2.2
				c0.6-0.6,1.4-0.9,2.2-0.9h18.9V28.6c0-0.9,0.3-1.6,0.9-2.2c0.6-0.6,1.4-0.9,2.2-0.9c6.3,0,11.8,2.4,16.4,7.2
				c4.6,4.8,6.9,10.5,6.9,17.1c0,6.7-2.4,12.5-7.1,17.2S56.4,74,49.7,74z M28.6,49.5c-0.3,0-0.6,0.1-0.8,0.3s-0.3,0.5-0.3,0.8
				c0,5.9,2.2,11,6.5,15.1c4.3,4.2,9.6,6.3,15.8,6.3c6.1,0,11.5-2.2,15.8-6.5S72,55.8,72,49.7c0-6-2.1-11.3-6.4-15.7
				c-4.2-4.4-9.3-6.6-15-6.6c-0.3,0-0.6,0.1-0.8,0.3s-0.3,0.5-0.3,0.8v20.9H28.6z M49.7,69.6c-5,0-9.5-1.6-13.2-4.8
				c-3.8-3.2-6-7.2-6.5-11.8l-0.1-1.1h20.9c0.4,0,0.7-0.1,0.9-0.3s0.3-0.5,0.3-0.9V29.8l1.1,0.1c4.6,0.6,8.6,2.8,11.8,6.6
				c3.2,3.8,4.8,8.2,4.8,13.1c0,5.5-2,10.2-5.9,14.1C59.9,67.6,55.1,69.6,49.7,69.6z M32.1,53.9c0.7,3.7,2.6,6.8,5.6,9.4
				c3.4,2.9,7.4,4.3,12,4.3c4.9,0,9.2-1.8,12.7-5.3c3.5-3.5,5.3-7.8,5.3-12.7c0-4.4-1.5-8.4-4.4-11.9c-2.6-3.1-5.8-5-9.4-5.7v18.6
				c0,0.9-0.3,1.7-0.9,2.3c-0.6,0.6-1.4,0.9-2.3,0.9H32.1z M41.3,44.2H24.9c-0.7,0-1.4-0.3-1.9-0.8c-0.6-0.5-0.9-1.3-0.9-2.1
				c0-5.3,1.9-9.9,5.7-13.7S36,22,41.3,22c0.8,0,1.5,0.3,2,0.8c0.5,0.5,0.8,1.2,0.8,2v16.4c0.1,0.8-0.2,1.5-0.8,2.1
				C42.8,43.9,42,44.2,41.3,44.2z M41.3,24c-4.7,0-8.8,1.7-12.2,5.1S24,36.6,24,41.4c0,0.2,0.1,0.4,0.3,0.6c0.3,0.2,0.5,0.3,0.6,0.3
				h16.4c0.3,0,0.5-0.1,0.7-0.3c0.2-0.2,0.2-0.4,0.2-0.5l0-0.1V24.9c0-0.3-0.1-0.4-0.2-0.6C41.7,24.1,41.5,24,41.3,24z M40.4,40.4
				H25.9l0.1-1.1c0.4-3.5,1.9-6.5,4.3-8.9c2.5-2.5,5.5-3.9,8.9-4.3l1.1-0.1V40.4z M28.2,38.4h10.2V28.2c-2.5,0.5-4.8,1.7-6.6,3.6
				C29.9,33.6,28.7,35.9,28.2,38.4z"/>
		</g>
	</g>
</g>
</svg>
